v -18.757742 0 0
v -18.757742 17.8148080896365 2.06800325314046
v -18.757742 0 3.61732566097243
v -18.757742 0 5
v -12.6380788837983 8.69834847117447 0
v -18.757742 2.06748825974268 5
v -18.757742 2.26177335154263 0
v -18.757742 7.82918864638893 2.68473601657293
v -18.757742 7.69675921875 0
v -18.757742 11.1299069049238 5
v -18.757742 14.5876735859375 1.79630445523541e-17
v -18.757742 14.9508909043459 1.89408095456125
v -18.757742 15.4540601380518 5
v -18.757742 17.05 5
v -18.757742 17.05 6.46819153005897
v -18.757742 17.05 8.36540731836578
v -18.757742 17.05 10
v -18.757742 19.3482444193015 8.39104157903207
v -18.757742 20.4479736328125 10
v -18.757742 21.005098337746 2.2053422046461
v -18.757742 21.148029941466 7.25678287453112
v -18.757742 22.95 5
v -18.757742 22.95 6.52311309112163
v -18.757742 22.95 10
v -18.757742 23.9864903953007 3.89536528797123
v -18.757742 24.7706378606663 0.0226191933605665
v -18.757742 25.4343133203125 5
v -18.757742 28.432256234719 0
v -18.757742 30 0
v -18.757742 30 1.646205484375
v -18.757742 30 5
v -17.3764080716943 9.96048563293296 0
v -17.5276627955684 22.95 8.05055062487247
v -17.4798167852783 20.0758311526184 10
v -17.1708065559831 0 3.09855967667982
v -17.34083846875 22.95 10
v -16.94061209375 30 5
v -16.842232484375 3.02137812674464e-17 5
v -16.571642686274 17.05 6.46971754831471
v -16.6338990859375 30 2.18915156856242e-17
v -16.55248590625 17.05 10
v -16.4333637284007 12.5958580265573 0
v -16.6133532656467 17.0369621067113 5
v -16.2746974353784 15.2235609325906 5
v -15.6137440581212 3.17195680727727 5
v -15.3874034636906 1.69185996190131 0
v -15.007742 17.05 5
v -15.007742 17.05 7.19641848720758
v -15.007742 17.05 10
v -15.007742 18.5530251205501 10
v -3.0288193972877 17.8998280321655 0
v -15.007742 19.1602816094927 8.06216909124548
v -15.007742 20 5
v -15.007742 20.7941419082463 9.98043652489357
v -15.007742 21.4892404027973 5
v -15.007742 22.95 5
v -15.007742 22.95 7.924107125
v -15.007742 22.95 10
v -14.7583559861361 24.8062038423854 5
v -14.4266817528681 9.14227876239929 5
v -14.5777278488402 26.2476259597113 0
v -14.0499193490953 30 2.05446475609031
v -13.5624782783746 1.17619813819487 5
v -13.1821512451845 0 2.14047064451114
v -12.7812147415736 26.2658280068857 0
v -12.5751886291496 22.563700785434 5
v -12.0145800073393 4.13323150862282 0
v -12.0910750625 30 5
v -11.9290378125 0 5
v -11.771459486287 20.4578030241319 5
v -11.7521385167293 19.3076376018297 0
v -11.361644488575 10.0652685985222 0
v -11.2503660618488 4.89184542339662 5.55111512312578e-17
v -11.257657 4.979476 5
v -11.7485950819656 16.393491798397 5
v -11.2527136131078 4.87399246182332 2.04506779629702
v -9.02977129859136 12.0112945540337 0
v -11.2405810937711 4.72864566126985 3.45397513247601
v -11.2309158941455 5.32798092612046 2.76276715924996
v -11.0327715526352 17.5770794061551 0
v -11.227874933239 4.62850165287891 4.3877067944877
v -11.232794 5.352298 0
v -11.2036062913921 5.48519892225384 5
v -11.2117252089221 4.54400040121657 0
v -11.226676 4.607112 5
v -11.5214651492858 18.4334672197018 5
v -11.1780418526652 4.39366182397219 1.81862786595121
v 1.242258 1.36132607207606 3.30130300952209
v -11.1583239955962 5.68771782653863 4.18127591949525
v -11.133586640129 5.771368529574 1.12835166353506
v -11.152643 5.717251 0
v -11.1293838881399 4.21576093844994 0
v -11.1150381696527 4.18007302865739 5
v -11.1065597492916 5.84300544128117 2.39848802342993
v -11.1232430513739 4.19635603642229 4.0823542567233
v -11.1498261937259 4.27777290073984 0.913076297249356
v -11.09570465625 0 4.68180333126402e-17
v -11.0934142910267 5.88468515152911 3.47433437562212
v -11.0042355856499 3.9139761842806 2.02773014476106
v -2.61423375944631 19.8405657385919 0
v -11.018993 6.066181 0
v -11.018993 6.066181 5
v -11.0039468469773 20.0564631391748 0
v -10.9994768432244 20.1465584615367 5
v -10.9963632857542 19.7988407910308 0.811584562763401
v -10.9775488923653 3.85984071298428 3.45550254656617
v -11.0079648088678 3.91370613707968 -2.08166817117217e-17
v -11.001183 3.896835 5
v -6.26930164057964 16.8836579424172 5
v -10.9994505404822 20.1285346062183 4.01491488019949
v -11.0016872749974 20.0631752588408 2.05677488108954
v -10.9952559352188 20.1967552963739 0.733409894110754
v -10.9968141191399 19.8473357561617 3.12794999470845
v -10.991144 19.727213 0
v -10.991144 19.727213 5
v -10.9805246360525 19.6715216082805 4.26140925832556
v -10.9661371204885 20.3927115832542 2.84953794076428
v -10.9603556632018 19.5647874138626 1.64788288634385
v -10.958706 20.467178 0
v -10.958706 20.467178 5
v -10.9399204009902 6.2191441422711 2.88433908279025
v -10.9283582897492 6.23777073309708 1.26744171793477
v -10.9472711032673 6.19921678161482 3.80297183037434
v -10.9350245463048 20.5605838487107 3.65751478578113
v -10.9212851899874 19.3966995612357 0.780705077584069
v -11.0873227458049 22.0646539869323 0
v -10.9111642409567 19.3514015013304 0
v -10.9187648143615 19.3423944940609 5
v -11.0069060411386 3.91577736648562 0.779837856176297
v -10.8808220244069 19.2650451073784 2.36022241592534
v -10.8827062925186 19.2671888638093 3.83353695750929
v -10.799528310602 20.9304075220583 3.29325318561458
v -11.3063115445119 21.6724503829102 5
v -10.8221462262572 19.1105332377398 1.17731989418639
v -10.851793 20.823073 0
v -10.851793 20.823073 5
v -10.834831 6.391295 0
v -10.834831 6.391295 5
v -10.811707 3.574789 0
v -10.811707 3.574789 5
v -10.8229085949315 20.8827909051269 2.47750561325494
v -10.7590564948412 3.50481816628874 1.53859930668664
v -10.7893504202489 19.0369235476122 -6.93889390390723e-18
v -10.7564987676116 18.9736909494066 4.97889855874198
v -10.7918422072141 20.9530111491082 4.1898894108525
v -10.7799076561632 19.0223720637603 3.02839271968084
v -10.6857373810119 3.4171252806246 3.2786503250949
v -10.6738862011707 21.1758458521184 -2.42861286636753e-17
v -10.687759 21.156517 5
v -10.7123250568215 18.8890435012449 3.97645091191582
v -10.6699873547416 18.8229594901119 1.71906797999619
v -10.7093553197867 6.55532892420274 3.5188594892473
v -9.24032199724184 14.6651306749188 0
v -10.6751892296536 21.1758599456628 0.800760126970203
v -10.7693384903242 2.13953619817407 0
v -10.60427 6.685329 0
v -10.5994553675662 6.68987044132225 5
v -10.5732273277943 21.3268936929149 2.97086496299456
v -10.6713301693907 21.1811734034469 1.74438512028148
v -10.592129 18.697109 0
v -10.592129 18.697109 5
v -10.57635 3.28458 0
v -10.57635 3.28458 5
v -10.5561024232627 21.3474642450276 3.96897405780511
v -10.4795818729969 18.5606955189107 2.40852955202732
v -10.7090665858038 6.5590978013896 2.26209179668798
v -10.5137559158329 18.5988304989577 3.15070385110374
v -10.7738466766944 7.75377840559272 0
v -10.47108 21.458414 0
v -10.4823370540642 21.4428132748424 4.99749706491793
v -10.5065008262034 6.78180460884655 4.21030925285375
v -10.487037054994 3.1996520623381 0.916331201737619
v -10.3965360888989 18.4625605954886 1.0097452622402
v -10.419703037584 6.86343957860505 0.756486195555604
v -10.471902825027 18.5499976652442 3.87312797531693
v -10.4065932809154 3.12927707454378 2.48684254693173
v -10.3507070680229 18.4152417187377 1.73193829767059
v -10.352661 18.412949 0
v -10.352661 18.412949 5
v -10.33246 6.941716 0
v -10.33246 6.941716 5
v -10.28977430621 21.6396339252405 4.32764306404925
v -10.300367 3.03269 0
v -10.300367 3.03269 5
v -10.3570959559797 6.91516743300739 2.96838125112744
v -10.2752032541412 21.6569166976175 2.38051798982699
v -10.3678596747533 6.90520480292816 1.78578292427852
v -10.2181397303475 21.7062710577139 3.45423988850173
v -10.2524922597418 21.6759238006018 0
v -10.207665 21.72053 5
v -10.2898734584828 18.3557101663295 4.33158465605827
v -10.0979805210923 2.89025352434973 1.11357419797215
v -10.1767470107961 18.256581226793 2.73766176509001
v -10.1436590852247 2.92506589714828 3.9346556408132
v -10.1350340662399 7.08215068984845 4.10751982744218
v -10.069689 18.172079 0
v -10.069689 18.172079 5
v -10.0562942679071 21.8341447842992 0.985744515192371
v -10.1696484964873 18.250748464317 3.49472404528453
v -10.0608484586934 7.1280384313715 1.17639946058565
v -10.0325061503194 7.14984851883855 -5.55111512312578e-17
v -10.025474 7.154728 5
v -9.89932557828848 2.78202949074864 0
v -9.989925 2.824747 5
v -9.98308657053791 21.8839675180075 4.13411531186998
v -9.87900655923688 18.0545870007895 3.98698236189222
v -9.9047 21.935713 0
v -9.9047 21.935713 5
v -9.8482143444573 18.0376861365934 3.09748594751562
v -9.91692705584553 7.209848442715 2.11869702190557
v -9.76561694946077 2.71824264007178 3.98242798505774
v -9.79944341130027 21.9916983923037 2.97763923986693
v -9.76199543785723 7.28668340262052 0.563443608205955
v -9.88277942152826 27.9476334979497 5
v -9.73670734287474 17.9754801095091 0
v -9.750929 17.98107 5
v -9.74536510010483 17.0828681357173 0
v -3.49088956724322 21.4227982731649 0
v -9.690169 7.319608 0
v -9.690169 7.319608 5
v -9.59082489667326 22.0842526918752 1.4243080427855
v -9.73426977558699 17.9764384976074 2.32908424541866
v -9.67076618087628 2.67871819918429 1.46135749483193
v -9.651958 2.665396 5
v -9.60310699337775 7.34877421432066 2.84459807149447
v 0.116207185288246 17.05 6.39356928672796
v -9.570449 22.098096 0
v -9.570449 22.098096 5
v -9.44546338273853 7.39665440211108 1.07691201758243
v -9.6235291599056 17.9292905526793 1.12230476961176
v -0.270418967157179 10.843477364981 0.00807244102128942
v -9.35734965859904 2.57537730167981 4.16681163819738
v -9.29099267679275 1.52464086291686 5
v -16.6700820865232 4.36682775933326 0
v -9.405079 17.845132 0
v -9.405079 17.845132 5
v -9.3923670201225 17.844404829458 3.08140387928735
v -9.35086792243782 7.42357719502555 2.05551430472161
v -9.334035 7.432671 0
v -9.334035 7.432671 5
v -9.27822514330837 2.54159089877931 0
v -9.294016 2.558195 5
v -9.34560178380294 7.42593853761189 4.00718228822867
v -9.05158822187669 25.1324341500719 5
v -9.18521641423717 22.2067672684589 0
v -9.21403 22.203248 5
v -9.23324997944733 17.8038549511437 0.802166820174463
v -9.11975107760777 22.216877434527 1.60386216103477
v -9.19557303166099 2.54402264721976 1.15060673055721
v -9.24201084242383 17.8040165310188 2.05953024198302
v -9.09234678148293 7.47344306192597 4.44076349764027
v -9.21206566471702 7.45156065685592 3.20606458872395
v -9.07529956456441 17.7747874630961 0.013018354098934
v -9.04157 17.767974 5
v -8.9937136003024 2.51752884772618 3.95462933970698
v -8.87803869825827 7.49381690376762 1.61959497852014
v -8.965028 7.491392 0
v -8.965028 7.491392 5
v -8.94647482392251 2.50872664427857 5
v -8.80602100823932 7.49915735461913 2.8451789155317
v -8.77958249230787 2.50449571721463 1.91023808806684
v -8.845164 22.248301 0
v -8.81068616495728 22.2467895515047 5
v -8.72852883177555 7.49859963204354 3.96468590847728
v -8.8580891358568 2.50715984203962 2.92256660412869
v -8.86979189455016 17.7585692633938 3.26000894213511
v -8.8063182572013 17.752910022136 1.03450347118585
v -8.73153052382553 22.245544905274 2.21882126567079
v -8.73857307154264 11.3897010227208 5
v -8.63025861091638 2.50594862724941 0.900055668130709
v -8.73755278567664 22.2456409546135 4.12296110480868
v -8.67032 17.751699 0
v -8.645133075871 17.7547753108901 5
v -8.74112502927468 22.2494606185351 0.761808635200879
v -8.64419765170299 7.49402552945425 0
v -8.52379516752971 7.48483767899479 5
v -8.53603866948648 2.5116516396975 4.08250983098089
v -8.38368280622059 7.46757039307347 2.63119944287842
v -8.63341420349108 2.50792703925696 0
v -8.550456 2.508608 5
v -8.1965650856895 1.73146600739488 0
v -8.58073594608041 17.7582445258092 4.19701475093828
v -8.44689264917901 22.2265129491886 0
v -8.473913 22.232026 5
v -8.49133980108507 16.9967170599955 5
v -8.38710169939441 17.7876119184838 2.11379559367758
v -8.35606621303455 2.53468397527538 2.0921389304878
v -8.23282334864741 7.43954541471956 3.89044230480335
v -8.34375087461916 17.7908324539511 1.10911116416719
v -8.32761538464471 17.7935566692772 0
v -8.301454 17.796752 5
v -8.29510504425634 8.87324428603377 0
v -8.2382744951199 22.1859846317397 3.00158733732309
v -8.35497653599152 2.53849423449266 3.16294196970182
v -8.29270645982112 17.8030866378337 2.9880230338008
v -8.24408349313329 22.1859901268565 1.01499605025338
v -8.28356947208236 7.45064440644521 0
v -8.15717954736794 7.42267423692754 4.99395121463492
v -8.1647127430487 2.57761624382595 1.07506697772429
v -8.1727208261415 2.57009964379689 0
v -8.181448 2.567329 5
v -8.110405 22.154868 0
v -8.110405 22.154868 5
v -8.18819934527092 17.8273229934924 4.16189031728126
v -7.97170220602689 7.37155141716341 2.31878808063884
v -8.02764431405124 17.8746146266337 0.655977021291099
v -8.05082261202501 2.60598738634419 3.66405144676248
v -7.945034 17.901904 0
v -7.945034 17.901904 5
v -7.86627037750923 17.9377074152201 1.91048734632071
v -7.82260845963064 22.0427044787779 2.02487846895149
v -7.83045594703275 22.0455111189167 4.04721955876314
v -7.84917469886435 22.053596147307 3.01974667345542
v -7.83584256873151 22.0461434641769 1.05161789973469
v -7.88696528548349 2.65904435871961 2.66189069004039
v -7.863525 7.334604 0
v -7.863525 7.334604 5
v -7.825314 2.680392 0
v -7.76177853980822 2.71127166904789 4.98237594973239
v -7.83368211713528 17.9554687420444 4.25485294310505
v -7.764554 22.01893 0
v -7.77848250662215 22.0244046504512 5
v -7.8047856935969 2.69381100908422 4.256423060485
v -7.71515430310598 2.73224023257396 0.934697901518553
v -7.63433471662304 18.0557643274191 0.673939429238875
v -7.79862908694109 7.30573975444556 1.22837071538987
v -7.44680059932779 18.1807566414564 0
v -7.610783 18.064287 5
v 1.242258 15.5124547638637 1.70785125094021
v -7.46212860809232 7.13474081115585 3.03775744491201
v -7.44840001136286 21.8222922748763 1.49749251664588
v -7.525558 7.175253 0
v -7.5635294080566 7.19315646940745 5
v -7.524771 18.1196785 3.0018235
v -7.50610996383125 2.84027840880327 3.67183186895773
v -7.490009 2.845272 0
v -7.43895125768031 2.86260034281195 5
v -7.46977654235211 21.8406159138879 3.09209827472249
v -7.44349794335935 7.12481008337127 4.21905406247751
v -7.48783319965973 21.8531114243607 5.55111512312578e-17
v -7.445795 21.827921 5
v -7.43310423945987 18.1861911173486 4.04745013721968
v -7.45754816510797 2.86923561692628 2.19449761165877
v -7.37296285247751 18.2307954435707 1.54853771897012
v -7.49953515599094 30 2.07613571550318
v -7.59250931402902 0 1.16833813455655
v -7.29848845466043 2.97808416738825 0.669419302701294
v -7.3132803959922 18.2755902952262 5
v -7.27695373725017 18.3146987352309 0.624043986945016
v -7.26340788890176 21.6818895418178 0.604409021588173
v -7.28468534431899 7.01681878963218 1.98192156172255
v -7.20845278414329 18.3722538601227 2.98366248388821
v -7.215116 6.96731 0
v -7.215116 6.96731 5
v -7.13381569102427 3.104699366402 0
v -7.1204038726882 21.5406340550324 3.80951305491025
v -7.18402214034104 21.6050968128653 0
v -7.162822 21.587051 5
v -7.11535756732039 21.532154178331 1.52222500269952
v -7.04952998011015 18.5404501906797 4.24135684269619
v -7.04372210435403 3.18367002247051 2.05745804930822
v -7.14109324344168 3.09424128921766 3.89721087538607
v -7.05958010171218 6.83130587133163 3.94033549129603
v -7.08074667173428 18.4964688588438 0
v -7.02633457751731 18.5667618558208 5
v -7.03373757816277 3.19189800814644 0.946040678674398
v -7.0204570754492 18.5773965634586 1.74813197206112
v -6.98167863154406 18.6232355133855 0.84202437410157
v -7.03099773575618 3.19588753795256 2.99969935562919
v -6.96698716964222 6.7397559236306 1.08964125910106
v -6.939134 6.71542 0
v -6.939134 6.71542 5
v -6.923355 21.302891 0
v -6.923355 21.302891 5
v -6.88587030041715 3.34699177134963 0
v -6.911214 3.314671 5
v -6.94639364296503 18.6652832385594 2.8029191480084
v -6.87224565343728 21.2253463622502 3.42032589618877
v -6.83506041834861 3.40526925176136 2.73298541253957
v -6.11072663684581 26.4694760202134 5
v -6.84801959375 0 0
v -6.827724 18.843483 0
v -6.827724 18.843483 5
v -6.82277830925687 21.1424156955743 1.36652706397932
v -10.6497442266298 26.8807327942499 0
v -6.79887031547768 3.45335010305786 4.0264386643891
v -6.75114491394471 3.51164335636081 1.71407310101103
v -6.75827289759914 18.9767970222699 2.18647258009477
v -6.6935788746833 6.4061563720218 3.55520652520956
v -6.72920152469626 20.9709968353912 -2.42861286636753e-17
v -6.71079756519257 20.9234850147063 5
v -13.4480025632755 0 4.99694071984959
v -6.703776 6.425211 0
v -6.703776 6.425211 5
v -6.69243835453973 20.8859349066879 4.15728063977139
v -6.680653 3.608705 0
v -6.680653 3.608705 5
v -6.62882679277957 6.30748115746217 1.00941386591574
v -6.65690286483884 20.7987243049526 0.818343852501783
v -6.663691 19.176927 0
v -6.65746021491482 19.196790411877 4.98482304816543
v -6.63163187251275 20.7269595454252 2.32399405475507
v -6.66031496912164 6.35184028779523 2.13091767863454
v -6.75773701227056 2.28011124901936 5
v -6.60645574698079 3.73098406467482 3.44671710516222
v -15.9654943171154 30 1.86652834929999
v -6.61728483161083 20.6820717346561 0
v -6.58293918944037 20.5573666129107 4.9807381380647
v -6.5831243962498 19.4297474879554 3.54009038846872
v -15.4706000715451 28.1795829809509 0
v -6.59780690304583 3.74832785506739 2.62404224377203
v -6.56407264296449 20.4972498503062 3.15308014855804
v -6.556777 19.532822 0
v -6.556777 19.532822 5
v -6.57156662750822 20.5310535447634 4.36274386096514
v -6.53591744524505 20.3362412010572 1.48639704527087
v -6.524339 20.272787 0
v -6.524339 20.272787 5
v -6.51656242868977 19.8253420244987 4.33512959811885
v -6.51755933821314 19.8185466851261 2.49162288372332
v -6.52890605089461 6.12798884599765 0
v -6.514301 6.103165 5
v -6.52091333880204 20.2263260379061 4.02815349440628
v -6.51669511611717 19.8480303264527 0
v -6.509901 19.90146 5
v -6.51141869098353 19.9372425516644 0.848051701852295
v -6.51699831684638 19.9677028911225 3.18058282611103
v -6.49649 3.933819 0
v -6.49649 3.933819 5
v -6.49681898372397 3.94333757928584 1.00856408856176
v -6.46840762149286 5.99844392245765 3.05747151107559
v -6.4063748562254 5.83763913005124 4.21740483606895
v -6.42589807757188 5.88957670204635 2.18789234891896
v -6.37381652812192 4.25314431085825 4.20299583689321
v -6.37494 5.756476 0
v -6.37494 5.756476 5
v -6.33886867653068 4.39190125280841 0
v -6.362841 4.282749 5
v -6.39360776210585 4.19594647991132 2.06951283558508
v -5.92618624376995 20.6860776409707 5
v -6.3209248892508 4.44538979109311 0.907889513824497
v -6.31277780109349 5.50104916640525 1.9062938603222
v -6.32004673016617 5.54768000805892 3.22189565330596
v -6.2867958381847 5.36871562795929 0
v -6.288807 5.392888 5
v -6.282689 4.647702 5
v -6.30167302777805 4.55648029780492 3.04491787313966
v -6.25824065835984 4.99809934982591 2.17632161913318
v -6.257826 5.020524 0
v -6.257826 5.020524 5
v -6.79639942195689 1.75821606694492 0
v -6.11180802230854 18.4170981208894 5
v -6.78451193914414 22.2597234094091 0
v -6.24537809957274 2.7643902833561 0
v -5.57078186495529 4.77419942274575 5
v -5.49617225832047 20.1403557414155 0
v -5.35013494183689 28.2601394580791 5
v -5.77071574821429 0 1.74698471815974
v -5.23694754374971 25.9172908301403 0
v -5.18474922986807 5.43565806612777 0
v -4.89468361113346 18.9902893289771 5
v -5.03283131448035 18.0452508389665 0
v -3.99901779611644 29.9913156329247 0
v -4.0152648984375 1.8702732688547e-17 5
v -3.64165353287888 6.96058430485373 0
v -3.77620020866502 16.2722517521796 0
v -16.7933395315618 25.3629679301877 0
v -2.42952941941897 25.8491770731059 5
v -2.55888767349917 10.721032730051 5
v -2.507742 17.05 5
v -2.507742 17.05 7.93526775
v -2.507742 17.05 10
v -2.507742 18.9659600476519 9.99697373091931
v -2.507742 19.0073448674492 5
v -2.507742 19.4572602829285 8.02001184976197
v -2.507742 22.95 5
v -2.507742 22.95 7.399553625
v -2.507742 22.95 10
v -2.64556770665037 6.64358626762906 5
v -2.15545581445313 30 5
v -2.01985961781925 30 2.71962647958406
v -1.60540536442462 0 0
v -1.27130045812775 17.05 6.16049850156073
v -1.49750117699712 22.374741154143 0
v -1.05061489531316 18.2548497357276 10
v -0.937174013182964 22.95 8.08556913984108
v -0.80319625 22.95 10
v -0.758459926940322 0 3.31790043305795
v -0.525979599968826 2.91221971271955 0
v -0.334446375 22.95 5
v -0.1852984375 17.05 5
v -0.204982859699676 21.6090197625977 10
v -0.030824171875 17.05 10
v 0.0477347062535022 13.3937297140734 0
v 1.242258 0 0
v 1.242258 0 1.623884015625
v 1.242258 0 5
v 1.242258 2.02795580635844 1.5366845136607
v 1.242258 3.64522852039266 0
v 1.242258 3.85485735930183 5
v 1.242258 6.36146554402643 1.71978733908018
v 1.242258 10.1467909487294 3.1532533688072
v 1.242258 10.5053380927971 0.0161448820425788
v 1.242258 10.5085683125 5
v 1.242258 12.5379010697867 0
v 1.242258 15.4993783540691 5
v 1.242258 16.3379162751893 0
v 1.242258 17.05 5
v 1.242258 17.05 7.8097097421875
v 1.242258 17.05 10
v 1.22556814489131 18.1757087170355 10
v 1.242258 19.2911766162473 1.37579189562732
v 1.242258 19.3136965084185 8.14729055156557
v 1.242258 20.32265625 10
v 1.242258 21.6094101982445 8.67216263566979
v 1.242258 22.95 5
v 1.242258 22.95 8.2700891875
v 1.242258 22.95 10
v 1.242258 23.9681632952042 0
v 1.242258 27.9871354246992 5
v 1.242258 28.2972640983461 2.78836826616085
v 1.242258 30 0
v 1.242258 30 1.86475969987721
v 1.242258 30 3.97321425
v 1.242258 30 5
v -15.4305643134068 24.6549804856888 0
v -1.88316640024702 16.6549328274531 0
v -10.8919017578072 11.4563509846971 0
v -15.5917785176963 5.68079818649732 0
v -13.8814829346996 7.87464298025343 0
v -15.2444412096591 8.87334213126663 0
v 1.242258 23.9600359926973 1.57977447382453
v -15.8769806727723 15.9734401460323 0
v -16.2326028970403 23.4857658666116 0
v -15.1086026476158 14.0545894979935 0
v -13.7254794434524 15.013335307501 0
v -15.384349919128 17.8589039422865 0
v -15.5704840276924 21.7081017287813 0
v -13.5994706624629 21.4818447926523 0
v -12.9701882889644 17.9852857045654 0
v -16.7058063352961 26.9043292370575 0
v -3.23710340871159 26.8586488716726 0
v -0.60099579028899 28.6802384000002 0
v 0.173996276921695 25.59114490683 0
v -7.19154026037122 8.10690995502135 0
v -6.00693268033901 10.7242491868502 0
v -5.09764350986816 8.94740196774014 0
v -15.9594661338901 10.6347940748678 0
v -13.5569482704219 11.1067318399876 0
v -12.7280868360096 6.38341434581235 0
v 1.242258 3.61437749374505 2.07637910209752
v -7.90677998510013 27.0215406156249 5
v -2.89402786847982 3.45092999624874 0
v 1.242258 13.9011076282326 3.45344766334576
v 1.242258 16.9447153868417 3.38167618636268
v 1.242258 18.8996970260672 3.48581467203485
v -8.53396530130086 26.6864139437651 0
v -4.10069151256552 2.90154313397749 5
v -1.04573078662968 1.97309092829683 5
v -2.36504089607485 3.46236370662574 5
v 1.242258 18.8975612673806 6.12015024377998
v -7.6532695824902 17.0301964827071 0
v -5.5208477129473 15.9616108981712 0
v -9.8190467003724 8.20754765855235 5
v -2.507742 21.5319914232733 8.73056614208331
v -18.757742 16.2556303753698 0
v -18.757742 18.064558407133 0
v -18.757742 20.5225604870436 0
v -6.66099155705814 28.1171618265488 0
v -15.007742 22.95 6.52489188486573
v -1.13716312888138 14.4439642050317 0
v -13.877287439715 23.4707776341764 0
v -11.6878203654389 21.1881987541991 0
v -12.4575464323174 22.5341489229584 0
v -15.2855725806788 3.34033399018289 0
v 1.242258 26.7608403314871 2.35975013994565
v -5.59895115653296 3.4061437349089 5
v -17.2842284656326 30 0.864706547738739
v -16.142979129667 13.1565994232244 5
v -3.63080865853684 0 1.26953923949881
v -2.47462541120911 8.72201440146256 5
v -18.757742 5.20067618621061 1.88160925508959
v -10.6576624416318 6.61826660438261 1.21060428049647
v 1.242258 11.5637025344568 1.68634655824265
v -1.15929481348443 24.3799395215337 0
v -6.76515406782386 18.9603191287958 4.03545658553664
v -0.320238340793764 20.3372068426329 0
v -6.70201983328858 19.091177927679 3.02349135232603
v -18.757742 22.7418298325281 0
v -16.7463533549288 19.5478547773022 0
v -12.2497576519114 24.2966630667098 0
v -15.007742 21.5094598794604 6.49643092197486
v -13.6157624187102 12.8897311646255 0
v -12.0378432109523 3.75895491191284 5
v -16.7426793419974 25.6517400696167 5
v -15.1295666330049 6.29508999698072 5
v -12.0572898176987 5.76842716053113 5
v -15.6470079243215 4.8380343885149 5
v -17.0730655355192 27.1873515864222 5
v -10.3665039007548 30 3.42010198754827
v -17.5409844997842 14.430170760493 5
v -4.94931448503319 30 3.38293630768025
v -12.8489214447429 16.5828199412256 0
v 1.242258 20.2167386492681 0
v -6.07138603581704 30 1.65135354523845
v 1.242258 21.7638074092436 0
v -18.757742 22.2575304655642 3.50060744276139
v -0.0369629693736805 14.897906654889 5
v -12.682050474059 24.6212273785702 5
v -18.757742 12.9747715650789 2.7051401577286
v -18.757742 19.186216583115 2.99772247793383
v -5.05049946987192 21.7621500787481 0
v -4.67875162744873 27.9153180290977 0
v -15.9941927768465 19.4493909437347 10
v -4.09201760152818 19.9327462670077 0
v -8.17617699367745 23.1821951742484 0
v -18.757742 20.305793472111 4.12675239818511
v -18.757742 2.149402623283 1.4609856554091
v -1.80360167684307 12.5271717100275 5
v -12.3667700793766 14.0055361973118 0
v -10.7865453346265 13.2758412468989 0
v -12.8148497265611 17.7046011953538 5
v -13.7790314470584 18.9333303664662 5
v -15.5173977647339 7.78128745652387 5
v -17.401794902378 11.7341797147936 5
v 1.242258 21.1628025377233 6.93825127795645
v -10.2405083630738 13.9809955700384 5
v -18.757742 26.0350811806507 1.81904179310586
v -11.9705049625988 1.23792669634782 0
v -0.231211501166558 7.84581636622318 0
v -18.757742 23.9968514995892 2.077717777235
v -18.757742 21.3915905926 8.82719160821279
v -18.757742 27.6177584912903 1.49713300087535
v -1.80826291555295 27.9711535105757 5
v -18.757742 3.06683611110316 3.65038027084832
v -18.757742 17.7297242513867 3.72416085457093
v -13.8810112707864 15.5731620490456 5
v -3.31420457949217 15.4560894643502 5
v -0.293706576772673 28.6815493632544 5
v -8.70884591841935 0 2.2577203127075
v -12.5986753787315 19.2741941677369 5
v -17.1552003486279 6.37274589663138 5
v -16.3777640093778 9.64049372693787 5
v 1.242258 8.77574475667814 1.52927569979081
v -15.8138311473545 11.2192937221307 5
v -3.66158001202808 4.83290813248715 5
v -13.9274408854225 4.54785179972274 5
v -9.31662641557103 2.56875909790558 2.22306269020334
v 1.242258 25.4240302437623 3.31082102437391
v -18.757742 22.4052371904097 1.60449560772815
v -11.2447278976508 4.7797992531821 0.889893803512159
v -2.52144177874782 28.8279350109497 0
v 1.242258 18.7864634890329 0
v -17.7999872421875 1.01709120426977 5
v -7.49120668246933 10.9415310794674 0
v -7.43876103406811 12.8735341937831 0
v -5.60406100353056 12.6669273449058 0
v -18.757742 6.26614024887727 5
v -4.7331942066644 14.2646410955527 0
v -1.4576389544765 14.2148143361967 5
v 1.242258 14.1445067147131 0
v -5.56509503763114 6.04692809361965 5
v -5.15858402794627 8.45649042448324 5
v -6.03921465163626 24.5057363835959 5
v -6.15731880480223 10.2009938653366 5
v -4.80079910220434 11.1067318399876 0
v -3.52670805051231 12.9240955259228 0
v -17.4193811326532 28.2662879100992 0
v -2.507742 20.0615679819829 6.22067161616234
v -14.9124276564728 0 5
v -15.7417037101146 0 3.96494411198836
v 1.242258 2.96921432301331 3.18646096406555
v -11.1370705887449 25.4443018536804 0
v -5.33127212920234 11.9557380671619 5
v -17.6454136034699 16.1763623731849 5
v -2.6054858585711 30 1.27347875170051
v -1.3400798297445 30 0
v -11.4680950824511 10.8262375087339 5
v 1.242258 22.2435163792379 1.44862713698351
v 1.242258 17.062078780363 6.30895395458559
v -12.785795775379 8.89363202953363 5
v -11.4666327285494 9.19720734841853 5
v -13.0284014936424 10.5523258038203 5
v -11.5537085051146 12.2822621475908 5
v -12.561183771637 13.8110961326774 5
v -14.2720704982106 19.5997522497408 0
v -18.757742 28.626200862851 2.70601759959187
v -2.23480728116804 0 1.8129171306613
v -18.757742 3.53671576709398 2.17486523134009
v -0.793768410834754 9.73588356115119 5
v -3.98398966295098 1.75264556852981 0
v -18.757742 6.12520438016948 3.601956616146
v -13.7663397005777 6.2013023930515 5
v -13.749654722008 23.5111291041653 5
v -17.2259680991582 17.2110623604061 0
v -3.32104260109321 28.010744500511 5
v -3.00369747928185 13.649469154985 5
v -17.2913589074795 21.738983490151 0
v 0.123300597267562 13.3104159225755 5
v -17.465998344275 30 3.18354897497239
v -0.630290517973621 11.2699498017219 5
v -8.23432315907365 14.689566977608 5
v -10.1308756795241 16.4154867796173 5
v -0.545092676216917 16.225425525593 0
v -4.88905621182229 22.1731202870889 5
v -4.98339931157176 23.7880224419632 5
v -7.59068213246483 8.16810009852422 5
v -0.745196463859907 5.42697454421861 5
v -7.86226002873113 17.9393529189641 3.10541180397549
v -4.68032593113011 23.2364845755384 0
v -3.05550884390968 23.4912114460313 0
v -7.62295212768202 22.9367836198739 5
v -2.7018758677689 0 3.42612909519459
v -18.757742 26.9555966321563 3.18724395148474
v -8.22475452077473 22.1832033403596 4.11424825691147
v -9.28134549394973 22.1862587203211 3.32994736768187
v -14.3739282287142 10.8836970722406 5
v -4.82448335457815 0.000136167353669798 0
v -8.12231080415948e-05 0 0.922653114764761
v 1.242258 5.65015586505553 3.3934769625
v -9.86405149138161 11.8621147921096 5
v 1.242258 7.05334171865344 4.02501312313241
v 1.242258 8.7380409106155 3.77020298478696
v -7.78560947376692 7.29852669589 3.81063525394953
v -16.4154568875791 2.83028480876618 0
v -8.34908395774043 7.46602891011501 1.44795637823128
v -18.757742 9.62880313322159 3.41882899565915
v -15.7269282024686 26.8127130317541 5
v -14.3559359019077 28.1028553744579 5
v -12.9171513212991 26.4601041167631 5
v -9.73396545417778 23.1652756124672 5
v -2.17875817181552 4.94731797915507 5
v -0.181573682212311 0 0
v 1.242258 7.92579919513847 0
v 1.242258 5.91570762663779 0
v -12.8805640967232 10.1720789208 0
v -2.507742 21.5406879556975 6.50743366294689
v -6.88933635260677 21.2485058233102 2.28177389105825
v -18.757742 6.56623438522148 1.55573977147446
v -9.41856420822521 2.59474286192819 3.28145465658529
v -5.97884235640719 7.44632559737662 0
v -10.7534783353893 0 4.0362828213337
v -18.757742 18.8286287275631 5.42828966294041
v -12.2864678696639 7.74149353824536 0
v -2.507742 21.4887802666873 5
v -0.796358660756931 26.6051911448202 5
v -18.757742 26.6798044800371 0
v -18.757742 5.0809074828895 5
v -18.757742 7.75643112781812 5
v -3.17268851139902 1.70558515304039 5
v 1.242258 27.7022015280723 0
v -7.11438643638758 12.1002928342216 5
v -18.757742 16.5286551204006 1.31186123549893
v -6.6904654302577 13.9924435313406 5
v -4.66949131136147 13.5302068749777 5
v -5.19573706214668 15.4084694059306 5
v -0.107863708665517 8.64010743638437 5
v -9.65099655732514 2.66830263492703 0.730686858146808
v -6.29209010771519 4.61461775528731 1.96421546412372
v 1.242258 20.8368996185484 1.28231129838689
v -15.007742 17.05 8.83761277071213
v -6.28887801412446 5.37870607786163 1.01619693200522
v -17.1350664562822 8.00805461965076 5
v -7.32516712603253 25.0099518529741 5
v -2.05738146120232 8.46251583334279 0
v -1.85472799552471 11.0065076495701 0
v -6.75512391651058 18.9791299005504 1.31848053421411
v -6.60120756678279 19.367406816421 0.888347684398789
v -3.89391646152101 20.2898727487717 5
v -3.55074431715316 18.017528503315 5
v -15.2714794115543 0 1.02416808588225
v -11.2484796331266 5.1497424097028 3.96107054769506
v -6.53467456243294 3.86142935048866 1.87215565995478
v -16.373891682652 0 1.8005601695718
v -11.2429601901708 5.26319065663945 1.40758866626372
v -12.1664709082044 2.55710013445761 0
v -7.70919805299778 0 3.42065040088012
v 1.242258 26.3074005470011 5
v 1.242258 26.7933701057605 1.0948468251536
v -2.3078077736573 5.02810648304155 0
v -13.7141667090104 3.11923628427887 0
v -18.757742 23.9655664761501 4.97783206432969
v -18.757742 26.6798044800371 5
v -9.89739845962275 2.77893604528361 2.60419507486577
v -9.65889098759327 0 5
v -7.43876103406811 0 5
v -10.4700840620903 3.18359925124181 4.1174404998227
v -17.3365743631611 1.76177406049431 0
v 1.242258 5.91541293950739 5
v -5.78339797913068 24.3521005320821 0
v 1.242258 7.99239486634706 5
v -10.5862138110909 0 1.8129171306613
v -8.58872808548885 12.9796866258473 5
v -18.757742 13.4796001641914 5
v -8.85434071213299 8.4062006306387 5
v -0.551444346344763 17.05 7.9156000482062
v -9.34458776846656 0 1.02453564472923
v -1.96964364972024 21.0929058402371 0
v -16.3672356349804 22.95 6.56639537920554
v -5.69047098257612 30 0.023129384347985
v 0.341249712926787 15.233850135041 0
v -4.50162151119163 10.5691064238989 5
v -0.9902458671051 20.1901750931703 10
v -17.0046401208113 24.2643936542168 5
v -7.952530961634 1.14513089076027 5
v -18.757742 9.38843994817081 1.5157088290367
v -10.3955936380285 21.5387502326952 1.16186795226464
v -4.09936561420126 30 1.81942423634888
v -12.4072113587856 30 1.99724295949329
v -12.7663081926513 30 3.48580688309724
v -9.89203486450384 30 1.67234280134288
v -14.6161111564139 30 3.01863796194426e-18
v -12.4132750626036 30 0
v -10.9189863385581 30 0
v -9.83698231428227 30 0
v -7.69800565582417 30 0
v -1.99723721600654 0 4.98671139282339
v -0.406065168824447 0 5
v -10.0263828528445 18.1489226071779 1.11810280786025
v -10.9158348367105 20.6140450024805 1.42197261401959
v -7.16163976206232 21.5837362064079 2.74176059790819
v -6.5810689778806 19.4411646692103 1.78806535993083
v 1.242258 13.3213987910343 4.98289938581466
v -17.5563284880587 23.8017608480101 0
v -6.25937066197594 5.04431752476312 3.30701598782703
v -6.42943371782657 4.09842890070551 3.04988638618215
v -13.111044856821 0 0
v -17.2438937234937 0 0
v -15.0197099876973 0 0
v -12.3659064201901 0 1.07541420226326
v -3.47219762482086 9.79864715018662 0
v -14.1938145046069 12.2215961309531 5
v -6.27780420829116 4.70092236582138 4.10177764318172
v -18.757742 25.3110733293455 3.43989421947948
v -8.81481043138204 17.7550263274504 2.12921711105106
v -18.757742 10.9667938187882 0
v -18.757742 12.8660703127097 1.34752168635168e-17
v -8.24878011113319 15.8686580412497 0
v -11.1425867701384 4.27146105491 2.86026038747637
v -0.966617427483095 6.37085473123564 0
v -9.97679467972928 7.1776764363932 3.14241110770343
v -9.77587634448392 7.27976519264053 3.7673886725008
v -9.93387606982254 28.1236443994736 0
v -4.46803862957116 16.9785528896154 5
v 1.242258 12.003454662955 3.66105253670106
v -6.26334092950236 4.91156160847595 1.04332251155986
v 1.242258 1.93500812205216 5
v -6.02312179638731 0 3.71134768921432
v -4.02027471419228 24.8198299544993 0
v -6.40234979011218 5.83519106523937 0.8408043325552
v -16.1968735333573 28.3223787219647 5
v -10.9322937904918 19.4405855088338 3.10469859699728
v -8.56690132468628 30 3.62464671993123
v 1.242258 26.1889304301548 0
v 0.112743953321671 17.1623829255456 0
v 1.242258 17.3175748058168 1.83458654831907
v -6.91415415398936 30 5
v -15.007742 20.9533933051272 7.98676745822635
v -5.2080250081348 30 5
v -9.87346377701575 30 4.98248046446544
v -8.3459114540503 28.7575125073511 5
v -10.9762336956921 25.347122328004 5
v -1.46742801985875 24.4365436795247 5
v -15.1729679170806 30 3.66894222223116
v -15.1999631796237 30 5
v -2.18539305756055 1.61393068498562 0
v -18.757742 28.2715422269678 3.84780758805171
v -3.61225064914753 12.0618597027002 5
v -15.007742 18.3337306142569 6.23286571453947
v -1.3254032538698 26.3599428593733 0
v -11.4249938881839 2.50625771740497 5
v -0.906114246014807 0 1.7230496066266
v -11.410257517769 15.599635697858 0
v -0.678961118305844 12.2860161765279 0
v -9.05047928517105 0.982383155130713 0
v -2.507742 21.4985834853006 10
v -0.166330183883071 21.8679865372722 0
v -9.38193486178798 17.8414256445735 4.11127972842551
v -17.2430967206167 4.45108668832175 5
v -16.6715410047763 14.2162660204071 0
v -9.33777120781463 0 2.34090166563201e-17
v -7.34334651522987 7.0561722430129 0.994209174348276
v -15.3209488545605 0 2.506560297347
v -18.7424583273865 9.37423607137961 0
v -18.757742 19.2994396248898 1.40143084191914
v -13.867379351981 22.2090382273732 5
v -17.7046674435261 3.27780945046969 0
v -8.6081964719638 23.3726645486725 5
v 1.242258 1.744791625 0
v -1.15902658438464 7.46632148465418 5
v -8.70615841429608 13.4196739446542 0
v -6.34159622505663 22.7571057696004 5
v -13.73344042949 7.60149080849991 5
v -18.757742 5.84178647925296 0
v -0.453309221260426 30 1.49069716788129
v -10.6734714301273 1.45856678931434 5
v -7.00782160804797 6.78014414899115 2.73349129148518
v -10.979486824789 19.6552258564627 2.34625640378895
v -15.2767317890069 1.50948579038239 5
v -7.57983775937926 0 0
v -11.4970119217855 0 2.90519662253051
v -0.39076592347685 3.53392503292998 5
v -2.56560309059749 25.223078271733 0
v -6.92293868625314 14.7826195460971 0
v -2.39628028123342 6.54934300591353 0
v -5.83997021573398 0 5
v -18.757742 9.46695536078406 5
v -0.0683549276615963 4.76486714426158 0
v -17.4803013462001 11.4541773122512 0
v -8.28660193592044 30 5
v -17.7046389269605 28.4828261483149 5
v -11.8446905967028 28.0636729686258 0
v -2.507742 20.5901707596138 7.30118818591652
v -18.757742 18.8856129486668 10
v -0.553516365242619 30 5
v -18.757742 16.2449074109837 3.12885570164232
v -13.183610354949 20.7951004412188 5
v -3.26537648548208 0 0
v -18.757742 4.14774505212648 0
v -12.5728392779991 28.3268075360431 5
v 1.242258 20.6401964866956 2.72973673161384
v -6.58573792309669 19.4227224452142 2.59224616055621
v 1.242258 0 3.3119420078125
v -0.866823237514035 9.59174793892198 0
v 1.242258 28.4137134760597 1.3969312332883
v 1.242258 24.6257357459997 5
v -8.53333270646888 28.5750725307923 0
v -18.757742 30 3.42894864570997
v 1.242258 15.4979716393655 3.35638868775407
v -17.680409112651 10.4757547889871 4.99488693433981
v 1.242258 4.29344018681428 3.55244938774028
v -1.20415035016205 15.8831069777917 5
v 1.242258 21.6522908983662 10
v -17.1040743638248 6.36048679369342 0
v -18.757742 1.57625078910905 2.99319748658031
v -18.757742 28.226084688617 5
v -5.15767199148838 1.53096270898091 5
v -18.757742 18.2328661769334 7.18907400081961
v -11.2381539566581 30 2.47378426039352
v -17.0198179692303 2.18063875925498 5
v -3.76938171903068 9.37019437100491 5
v 1.242258 22.95 6.79751405507944
v -9.71341073230441 10.4157968017408 0
v -11.224581364965 27.2462577171869 5
v -4.48468534208321 25.8886957195444 5
v 1.242258 22.3658190709148 3.0120601615103
v 1.242258 5.04701530797604 2.32407036334203
v -9.63821110880363 8.97515632777172 0
v -1.27705335342362 22.95 6.12613554178635
v 1.242258 7.38753261006124 2.79848694107801
v -1.4180673269164 17.05 8.83455393801372
v -2.507742 22.95 8.6997768125
v -12.7506004954986 0 3.85354161040309
v -3.81814444001554 5.28877080446034 0
v 1.242258 11.9662537833288 5
v -3.00725782666971 14.4338526745321 0
v -17.0254533381252 17.05 7.8183062788931
v -12.2713664390201 11.8347780589707 0
v -1.88983167216918 27.6194681187516 0
v -15.007742 19.6589628228315 6.50969002912946
v -17.1499670572587 18.2929612384212 10
v -14.0373310224854 0 3.47939716058865
v -9.46721621767651 25.3890073263762 0
v -14.1803429132506 4.54476455612008 0
v -14.1830760331298 9.67132672325235 0
v -14.4547975500406 16.7668023537955 0
v -0.178068882690735 1.38177891399536 0
v 1.242258 13.5099979590775 1.66121079891834
v 0.0839901621128275 19.2996757852438 10
v -18.757742 13.7052445667311 1.23278670863076
v -3.27961686844722 30 3.32059643646652
v -16.2701158599479 22.95 8.83102784726371
v -14.4253291362313 13.987347188309 5
v -4.30778607140568 7.27634678867412 5
v -0.625518590117455 30 3.46637367909429
v -13.5429522858984 2.70934931890116 5
v -17.435976564583 15.5467208287865 0
v -18.757742 21.050336519797 5.58120520181675
v -2.507742 18.6112920965239 6.43125583050262
v -4.19140411347456 0 2.99430146169288
v -11.1174481327956 23.0656949996506 5
v -3.68055818752 30 5
v -10.1279624947865 10.3363793667618 5
v -0.00424528264255239 23.0236315717781 0
v -18.757742 0 1.523437421875
v -16.2540735304422 21.7590645144824 10
v -4.63728699099963 3.31128915989373 0
v -7.14911486309687 0 2.35242861773694
v -16.7676126627456 8.45911881152274 0
v -12.4155892574574 20.2297951617091 0
v -18.757742 22.95 8.498884015625
v 0.313975131414661 9.11344787904292 0
v 1.242258 20.8631314465787 4.84286377521498
v -11.170911404648 29.0277481606991 5
v -8.58343796916414 30 1.05023641437783
v -17.6114052730713 17.05 5.74687714680119
v -13.3521552428833 30 1.07272896805842
v -13.5762496229081 30 5
v -14.4537456187971 26.6046885756353 5
v -5.87585687076575 6.93131380910062 5
v -15.007742 18.525 5
v -8.06271932446312 9.98703258983487 5
v 1.242258 4.96801936034766 1.08779695874726
v 0.0572293238699778 0 2.55170377597115
v -6.59925180170691 11.9329098688913 0
v 1.242258 23.9206358227064 3.2282693631044
v -2.507742 17.05 6.467633875
v -9.43169934183913 26.7219533015485 5
v -2.74483333630599 30 0
v -0.0335911059461891 25.2287618893157 5
v -18.757742 1.09896432382655 4.18944975845963
v -3.82256360502873 22.6675879342733 5
v -2.507742 20.2085502895936 5
v -17.6099394219115 21.6931796832938 10
v -1.95616828152913 12.8090300977253 0
v -18.757742 11.8706068500638 3.70771492959793
v -6.44643078935086 7.61979107591597 5
v -11.2609968850992 23.6654315284395 0
v -11.4131967674043 7.47021839599685 5
v -18.757742 10.9544661206192 2.13895552215392
v 1.242258 25.3693140520614 1.27752641356203
v -15.007742 21.97626953125 8.9620535625
v -18.757742 12.4063450059726 1.38998191404121
v 1.242258 10.3168344935918 1.52450946692279
v -18.757742 19.622897094052 6.85617391077386
v -6.58340345048864 19.4319435572122 2.19015576024352
v 0.117275473689969 6.85050781135896 5
v -18.757742 3.62509110546505 5
v -6.88360461882897 27.9702329265987 5
v -17.3754620859375 22.95 5
v -3.94993572895849 18.8764431178045 0
v -15.3351996226195 7.32195536984458 0
v -2.507742 22.95 6.1997768125
v -11.4913038898048 7.15853342275846 0
v -4.13273977866369 4.36579862856385 0
v -4.72364683475523 7.47489037806328 0
v -12.9415728345633 5.35290060333084 5
v -5.51358141177661 1.11991495483233 0
v -3.81946271164584 21.5004905738232 5
v -12.3345682843099 1.60284040361234 5
v -12.0996759679883 15.1095853806513 5
v -14.0115005793167 24.8913285969569 0
v -6.23738141982738 8.47080083735912 0
v -6.00587221287237 21.1191827558133 0
v -8.77436356551527 9.73764478351175 0
v -3.6886611420358 24.6121537927252 5
v -17.3762802727836 30 1.85760029689423
v -10.4947493531253 24.4686042199469 0
v -7.27553151343175 15.8818863270757 0
v -16.2367895651372 20.433936870714 10
v -6.58361787156603 1.04133187675921 5
v -8.70256785647848 30 2.18148995802139
v -13.3406550487922 7.05062590956349 0
v -11.8157186621169 17.4514384049285 5
v -8.62666317341253 10.738957083187 0
v -9.54716024939003 15.870015547737 0
v -5.2033455799328 2.02893798448736 0
v -9.35729183529111 15.3963259969838 5
v -10.6964681153156 15.4150765951466 5
v -13.0617773594551 19.2835388693668 0
v -6.2381417568516 21.7985817182596 5
v -4.71339012005192 20.7880719766024 0
v -6.60730543008461 16.4918638080451 0
v -7.8159889636765 8.8508252586541 5
v -11.2957078489163 30 1.24841405639958
v -13.2216720429796 16.6577048990186 5
v -13.9492474471434 17.646792548102 5
v -6.84607600508258 8.8918877704457 5
v -6.27369034199185 23.2305709254486 0
v -12.1139161086845 6.76421410286921 0
v -13.4159413847511 1.64792507123065 0
v -18.757742 14.635878103767 3.64594357219763
v -8.22924663873015 22.1837762248824 2.14293488507665
v -7.59285381690247 24.9470542431695 0
v 0.0867483905136418 27.1566594244547 0
v -8.64783432309586 16.7908166143847 0
v -6.69943417650846 6.41120411651447 2.86487441850977
v -4.7077724277618 3.95039902105673 5
v -12.8643006206447 6.45509696558483 5
v -8.72634396532581 24.2861717967894 0
v -18.757742 4.56073864447469 3.46592897933372
v -7.14951150626051 15.7167044284837 5
v -13.5778301384993 28.0522664294141 0
v -7.81426302005718 9.74039127845057 0
v -12.648613269337 7.46555284533069 5
v -4.76370111188296 6.42504760459096 0
v -5.64800964954932 6.45178009095462 0
v -9.64588029521672 24.1377011840126 0
v -10.9935115224197 8.78437665492215 0
v -13.3989909498733 5.44216965751063 0
v -8.37108104811158 16.0312984630013 5
v -9.26401245038975 16.5968260012266 5
v -5.35998568796168 19.2477315361268 0
v -12.5470119810787 5.14579348295383 0
v -8.93883873085654 17.7594725977908 4.11883497369401
v -10.486411004104 23.6853143657802 0
v -9.81575390433566 23.4082809874542 0
v 0.27316325298903 22.95 9.08124352493801
v -13.9163894476332 0 0.752401462025874
v 1.242258 26.9271442292561 3.69782686899777
v -7.99403790101492 7.37906678150712 3.07361590649865
v -10.3577733055044 8.38906269692676 0
v -1.40922919240083 4.19694602319512 5
v -9.95874790252878 9.23673772316882 5
v 1.242258 9.19578584205917 0
v -11.7977820061747 6.59251610966092 5
v -8.20940058361318 7.43467428686584 0.726364427557876
v -9.15239514526522 17.0985098632971 5
v -4.59039373554405 21.2638677302896 5
v -2.507742 20.1696586880311 10
v -7.51323759935104 17.0758277782557 5
v -13.1310683366502 4.57838566645714 0
v -7.12077346793382 23.5680165849704 0
v -10.8927089748146 20.7077652853282 0.700348537196839
v -5.34757667791866 19.9595856850861 5
v -5.88015335433482 18.5931537990047 0
v -4.95928477576685 20.6349899626756 5
v -4.36947236525935 5.94781619150633 5
v -7.45647397587758 21.8341260558627 4.02188767408496
v -4.99967527773531 4.54966523829994 0
v -12.1724281929367 4.72764661754443 5
v -14.1707804954148 6.19908978905044 0
v -3.74933637078023 8.41003102869966 0
v -3.24404894368568 11.4159839115637 0
v -7.56240433928104 22.7615787366113 0
v -8.96630705848853 23.2487892952135 0
v -7.58765789154579 7.2026891565141 2.15794672176171
v -5.69026428367715 3.93559292200898 0
v -6.52012521801678 20.2282115032788 2.30658757629389
v -6.733342878096 3.53634400557863 0.895199498582628
v -8.91653357097277 8.14008082164527 0
v -10.5995036522587 7.88009155425025 5
v -6.67598353792338 20.8406002050392 3.27384060180411
v -11.6726192051674 6.50647562103913 0
v -10.7553221924855 3.50665556198053 4.25138955072887
v -0.989845143599513 18.3465481614429 0
v -9.36601344763372 0 3.60083145391354
v -6.29561609415423 5.40985145813213 4.21830238088128
v -5.75365030300676 22.4296809484021 0
v -6.99386329037911 6.77856000622182 1.93760950468946
v -6.26118790356241 5.06971357675424 4.13990313413172
v -6.52616579950572 3.8785787410129 4.18054751342199
v -5.89034340594805 19.4462318088491 5
v -5.28262373670067 21.4048475835471 5
v -9.70850906868759 8.07555803868773 0
v -6.28069001576957 30 3.49906647608943
v -6.89886847616469 17.7508878485945 5
v -6.87066075257991 21.2194574299244 4.15091895944924
v -14.0223931825525 0.747748847538795 0
v -10.3299278998073 22.8214955040798 0
v -11.8625916203202 5.89111145210828 0
v -10.7927869563696 6.44989395154656 4.22626814426111
v -9.85102324481649 17.3191161289288 5
v -5.98588077915631 19.6177201460846 0
v -9.08004448153571 7.4762174611226 0.756508987192184
v -7.07218506129174 17.5268708711775 0
v -10.9532847600337 3.81495627453663 4.37163030655521
v -8.64888789402065 7.48428034460326 0.720931677381243
v -6.79944627557802 6.53526237772427 4.2522586049436
v -6.58702977557802 6.22913487772427 4.2522586049436
v -11.7223947210369 19.5139103622811 5
v -7.56403428836016 21.9034805096337 0.702925884950493
v -8.22943502167442 17.2943738787845 0
v -7.04570873326312 21.4599350389556 4.40914573955366
v -7.26940441599052 21.6843900619583 4.36283235053922
v -8.29315217164322 7.98012270668343 0
v -9.4909227956909 22.7669574030305 0
v -6.52034159981825 19.7996478083839 1.72205686734595
v -14.9354379415299 12.2259449135105 0
v -10.9731898131431 6.15572023908135 4.382290423727
v -6.43159648804111 17.9066141665022 0
v -10.8293226983484 17.56219067147 5
v -14.405920655723 0 1.53784257179811
v -6.59208289866205 9.37561944380824 0
f 1 618 7
f 1 7 788
f 1 985 618
f 1 788 828
f 1 828 985
f 2 567 753
f 2 885 567
f 2 636 611
f 2 611 885
f 2 916 636
f 2 753 916
f 3 38 4
f 3 4 1011
f 3 35 38
f 3 985 35
f 3 935 985
f 3 1011 935
f 4 654 6
f 4 6 1011
f 4 38 654
f 5 736 72
f 5 72 1089
f 5 744 530
f 5 530 965
f 5 965 736
f 5 1089 744
f 6 635 935
f 6 1028 635
f 6 654 940
f 6 935 1011
f 6 940 1028
f 7 618 919
f 7 887 788
f 7 919 887
f 8 9 739
f 8 806 9
f 8 739 692
f 8 692 749
f 8 749 727
f 8 727 806
f 9 894 739
f 9 806 884
f 9 884 989
f 9 934 894
f 9 989 934
f 10 625 794
f 10 930 625
f 10 727 907
f 10 1016 727
f 10 794 1016
f 10 907 930
f 11 12 753
f 11 970 12
f 11 753 566
f 11 566 977
f 11 880 837
f 11 837 970
f 11 977 880
f 12 970 610
f 12 610 1072
f 12 916 753
f 12 1072 916
f 13 675 14
f 13 14 916
f 13 601 44
f 13 44 675
f 13 794 601
f 13 1072 794
f 13 916 1072
f 14 15 743
f 14 996 15
f 14 675 43
f 14 43 996
f 14 743 636
f 14 636 916
f 15 16 938
f 15 957 16
f 15 39 957
f 15 996 39
f 15 938 743
f 16 41 17
f 16 17 914
f 16 914 18
f 16 18 938
f 16 957 41
f 17 41 961
f 17 961 914
f 18 19 632
f 18 914 19
f 18 632 21
f 18 21 1025
f 18 1025 938
f 19 24 632
f 19 1014 24
f 19 914 34
f 19 34 1014
f 20 650 568
f 20 568 885
f 20 617 607
f 20 607 650
f 20 611 617
f 20 885 611
f 21 23 978
f 21 991 23
f 21 632 991
f 21 978 1025
f 22 978 23
f 22 23 1030
f 22 25 607
f 22 782 25
f 22 607 978
f 22 1030 782
f 23 33 799
f 23 991 33
f 23 799 1030
f 24 36 991
f 24 1014 36
f 24 991 632
f 25 782 27
f 25 27 834
f 25 631 607
f 25 834 631
f 26 747 467
f 26 467 824
f 26 589 631
f 26 824 589
f 26 631 628
f 26 628 747
f 27 595 783
f 27 804 595
f 27 783 714
f 27 714 834
f 27 782 804
f 28 30 29
f 28 29 668
f 28 633 30
f 28 747 633
f 28 668 747
f 29 30 578
f 29 578 40
f 29 40 668
f 30 1047 578
f 30 633 687
f 30 687 928
f 30 928 700
f 30 700 1047
f 31 37 700
f 31 911 37
f 31 700 928
f 31 928 867
f 31 867 936
f 31 936 911
f 32 909 548
f 32 548 989
f 32 884 836
f 32 836 909
f 32 989 884
f 33 36 972
f 33 991 36
f 33 972 799
f 34 961 614
f 34 614 1050
f 34 914 961
f 34 986 1014
f 34 1050 986
f 35 671 38
f 35 883 671
f 35 774 883
f 35 985 774
f 36 58 972
f 36 986 58
f 36 1014 986
f 37 864 700
f 37 851 865
f 37 911 851
f 37 865 864
f 38 940 654
f 38 671 670
f 38 670 899
f 38 899 940
f 39 43 47
f 39 996 43
f 39 47 48
f 39 48 957
f 40 578 406
f 40 406 812
f 40 410 668
f 40 812 410
f 41 49 50
f 41 761 49
f 41 50 961
f 41 957 761
f 42 880 535
f 42 535 1169
f 42 548 909
f 42 1169 548
f 42 837 880
f 42 909 837
f 43 44 47
f 43 675 44
f 44 637 47
f 44 601 579
f 44 579 973
f 44 973 637
f 45 647 598
f 45 598 879
f 45 976 647
f 45 879 940
f 45 940 899
f 45 899 976
f 46 725 575
f 46 575 781
f 46 788 725
f 46 781 1071
f 46 828 788
f 46 829 828
f 46 1149 829
f 46 1071 1149
f 47 869 48
f 47 637 1066
f 47 1001 869
f 47 1067 1001
f 47 1066 1067
f 48 52 761
f 48 869 52
f 48 761 957
f 49 761 50
f 50 52 54
f 50 761 52
f 50 54 614
f 50 614 961
f 51 1031 100
f 51 100 1136
f 51 466 462
f 51 462 1031
f 51 527 466
f 51 1136 527
f 52 858 54
f 52 960 858
f 52 869 960
f 53 55 592
f 53 917 55
f 53 592 960
f 53 623 917
f 53 1001 623
f 53 960 869
f 53 869 1001
f 54 58 986
f 54 1022 58
f 54 1050 614
f 54 858 1022
f 54 986 1050
f 55 56 592
f 55 886 56
f 55 917 886
f 56 694 59
f 56 59 804
f 56 570 592
f 56 799 570
f 56 886 694
f 56 1030 799
f 56 804 1030
f 57 972 58
f 57 58 1022
f 57 592 570
f 57 570 799
f 57 858 592
f 57 799 972
f 57 1022 858
f 59 728 595
f 59 595 804
f 59 694 609
f 59 609 730
f 59 999 728
f 59 730 999
f 60 643 624
f 60 624 893
f 60 645 643
f 60 717 645
f 60 681 683
f 60 893 681
f 60 683 717
f 61 65 1042
f 61 1083 65
f 61 541 410
f 61 410 1083
f 61 526 467
f 61 467 541
f 61 1042 526
f 62 812 406
f 62 406 864
f 62 810 809
f 62 809 997
f 62 864 810
f 62 997 812
f 63 392 69
f 63 69 1040
f 63 670 392
f 63 899 670
f 63 976 899
f 63 1040 976
f 64 830 901
f 64 1099 830
f 64 962 883
f 64 883 1173
f 64 901 953
f 64 953 962
f 64 1173 1099
f 65 385 673
f 65 912 385
f 65 673 591
f 65 591 1042
f 65 1083 912
f 66 917 133
f 66 133 981
f 66 609 694
f 66 981 609
f 66 694 886
f 66 886 917
f 67 82 73
f 67 73 84
f 67 1094 82
f 67 84 92
f 67 92 107
f 67 107 139
f 67 139 776
f 67 776 781
f 67 781 1112
f 67 1112 1094
f 68 600 810
f 68 860 600
f 68 810 998
f 68 994 860
f 68 920 994
f 68 998 920
f 69 392 953
f 69 742 785
f 69 901 742
f 69 785 896
f 69 896 1040
f 69 953 901
f 70 115 104
f 70 104 120
f 70 1161 115
f 70 120 136
f 70 136 133
f 70 133 917
f 70 917 641
f 70 641 1161
f 71 160 80
f 71 80 540
f 71 103 114
f 71 119 103
f 71 114 127
f 71 990 119
f 71 127 143
f 71 143 160
f 71 540 1060
f 71 1060 990
f 72 528 943
f 72 958 528
f 72 736 958
f 72 943 948
f 72 948 1089
f 73 82 651
f 73 651 84
f 74 85 81
f 74 81 772
f 74 83 597
f 74 772 83
f 74 1121 85
f 74 597 1121
f 75 1054 622
f 75 622 1066
f 75 637 1041
f 75 1066 637
f 75 1059 703
f 75 703 1172
f 75 1041 1059
f 75 1172 1054
f 76 79 78
f 76 78 839
f 76 775 79
f 76 87 651
f 76 839 87
f 76 651 775
f 77 528 621
f 77 943 528
f 77 621 891
f 77 656 655
f 77 655 1055
f 77 891 656
f 77 1055 943
f 78 79 772
f 78 81 95
f 78 772 81
f 78 95 839
f 79 98 89
f 79 89 772
f 79 90 94
f 79 775 90
f 79 94 98
f 80 160 178
f 80 178 196
f 80 196 217
f 80 217 873
f 80 603 540
f 80 873 603
f 81 85 93
f 81 93 95
f 82 91 90
f 82 90 775
f 82 1151 91
f 82 775 651
f 82 1094 1151
f 83 89 102
f 83 772 89
f 83 102 597
f 84 651 92
f 85 594 93
f 85 1121 594
f 86 144 128
f 86 128 1161
f 86 161 144
f 86 179 161
f 86 1172 179
f 86 641 622
f 86 622 1054
f 86 1161 641
f 86 1054 1172
f 87 99 96
f 87 96 651
f 87 839 99
f 88 496 498
f 88 923 496
f 88 847 497
f 88 497 923
f 88 498 672
f 88 672 847
f 89 98 123
f 89 1170 102
f 89 123 1170
f 90 91 101
f 90 122 94
f 90 101 122
f 91 1151 101
f 92 96 129
f 92 651 96
f 92 129 107
f 93 108 95
f 93 594 108
f 94 121 98
f 94 122 121
f 95 106 839
f 95 1157 106
f 95 108 1157
f 96 99 129
f 97 629 155
f 97 155 875
f 97 827 629
f 97 797 792
f 97 792 830
f 97 881 797
f 97 830 827
f 97 875 881
f 98 121 123
f 99 106 147
f 99 839 106
f 99 142 129
f 99 147 142
f 100 615 218
f 100 218 798
f 100 798 587
f 100 587 1136
f 100 1031 615
f 101 137 122
f 101 1134 137
f 101 1151 1134
f 102 138 1106
f 102 1170 138
f 102 1106 597
f 103 112 105
f 103 105 114
f 103 119 112
f 104 116 110
f 104 110 120
f 104 115 116
f 105 112 111
f 105 111 118
f 105 125 114
f 105 118 125
f 106 1135 147
f 106 1157 1135
f 107 129 139
f 108 594 140
f 108 140 1157
f 109 844 452
f 109 452 1147
f 109 756 844
f 109 1082 756
f 109 1111 1082
f 109 1147 1111
f 110 116 113
f 110 113 117
f 110 117 124
f 110 124 120
f 111 112 820
f 111 117 113
f 111 113 898
f 111 820 117
f 111 898 118
f 112 119 135
f 112 135 1114
f 112 1114 820
f 113 116 131
f 113 852 130
f 113 130 898
f 113 131 852
f 114 125 127
f 115 128 116
f 115 1161 128
f 116 128 131
f 117 132 124
f 117 141 132
f 117 820 141
f 118 134 125
f 118 130 134
f 118 898 130
f 119 573 135
f 119 990 573
f 120 124 145
f 120 145 136
f 121 122 166
f 121 152 123
f 121 166 152
f 122 137 583
f 122 583 166
f 123 152 1152
f 123 1152 1170
f 124 132 145
f 125 143 127
f 125 134 143
f 126 148 135
f 126 135 573
f 126 169 148
f 126 189 169
f 126 207 189
f 126 1150 207
f 126 573 574
f 126 574 1018
f 126 1018 1150
f 128 144 131
f 129 142 139
f 130 151 134
f 130 146 151
f 130 852 146
f 131 144 150
f 131 150 146
f 131 146 852
f 132 141 158
f 132 164 145
f 132 158 164
f 133 136 149
f 133 149 170
f 133 170 190
f 133 190 981
f 134 160 143
f 134 151 160
f 135 148 154
f 135 154 1114
f 136 145 149
f 137 156 174
f 137 1034 156
f 137 174 583
f 137 1134 1034
f 138 171 157
f 138 157 1019
f 138 1152 171
f 138 1019 1106
f 138 1170 1152
f 139 142 172
f 139 162 155
f 139 155 776
f 139 172 162
f 140 871 163
f 140 163 1135
f 140 594 871
f 140 1135 1157
f 141 159 158
f 141 820 159
f 142 147 176
f 142 176 172
f 144 161 150
f 145 164 149
f 146 150 167
f 146 165 151
f 146 167 165
f 147 787 176
f 147 1135 787
f 148 169 154
f 149 164 170
f 150 161 175
f 150 175 167
f 151 173 160
f 151 165 177
f 151 177 173
f 152 166 185
f 152 185 171
f 152 171 1152
f 153 621 873
f 153 891 621
f 153 838 904
f 153 1056 838
f 153 873 1056
f 153 904 891
f 154 807 159
f 154 159 820
f 154 169 807
f 154 820 1114
f 155 162 183
f 155 183 203
f 155 203 241
f 155 241 875
f 155 629 776
f 156 168 180
f 156 1034 168
f 156 180 174
f 157 171 181
f 157 181 1019
f 158 159 186
f 158 188 164
f 158 186 188
f 159 807 186
f 160 173 178
f 161 191 175
f 161 179 191
f 162 172 183
f 163 184 787
f 163 871 184
f 163 787 1135
f 164 182 170
f 164 188 182
f 165 167 193
f 165 193 177
f 166 187 185
f 166 583 187
f 167 175 193
f 168 201 180
f 168 219 201
f 168 1145 219
f 168 1034 744
f 168 744 1089
f 168 1089 1102
f 168 1102 1145
f 169 189 198
f 169 198 807
f 170 182 190
f 171 195 181
f 171 185 195
f 172 176 192
f 172 192 183
f 173 177 819
f 173 819 178
f 174 180 201
f 174 200 187
f 174 187 583
f 174 201 200
f 175 191 199
f 175 199 193
f 176 784 192
f 176 194 784
f 176 787 194
f 177 193 819
f 178 819 196
f 179 197 191
f 179 1172 197
f 181 195 202
f 181 202 1132
f 181 1132 1019
f 182 188 205
f 182 208 190
f 182 205 208
f 183 192 203
f 184 204 194
f 184 194 787
f 184 896 204
f 184 871 896
f 185 187 210
f 185 841 195
f 185 210 841
f 186 212 188
f 186 198 212
f 186 807 198
f 187 200 210
f 188 212 205
f 189 207 198
f 190 208 981
f 191 197 206
f 191 206 199
f 192 758 203
f 192 223 758
f 192 784 223
f 193 199 209
f 193 209 222
f 193 222 819
f 194 204 211
f 194 211 784
f 195 220 202
f 195 842 220
f 195 841 842
f 196 215 217
f 196 819 215
f 197 216 206
f 197 1153 216
f 197 1172 1153
f 198 207 227
f 198 221 212
f 198 227 221
f 199 206 209
f 200 201 213
f 200 229 210
f 200 213 229
f 201 219 213
f 202 220 564
f 202 564 1132
f 203 758 241
f 204 224 211
f 204 233 224
f 204 896 233
f 205 228 208
f 205 212 228
f 206 237 209
f 206 216 878
f 206 878 237
f 207 1150 227
f 208 228 731
f 208 731 981
f 209 237 222
f 210 238 225
f 210 225 841
f 210 229 238
f 211 224 232
f 211 232 740
f 211 740 784
f 212 221 716
f 212 716 228
f 213 219 239
f 213 239 229
f 214 552 861
f 214 1008 552
f 214 861 860
f 214 860 994
f 214 994 944
f 214 944 1008
f 215 235 217
f 215 230 235
f 215 819 230
f 216 236 878
f 216 1153 236
f 217 235 253
f 217 253 272
f 217 272 1076
f 217 1056 873
f 217 1076 1056
f 218 711 484
f 218 484 798
f 218 612 710
f 218 1062 612
f 218 615 1062
f 218 710 711
f 219 1145 239
f 220 251 240
f 220 240 564
f 220 243 251
f 220 842 243
f 221 227 245
f 221 245 248
f 221 248 716
f 222 250 230
f 222 230 819
f 222 237 250
f 223 648 249
f 223 249 758
f 223 784 648
f 224 242 232
f 224 233 242
f 225 238 252
f 225 252 842
f 225 842 841
f 226 483 491
f 226 796 483
f 226 491 508
f 226 508 680
f 226 680 509
f 226 509 796
f 227 1167 245
f 227 1150 1167
f 228 716 246
f 228 246 731
f 229 256 238
f 229 239 1155
f 229 1155 256
f 230 247 235
f 230 250 247
f 231 505 503
f 231 503 924
f 231 874 505
f 231 766 874
f 231 924 766
f 232 242 255
f 232 255 740
f 233 259 242
f 233 280 259
f 233 301 280
f 233 805 301
f 233 785 805
f 233 896 785
f 234 934 529
f 234 529 964
f 234 575 725
f 234 964 575
f 234 725 887
f 234 887 919
f 234 919 894
f 234 894 934
f 235 247 253
f 236 254 878
f 236 1108 254
f 236 1153 1108
f 237 266 250
f 237 878 266
f 238 260 252
f 238 256 260
f 239 1131 257
f 239 257 1155
f 239 1145 1131
f 240 251 258
f 240 258 795
f 240 795 564
f 241 249 270
f 241 758 249
f 241 270 279
f 241 279 281
f 241 281 875
f 242 259 255
f 243 264 251
f 243 252 264
f 243 842 252
f 244 764 552
f 244 552 1008
f 244 862 731
f 244 731 888
f 244 888 764
f 244 1008 862
f 245 274 248
f 245 262 274
f 245 1167 262
f 246 271 263
f 246 263 731
f 246 716 271
f 247 250 267
f 247 267 253
f 248 274 268
f 248 268 716
f 249 261 270
f 249 648 261
f 250 266 835
f 250 835 267
f 251 276 258
f 251 264 276
f 252 260 264
f 253 267 272
f 254 273 282
f 254 285 273
f 254 282 1095
f 254 1108 285
f 254 1095 878
f 255 259 277
f 255 277 265
f 255 265 740
f 256 278 260
f 256 726 278
f 256 1158 726
f 256 1155 1158
f 257 1131 275
f 257 275 1158
f 257 1158 1155
f 258 276 795
f 259 280 277
f 260 288 264
f 260 278 288
f 261 265 287
f 261 648 265
f 261 287 270
f 262 283 274
f 262 616 283
f 262 1126 616
f 262 1167 1126
f 263 271 284
f 263 284 888
f 263 888 731
f 264 288 276
f 265 277 294
f 265 294 287
f 265 648 740
f 266 282 295
f 266 1095 282
f 266 295 286
f 266 286 835
f 266 878 1095
f 267 289 272
f 267 286 289
f 267 835 286
f 268 293 271
f 268 271 716
f 268 274 296
f 268 1073 293
f 268 296 1073
f 269 793 721
f 269 721 983
f 269 752 793
f 269 1002 752
f 269 983 1002
f 270 299 279
f 270 287 299
f 271 303 284
f 271 293 715
f 271 715 303
f 272 289 290
f 272 290 1163
f 272 1163 1076
f 273 291 282
f 273 285 291
f 274 283 296
f 275 297 1158
f 275 1166 297
f 275 1131 1166
f 276 288 298
f 276 298 707
f 276 707 795
f 277 280 301
f 277 307 294
f 277 301 307
f 278 1101 288
f 278 726 305
f 278 305 1101
f 279 300 281
f 279 299 300
f 281 300 318
f 281 318 451
f 281 451 381
f 281 381 900
f 281 900 875
f 282 291 304
f 282 304 295
f 283 302 296
f 283 616 302
f 284 303 712
f 284 712 888
f 285 309 291
f 285 1111 309
f 285 1092 1091
f 285 1091 1111
f 285 1108 1092
f 286 310 289
f 286 295 310
f 287 294 315
f 287 315 299
f 288 317 298
f 288 724 317
f 288 1101 724
f 289 306 290
f 289 310 306
f 290 306 308
f 290 308 1163
f 291 309 304
f 292 1084 545
f 292 545 1166
f 292 948 1045
f 292 1131 948
f 292 1045 1084
f 292 1166 1131
f 293 311 313
f 293 1073 311
f 293 313 312
f 293 312 715
f 294 307 315
f 295 304 709
f 295 709 310
f 296 302 321
f 296 314 311
f 296 311 1073
f 296 321 314
f 297 316 1107
f 297 1166 316
f 297 1107 1158
f 298 317 707
f 299 324 300
f 299 315 324
f 300 324 318
f 301 323 307
f 301 319 323
f 301 404 319
f 301 805 404
f 302 1125 321
f 302 616 1125
f 303 312 322
f 303 715 312
f 303 322 712
f 304 309 320
f 304 320 709
f 305 726 326
f 305 326 1127
f 305 330 1101
f 305 1127 330
f 306 325 308
f 306 310 325
f 307 335 315
f 307 323 335
f 308 325 327
f 308 327 562
f 308 562 1163
f 309 328 320
f 309 1111 328
f 310 344 325
f 310 334 344
f 310 709 334
f 311 338 313
f 311 314 331
f 311 331 338
f 312 313 338
f 312 341 322
f 312 338 1119
f 312 1119 341
f 314 321 1162
f 314 1162 331
f 315 343 324
f 315 335 343
f 316 332 326
f 316 326 1107
f 316 545 332
f 316 1166 545
f 317 339 333
f 317 333 707
f 317 724 339
f 318 324 336
f 318 336 451
f 319 337 323
f 319 404 337
f 320 328 342
f 320 342 709
f 321 340 350
f 321 453 340
f 321 350 1162
f 321 1125 453
f 322 341 712
f 323 337 335
f 324 347 336
f 324 343 347
f 325 349 327
f 325 344 349
f 326 332 882
f 326 882 351
f 326 351 1127
f 326 726 1107
f 327 349 364
f 327 364 1171
f 327 1156 562
f 327 1171 1156
f 328 348 342
f 328 1147 348
f 328 1111 1147
f 329 661 507
f 329 507 856
f 329 929 554
f 329 554 968
f 329 856 555
f 329 555 929
f 329 968 661
f 330 363 339
f 330 339 724
f 330 351 897
f 330 1127 351
f 330 897 363
f 330 724 1101
f 331 821 338
f 331 350 359
f 331 1162 350
f 331 359 821
f 332 545 353
f 332 353 882
f 333 339 354
f 333 354 707
f 334 342 352
f 334 709 342
f 334 352 344
f 335 337 362
f 335 362 343
f 336 347 355
f 336 355 454
f 336 454 451
f 337 376 362
f 337 404 376
f 338 821 356
f 338 356 1119
f 339 372 354
f 339 363 372
f 340 357 350
f 340 453 357
f 341 358 892
f 341 1165 358
f 341 892 712
f 341 1119 1165
f 342 348 360
f 342 360 352
f 343 366 347
f 343 361 366
f 343 369 361
f 343 362 369
f 344 368 349
f 344 352 367
f 344 367 368
f 345 605 816
f 345 1146 605
f 345 816 995
f 345 1052 853
f 345 853 1146
f 345 995 1052
f 346 381 458
f 346 900 381
f 346 458 988
f 346 640 797
f 346 988 640
f 346 797 900
f 347 366 355
f 348 365 360
f 348 452 365
f 348 1147 452
f 349 368 364
f 350 357 373
f 350 373 359
f 351 882 370
f 351 370 1140
f 351 1140 897
f 352 360 377
f 352 377 367
f 353 371 370
f 353 370 882
f 353 741 371
f 353 545 741
f 354 372 1017
f 354 1017 707
f 355 366 375
f 355 375 454
f 356 821 378
f 356 378 1148
f 356 1165 1119
f 356 1148 1164
f 356 1164 1165
f 357 453 373
f 358 374 1061
f 358 1164 374
f 358 1061 892
f 358 1165 1164
f 359 373 384
f 359 384 738
f 359 738 821
f 360 365 383
f 360 586 377
f 360 383 586
f 361 387 366
f 361 369 379
f 361 379 387
f 362 386 369
f 362 376 386
f 363 1159 372
f 363 897 389
f 363 389 1159
f 364 368 382
f 364 382 1171
f 365 452 383
f 366 396 375
f 366 387 1130
f 366 1130 396
f 367 767 368
f 367 377 388
f 367 388 767
f 368 767 382
f 369 405 379
f 369 386 405
f 370 371 398
f 370 398 403
f 370 403 1140
f 371 393 398
f 371 741 393
f 372 394 1000
f 372 1159 394
f 372 1000 1017
f 373 399 384
f 373 390 399
f 373 1044 390
f 373 453 1044
f 374 395 391
f 374 391 440
f 374 1148 395
f 374 440 1061
f 374 1164 1148
f 375 396 454
f 376 397 386
f 376 404 397
f 377 588 388
f 377 586 588
f 378 1133 395
f 378 395 1148
f 378 738 402
f 378 402 1133
f 378 821 738
f 379 411 387
f 379 405 411
f 380 945 457
f 380 457 1029
f 380 552 764
f 380 1029 552
f 380 764 664
f 380 664 945
f 381 451 1038
f 381 718 458
f 381 1038 718
f 382 768 400
f 382 400 1116
f 382 767 768
f 382 1116 1171
f 383 452 401
f 383 401 586
f 384 399 402
f 384 402 738
f 385 843 557
f 385 557 963
f 385 963 673
f 385 912 843
f 386 397 429
f 386 1142 405
f 386 429 1142
f 387 411 773
f 387 773 430
f 387 430 1130
f 388 588 922
f 388 822 767
f 388 1026 822
f 388 922 1026
f 389 431 432
f 389 1077 431
f 389 432 1160
f 389 897 1077
f 389 1160 1159
f 390 407 399
f 390 1044 407
f 391 395 415
f 391 415 408
f 391 408 440
f 392 670 962
f 392 962 953
f 393 421 398
f 393 1087 421
f 393 741 1087
f 394 422 1000
f 394 1160 422
f 394 1159 1160
f 395 412 415
f 395 1133 412
f 396 430 428
f 396 428 454
f 396 1130 430
f 397 404 577
f 397 577 429
f 398 433 403
f 398 421 850
f 398 850 433
f 399 416 402
f 399 407 417
f 399 417 416
f 400 768 413
f 400 413 1154
f 400 1093 1116
f 400 1154 1093
f 401 452 414
f 401 414 586
f 402 1129 412
f 402 412 1133
f 402 416 1129
f 403 433 431
f 403 431 1077
f 403 1077 897
f 403 897 1140
f 404 937 577
f 404 805 1051
f 404 1051 937
f 405 826 411
f 405 434 826
f 405 1142 434
f 406 578 1047
f 406 700 864
f 406 1047 700
f 407 1044 417
f 408 415 418
f 408 418 440
f 409 414 419
f 409 586 414
f 409 419 427
f 409 427 420
f 409 420 922
f 409 588 586
f 409 922 588
f 410 541 668
f 410 812 1083
f 411 439 773
f 411 826 439
f 412 423 415
f 412 427 423
f 412 1129 427
f 413 426 424
f 413 424 1154
f 413 768 426
f 414 425 419
f 414 1143 425
f 414 452 1143
f 415 423 418
f 416 417 426
f 416 426 1168
f 416 1168 1129
f 417 424 426
f 417 456 424
f 417 1044 456
f 418 423 419
f 418 419 425
f 418 425 440
f 419 423 427
f 420 427 1129
f 420 1026 922
f 420 1168 1026
f 420 1129 1168
f 421 435 850
f 421 1087 435
f 422 432 436
f 422 1160 432
f 422 436 662
f 422 662 1000
f 424 456 1154
f 425 1115 440
f 425 1143 1115
f 426 768 1168
f 428 430 441
f 428 441 437
f 428 437 1128
f 428 1128 454
f 429 438 434
f 429 434 1142
f 429 577 438
f 430 439 441
f 430 773 439
f 431 443 432
f 431 433 443
f 432 445 436
f 432 443 1138
f 432 1138 445
f 433 442 443
f 433 850 442
f 434 438 446
f 434 446 833
f 434 447 826
f 434 833 447
f 435 460 444
f 435 444 850
f 435 1087 460
f 436 445 662
f 437 441 449
f 437 449 1128
f 438 455 446
f 438 577 455
f 439 759 441
f 439 447 759
f 439 826 447
f 440 1144 1061
f 440 1115 1117
f 440 1117 1144
f 441 846 449
f 441 759 846
f 442 448 443
f 442 762 448
f 442 850 762
f 443 448 825
f 443 825 1138
f 444 460 449
f 444 449 762
f 444 762 850
f 445 450 455
f 445 1138 450
f 445 455 662
f 446 455 450
f 446 450 833
f 447 448 759
f 447 825 448
f 447 833 825
f 448 846 759
f 448 762 846
f 449 460 1120
f 449 846 762
f 449 1120 1128
f 450 1141 833
f 450 1138 1141
f 451 454 1057
f 451 1057 1038
f 452 844 461
f 452 461 1143
f 453 1139 1044
f 453 1113 1069
f 453 1069 1139
f 453 1125 1113
f 454 987 1057
f 454 1128 987
f 455 577 1078
f 455 1078 646
f 455 646 1118
f 455 1118 662
f 456 1062 615
f 456 615 1093
f 456 1044 1062
f 456 1093 1154
f 457 945 696
f 457 696 982
f 457 859 857
f 457 857 1029
f 457 982 859
f 458 718 580
f 458 580 980
f 458 980 848
f 458 848 988
f 459 613 542
f 459 542 849
f 459 557 569
f 459 1074 557
f 459 569 613
f 459 849 790
f 459 790 1074
f 460 1086 954
f 460 954 1120
f 460 1087 1086
f 461 770 769
f 461 769 1115
f 461 844 770
f 461 1115 1143
f 462 466 563
f 462 563 1171
f 462 1093 1031
f 462 1116 1093
f 462 1171 1116
f 463 652 613
f 463 613 800
f 463 1009 652
f 463 808 676
f 463 676 1009
f 463 800 808
f 464 713 817
f 464 980 713
f 464 817 750
f 464 750 937
f 464 906 848
f 464 848 980
f 464 937 906
f 465 765 905
f 465 1123 765
f 465 905 954
f 465 954 1086
f 465 1086 1036
f 465 1036 1123
f 466 527 956
f 466 659 563
f 466 956 659
f 467 526 534
f 467 534 824
f 467 747 541
f 468 634 696
f 468 746 634
f 468 696 945
f 468 863 746
f 468 1046 863
f 468 945 1046
f 469 581 690
f 469 941 581
f 469 701 619
f 469 619 868
f 469 690 701
f 469 868 802
f 469 802 941
f 470 474 770
f 470 979 474
f 470 491 483
f 470 483 1007
f 470 932 491
f 470 844 638
f 470 638 932
f 470 770 844
f 470 1007 979
f 471 472 473
f 471 951 472
f 471 473 475
f 471 475 979
f 471 483 796
f 471 1007 483
f 471 796 951
f 471 979 1007
f 472 485 473
f 472 493 485
f 472 951 493
f 473 1110 475
f 473 485 803
f 473 803 1110
f 474 979 669
f 474 669 1013
f 474 769 770
f 474 1013 769
f 475 565 913
f 475 1110 565
f 475 913 669
f 475 669 979
f 476 490 863
f 476 949 490
f 476 745 737
f 476 737 1033
f 476 1012 745
f 476 863 1046
f 476 1033 949
f 476 1046 1012
f 477 486 949
f 477 952 486
f 477 737 565
f 477 565 952
f 477 1033 737
f 477 949 1033
f 478 876 487
f 478 487 952
f 478 565 876
f 478 952 565
f 479 890 581
f 479 581 974
f 479 646 732
f 479 1118 646
f 479 732 708
f 479 708 890
f 479 974 1118
f 480 481 971
f 480 975 481
f 480 634 639
f 480 696 634
f 480 639 915
f 480 982 696
f 480 915 975
f 480 971 982
f 481 676 808
f 481 895 676
f 481 808 971
f 481 975 895
f 482 688 580
f 482 580 918
f 482 872 688
f 482 733 719
f 482 719 872
f 482 967 733
f 482 918 866
f 482 866 967
f 484 711 585
f 484 585 984
f 484 587 798
f 484 877 587
f 484 984 877
f 485 493 511
f 485 511 969
f 485 969 803
f 486 952 487
f 486 487 1098
f 486 517 942
f 486 1098 517
f 486 942 949
f 487 492 518
f 487 876 492
f 487 518 1098
f 488 713 688
f 488 688 872
f 488 817 713
f 488 818 817
f 488 923 818
f 488 872 1004
f 488 1004 923
f 489 499 889
f 489 908 499
f 489 553 780
f 489 866 553
f 489 780 908
f 489 967 866
f 489 889 967
f 490 516 926
f 490 942 516
f 490 1010 863
f 490 926 1010
f 490 949 942
f 491 506 508
f 491 932 506
f 492 803 514
f 492 514 933
f 492 933 518
f 492 876 803
f 493 509 510
f 493 796 509
f 493 510 511
f 493 951 796
f 494 661 505
f 494 505 874
f 494 571 661
f 494 874 571
f 495 496 719
f 495 889 496
f 495 719 733
f 495 733 967
f 495 967 889
f 496 889 498
f 496 872 719
f 496 1004 872
f 496 923 1004
f 497 847 818
f 497 818 923
f 498 499 551
f 498 889 499
f 498 551 672
f 499 1003 551
f 499 908 735
f 499 735 1003
f 500 847 672
f 500 672 931
f 500 789 708
f 500 708 902
f 500 931 789
f 500 902 847
f 501 734 644
f 501 644 950
f 501 720 947
f 501 950 720
f 501 735 734
f 501 1003 735
f 501 947 1003
f 502 504 723
f 502 845 504
f 502 584 845
f 502 1024 584
f 502 723 644
f 502 644 1024
f 503 505 584
f 503 584 1024
f 503 1024 644
f 503 644 1105
f 503 992 924
f 503 1105 992
f 504 701 690
f 504 690 757
f 504 955 701
f 504 791 723
f 504 757 791
f 504 845 955
f 505 968 584
f 505 661 968
f 506 555 508
f 506 823 554
f 506 554 929
f 506 929 555
f 506 608 699
f 506 932 608
f 506 699 823
f 507 855 653
f 507 653 856
f 507 661 801
f 507 801 704
f 507 704 855
f 508 555 556
f 508 556 561
f 508 561 680
f 509 511 510
f 509 513 511
f 509 561 513
f 509 680 561
f 511 513 514
f 511 514 969
f 512 556 856
f 512 921 556
f 512 653 604
f 512 604 760
f 512 856 653
f 512 760 921
f 513 515 514
f 513 626 515
f 513 561 626
f 514 515 933
f 514 803 969
f 515 517 518
f 515 626 517
f 515 518 933
f 516 942 626
f 516 626 993
f 516 1006 926
f 516 993 946
f 516 946 1006
f 517 1098 518
f 517 626 942
f 519 532 679
f 519 1021 532
f 519 585 544
f 519 544 854
f 519 984 585
f 519 679 606
f 519 606 984
f 519 854 1021
f 520 521 524
f 520 1100 521
f 520 524 525
f 520 525 639
f 520 639 746
f 520 746 778
f 520 778 1100
f 521 523 524
f 521 925 523
f 521 576 925
f 521 1100 576
f 522 895 523
f 522 523 925
f 522 543 677
f 522 751 543
f 522 677 895
f 522 925 751
f 523 975 524
f 523 895 975
f 524 915 525
f 524 975 915
f 525 915 639
f 526 572 534
f 526 1042 572
f 527 704 571
f 527 571 956
f 527 1136 704
f 528 958 621
f 529 934 1032
f 529 1122 964
f 529 1032 1122
f 530 531 965
f 530 1032 531
f 530 744 1053
f 530 1122 1032
f 530 1053 1122
f 531 548 965
f 531 989 548
f 531 1032 989
f 532 649 1006
f 532 1021 649
f 532 946 679
f 532 1006 946
f 533 536 535
f 533 535 880
f 533 966 536
f 533 695 537
f 533 537 966
f 533 977 695
f 533 880 977
f 534 572 538
f 534 538 698
f 534 698 824
f 535 536 593
f 535 593 1169
f 536 620 593
f 536 603 873
f 536 966 603
f 536 873 620
f 537 686 540
f 537 540 966
f 537 590 686
f 537 695 590
f 538 572 539
f 538 539 686
f 538 686 590
f 538 590 698
f 539 572 574
f 539 574 573
f 539 573 990
f 539 990 686
f 540 603 966
f 540 686 1060
f 541 747 668
f 542 613 652
f 542 652 959
f 542 903 849
f 542 870 903
f 542 959 870
f 543 652 677
f 543 959 652
f 543 751 1075
f 543 870 959
f 543 1075 870
f 544 585 870
f 544 1075 854
f 544 870 1075
f 545 1043 741
f 545 1174 1043
f 545 1084 1174
f 546 666 547
f 546 547 1174
f 546 655 1005
f 546 1174 655
f 546 657 666
f 546 1005 657
f 547 666 831
f 547 1036 741
f 547 741 1043
f 547 831 1123
f 547 1123 1036
f 547 1043 1174
f 548 549 965
f 548 1169 549
f 549 593 958
f 549 1169 593
f 549 958 736
f 549 736 965
f 550 1053 744
f 550 744 1070
f 550 1122 1053
f 550 1070 1134
f 550 1094 1090
f 550 1090 1122
f 550 1151 1094
f 550 1134 1151
f 551 931 672
f 551 947 931
f 551 1003 947
f 552 1029 861
f 553 866 691
f 553 691 987
f 553 954 780
f 553 1035 954
f 553 987 1035
f 554 823 845
f 554 845 968
f 555 856 556
f 556 993 561
f 556 921 993
f 557 927 569
f 557 843 927
f 557 1074 963
f 558 560 646
f 558 750 560
f 558 577 937
f 558 1078 577
f 558 646 1078
f 558 937 750
f 559 560 750
f 559 902 560
f 559 750 817
f 559 817 818
f 559 818 847
f 559 847 902
f 560 732 646
f 560 1103 732
f 560 902 1103
f 561 993 626
f 562 1049 838
f 562 838 1076
f 562 1063 1049
f 562 1156 1063
f 562 1076 1163
f 563 659 904
f 563 904 1063
f 563 1063 1171
f 564 795 1104
f 564 1104 1132
f 565 737 913
f 565 1110 876
f 566 567 695
f 566 753 567
f 566 695 977
f 567 568 590
f 567 885 568
f 567 590 695
f 568 650 589
f 568 589 698
f 568 698 590
f 569 800 613
f 569 816 800
f 569 927 816
f 571 801 661
f 571 704 801
f 571 874 1015
f 571 1015 956
f 572 591 574
f 572 1042 591
f 574 591 1018
f 575 964 781
f 576 649 1021
f 576 1100 649
f 576 779 925
f 576 1021 779
f 579 601 794
f 579 625 645
f 579 794 625
f 579 645 832
f 579 832 973
f 580 688 980
f 580 718 918
f 581 757 690
f 581 890 757
f 581 941 974
f 582 919 689
f 582 689 1081
f 582 692 739
f 582 1081 692
f 582 739 894
f 582 894 919
f 584 968 845
f 585 711 903
f 585 903 870
f 587 606 604
f 587 604 653
f 587 877 606
f 587 653 1136
f 589 650 631
f 589 824 698
f 591 673 1018
f 592 858 960
f 593 620 958
f 594 647 976
f 594 1121 647
f 594 976 871
f 595 728 599
f 595 599 783
f 596 642 598
f 596 598 647
f 596 624 642
f 596 893 624
f 596 647 693
f 596 693 893
f 597 1079 1037
f 597 1037 1121
f 597 1106 1079
f 598 642 879
f 599 728 851
f 599 911 783
f 599 851 911
f 600 939 810
f 600 853 811
f 600 811 939
f 600 860 853
f 602 808 605
f 602 605 1146
f 602 971 808
f 602 859 982
f 602 1146 859
f 602 982 971
f 604 606 760
f 605 808 800
f 605 800 816
f 606 679 760
f 606 877 984
f 607 617 978
f 607 631 650
f 608 660 699
f 608 932 660
f 609 862 730
f 609 981 862
f 610 1016 794
f 610 794 1072
f 610 970 1023
f 610 1020 1016
f 610 1023 1020
f 611 743 617
f 611 636 743
f 612 1139 710
f 612 1062 1044
f 612 1044 1139
f 615 1031 1093
f 616 1080 1074
f 616 1074 1113
f 616 1126 1080
f 616 1113 1125
f 617 743 978
f 618 689 919
f 618 935 689
f 618 985 935
f 619 660 697
f 619 699 660
f 619 697 868
f 619 701 699
f 620 873 621
f 620 621 958
f 622 641 623
f 622 623 1067
f 622 1067 1066
f 623 641 917
f 623 1001 1067
f 624 763 642
f 624 643 763
f 625 643 645
f 625 930 643
f 627 685 684
f 627 684 721
f 627 1041 685
f 627 793 702
f 627 702 1058
f 627 721 793
f 627 1059 1041
f 627 1058 1059
f 628 631 834
f 628 714 633
f 628 633 747
f 628 834 714
f 629 1071 776
f 629 827 1071
f 630 734 735
f 630 992 734
f 630 735 840
f 630 840 765
f 630 765 924
f 630 924 992
f 633 714 687
f 634 746 639
f 635 689 935
f 635 1081 689
f 635 1028 1081
f 637 973 685
f 637 685 1041
f 638 697 660
f 638 660 932
f 638 755 697
f 638 756 755
f 638 844 756
f 640 988 777
f 640 777 1137
f 640 792 797
f 640 1137 792
f 642 658 748
f 642 749 658
f 642 748 879
f 642 763 749
f 643 907 763
f 643 930 907
f 644 723 950
f 644 734 1105
f 645 717 832
f 647 1037 693
f 647 1121 1037
f 648 784 740
f 649 778 926
f 649 1100 778
f 649 926 1006
f 652 1009 677
f 653 855 1136
f 655 656 1005
f 655 1084 1055
f 655 1174 1084
f 656 904 657
f 656 657 1005
f 656 891 904
f 657 659 667
f 657 904 659
f 657 667 666
f 658 692 748
f 658 749 692
f 659 956 667
f 662 974 1000
f 662 1118 974
f 663 802 665
f 663 665 1068
f 663 941 802
f 663 974 941
f 663 1000 974
f 663 1017 1000
f 663 1068 1017
f 664 892 706
f 664 706 945
f 664 764 712
f 664 712 892
f 665 674 752
f 665 802 674
f 665 752 1002
f 665 1002 1068
f 666 667 1124
f 666 1124 831
f 667 956 1015
f 667 1015 1124
f 669 737 745
f 669 913 737
f 669 745 1013
f 670 671 962
f 671 883 962
f 673 963 1048
f 673 1048 1018
f 674 754 752
f 674 755 754
f 674 868 755
f 674 802 868
f 676 895 677
f 676 677 1009
f 678 683 682
f 678 682 983
f 678 684 683
f 678 721 684
f 678 983 721
f 679 921 760
f 679 946 921
f 681 682 683
f 681 1019 682
f 681 893 1085
f 681 1085 1019
f 682 1104 983
f 682 1019 1132
f 682 1132 1104
f 683 684 832
f 683 832 717
f 684 685 832
f 685 973 832
f 686 990 1060
f 687 714 867
f 687 867 928
f 688 713 980
f 691 918 718
f 691 718 1038
f 691 866 918
f 691 1057 987
f 691 1038 1057
f 692 1081 748
f 693 1079 893
f 693 1037 1079
f 697 755 868
f 699 701 955
f 699 955 823
f 702 793 754
f 702 754 1082
f 702 1091 1058
f 702 1082 1091
f 703 1059 1058
f 703 1058 1092
f 703 1092 1153
f 703 1153 1172
f 704 1136 855
f 705 706 892
f 705 1012 706
f 705 892 1061
f 705 1039 1012
f 705 1109 1039
f 705 1061 1144
f 705 1144 1109
f 706 1046 945
f 706 1012 1046
f 707 1064 795
f 707 1017 1068
f 707 1068 1064
f 708 732 1103
f 708 789 1027
f 708 1027 890
f 708 1103 902
f 710 849 711
f 710 790 849
f 710 1069 790
f 710 1139 1069
f 711 849 903
f 712 764 888
f 714 783 867
f 720 722 789
f 720 950 722
f 720 789 931
f 720 931 947
f 722 723 791
f 722 950 723
f 722 791 789
f 725 788 887
f 726 1158 1107
f 727 749 907
f 727 1020 806
f 727 1016 1020
f 728 729 851
f 728 999 729
f 729 730 920
f 729 999 730
f 729 865 851
f 729 998 865
f 729 920 998
f 730 862 944
f 730 944 920
f 731 862 981
f 734 992 1105
f 735 908 840
f 741 1036 1086
f 741 1086 1087
f 742 1137 785
f 742 901 1137
f 743 938 1025
f 743 1025 978
f 744 1034 1070
f 745 769 1013
f 745 1039 769
f 745 1012 1039
f 746 1010 778
f 746 863 1010
f 748 1028 879
f 748 1081 1028
f 749 763 907
f 751 779 854
f 751 925 779
f 751 854 1075
f 752 754 793
f 754 755 756
f 754 756 1082
f 757 1027 791
f 757 890 1027
f 765 831 766
f 765 766 924
f 765 1123 831
f 765 840 905
f 766 831 1124
f 766 1015 874
f 766 1124 1015
f 767 822 768
f 768 822 1168
f 769 1039 1109
f 769 1109 1117
f 769 1117 1115
f 771 774 828
f 771 883 774
f 771 828 829
f 771 829 1099
f 771 1173 883
f 771 1099 1173
f 774 985 828
f 776 1071 781
f 777 848 786
f 777 786 1137
f 777 988 848
f 778 1010 926
f 779 1021 854
f 780 905 840
f 780 840 908
f 780 954 905
f 781 964 1112
f 782 1030 804
f 783 936 867
f 783 911 936
f 785 786 805
f 785 1137 786
f 786 1051 805
f 786 848 906
f 786 906 1051
f 789 791 1027
f 790 1069 1113
f 790 1113 1074
f 792 901 830
f 792 1137 901
f 795 1064 1002
f 795 1002 1104
f 797 881 900
f 803 876 1110
f 806 836 884
f 806 1020 836
f 809 810 939
f 809 813 997
f 809 1065 813
f 809 939 1065
f 810 864 998
f 811 815 814
f 811 814 1065
f 811 995 815
f 811 853 1052
f 811 1065 939
f 811 1052 995
f 812 997 813
f 812 813 1083
f 813 814 912
f 813 1065 814
f 813 912 1083
f 814 815 843
f 814 843 912
f 815 816 927
f 815 995 816
f 815 927 843
f 822 1026 1168
f 823 955 845
f 825 833 1141
f 825 1141 1138
f 827 1099 829
f 827 829 1149
f 827 830 1099
f 827 1149 1071
f 836 837 909
f 836 1023 837
f 836 1020 1023
f 837 1023 970
f 838 1049 904
f 838 1056 1076
f 853 910 857
f 853 857 1146
f 853 860 910
f 857 859 1146
f 857 910 861
f 857 861 1029
f 860 861 910
f 862 1008 944
f 864 865 998
f 871 1040 896
f 871 976 1040
f 875 900 881
f 879 1028 940
f 893 1079 1085
f 904 1049 1063
f 906 937 1051
f 920 944 994
f 921 946 993
f 934 989 1032
f 943 1045 948
f 943 1055 1045
f 948 1102 1089
f 948 1145 1102
f 948 1131 1145
f 954 1035 1120
f 963 1088 1048
f 963 1074 1080
f 963 1080 1088
f 964 1090 1112
f 964 1122 1090
f 983 1104 1002
f 987 1120 1035
f 987 1128 1120
f 1002 1064 1068
f 1018 1048 1096
f 1018 1096 1150
f 1019 1085 1106
f 1034 1134 1070
f 1045 1055 1084
f 1048 1088 1096
f 1058 1091 1092
f 1063 1156 1171
f 1079 1106 1085
f 1080 1126 1088
f 1082 1111 1091
f 1088 1097 1096
f 1088 1126 1097
f 1090 1094 1112
f 1092 1108 1153
f 1096 1097 1150
f 1097 1126 1167
f 1097 1167 1150
f 1109 1144 1117
