v 1.062716 0 0.882173
v 1.062716 0 1.082173
v 1.062716 0.682 0.882173
v 1.062716 0.682 1.082173
v 1.160717 0 0.882173
v 1.160717 0 1.082173
v 1.16041751754966 0.682 0.882173
v 1.160717 0.682 1.082173
v 1.0828758492399 0.0257204418016721 1.082173
v 1.08048976557761 0.0537469964123801 1.082173
v 1.08048976557761 0.0751495300253697 1.082173
v 1.08026833217151 0.103055834870013 1.082173
v 1.08162407817343 0.123250884283389 1.082173
v 1.08048976557761 0.150419894584973 1.082173
v 1.07958374216098 0.197674320125946 1.082173
v 1.08156074503501 0.249585228729693 1.082173
v 1.08057779585279 0.295110533942708 1.082173
v 1.08048976557761 0.343765690930159 1.082173
v 1.08089469022484 0.39293140508053 1.082173
v 1.12332987937861 0.660866176351595 1.082173
v 1.08048976557761 0.440438589102751 1.082173
v 1.12060338278881 0.461455404909549 1.082173
v 1.07955129842485 0.488225842490164 1.082173
v 1.1211323555414 0.506501317734817 1.082173
v 1.08075151158023 0.53910906827362 1.082173
v 1.160717 0.633121061525433 0.949740317471776
v 1.08072911332714 0.58723812403429 1.082173
v 1.12060338278881 0.557095001955356 1.082173
v 1.0829914795701 0.634528610291333 1.082173
v 1.160717 0.23695113666876 0.974755391579364
v 1.11277414524305 0.124443731752623 1.082173
v 1.11017157433955 0.149409001600522 1.082173
v 1.11159045351577 0.172089425454493 1.082173
v 1.10895152376093 0.197815976709076 1.082173
v 1.11258170008061 0.221818610027534 1.082173
v 1.10810303845518 0.246062184019346 1.082173
v 1.11070205482418 0.268679268295625 1.082173
v 1.1117165 0.295429241843862 1.082173
v 1.1117165 0.316831775456852 1.082173
v 1.1117165 0.392102140016455 1.082173
v 1.15101363372484 0.365168224543148 1.082173
v 1.15101363372484 0.392102140016455 1.082173
v 1.14643393866251 0.509239756884288 1.082173
v 1.10949042467721 0.586574380109044 1.082173
v 1.160717 0.644425234987315 0.930260722554322
v 1.1117165 0.682120834534234 1.082173
v 1.07768790904333 0.094411181942686 0.882173
v 1.07602453182303 0.146832142799157 0.882173
v 1.07241936627516 0.171822428197963 0.882173
v 1.07602464815331 0.191985457369825 0.882173
v 1.07241936627516 0.241561410897249 0.882173
v 1.07504868548631 0.288294072995283 0.882173
v 1.1117165 0.0268130809390733 0.882173
v 1.11013763914399 0.0756850838524718 0.882173
v 1.1117165 0.123485979111666 0.882173
v 1.1117165 0.171822428197963 0.882173
v 1.1117165 0.220158877284259 0.882173
v 1.1117165 0.268495326370555 0.882173
v 1.1117165 0.316831775456852 0.882173
v 1.14508802213378 0.339174797671656 0.882173
v 1.1117165 0.365168224543148 0.882173
v 1.1117165 0.386570758156138 0.882173
v 1.13524682767715 0.38752646186475 0.882173
v 1.11022517731242 0.433605726755644 0.882173
v 1.10971691818719 0.463176661237697 0.882173
v 1.11395690615552 0.484473070730375 0.882173
v 1.11021789049765 0.532843642464895 0.882173
v 1.14294323442239 0.531580105415027 0.882173
v 1.10782701939339 0.559210301701219 0.882173
v 1.14294323442239 0.558514020888334 0.882173
v 1.14248757137989 0.581506669235638 0.882173
v 1.14294323442239 0.60685046997463 0.882173
v 1.14294323442239 0.62825300358762 0.882173
v 1.13885897379283 0.653524414132376 0.882173
v 1.07551338275925 0 1.0253717358003
v 1.11098141618852 0 0.904889043252219
v 1.14311953448002 0 0.930903864001357
v 1.11155435751461 0 0.960380506758077
v 1.14311953448002 0 0.957868326370555
v 1.14521892200405 0 0.982977232408032
v 1.10882428151827 0 1.00717792309097
v 1.14430011434208 0 1.00681112186534
v 1.1117165 0 1.05508702088833
v 1.1117165 0 0.882294516742468
v 1.062716 0.0272691864367538 0.91099241826322
v 1.062716 0.0131939007502404 0.923807785408135
v 1.062716 0.0268130809390733 1.00647767362944
v 1.062716 0.0268130809390733 1.02131289047072
v 1.062716 0.0220421709577576 1.06948530876385
v 1.062716 0.0430996572058853 1.06407618255341
v 1.062716 0.0751495300253697 0.924094195952937
v 1.062716 0.0750042657834392 0.959344298244867
v 1.062716 0.0751495300253697 1.00647767362944
v 1.12870990482738 0.35493606177304 1.082173
v 1.062716 0.0919738405842901 1.0508274298948
v 1.062716 0.0782306158350423 1.06750862283971
v 1.062716 0.124012808260064 0.920890013211419
v 1.062716 0.124001657587698 0.957707140947412
v 1.062716 0.123485979111666 1.00647767362944
v 1.062716 0.125036396066413 1.05979658576975
v 1.062716 0.169813074734349 0.911139564426587
v 1.062716 0.171822428197963 0.957868326370555
v 1.062716 0.171878796765094 1.00508046519367
v 1.12082607315448 0.622250121465534 1.082173
v 1.12060338278881 0.64222200664152 1.082173
v 1.062716 0.180561503308128 1.06452326989588
v 1.11813858855348 0.43746055635928 1.082173
v 1.062716 0.23324204862773 0.921088140567142
v 1.062716 0.219856139778792 0.958397334637293
v 1.12186635520432 0.482447861224526 1.082173
v 1.12060338278881 0.533960078538993 1.082173
v 1.062716 0.220158877284259 1.00647767362944
v 1.062716 0.151764220544189 1.03491556850273
v 1.062716 0.581837849991148 0.940965806196963
v 1.160717 0.178842854646143 0.97260710539671
v 1.062716 0.226062885200753 1.05791257877782
v 1.160717 0.375060055386224 0.974542687036655
v 1.062716 0.268495326370555 0.957868326370555
v 1.13621675 0.0301987998540379 1.082173
v 1.062716 0.268325258257839 1.00924191810993
v 1.062716 0.276715360149304 1.06335346337602
v 1.062716 0.315491591460237 0.955017421770581
v 1.062716 0.316831775456852 1.02131289047072
v 1.062716 0.316823523152849 1.06088437037817
v 1.062716 0.365168224543148 1.00647767362944
v 1.062716 0.638787742395792 0.898846323097509
v 1.062716 0.381850176361511 1.02011613510217
v 1.10875069172017 0.354959421194274 1.082173
v 1.062716 0.381884476967664 1.06881181307742
v 1.062716 0.350416294225854 1.06335346337602
v 1.062716 0.294975445823947 1.03449629584402
v 1.062716 0.40891791749436 0.974290821880456
v 1.062716 0.428256603946739 0.972703543211827
v 1.062716 0.0417925786319537 0.941210113338391
v 1.062716 0.40781276867831 1.01960936368173
v 1.08963294255638 0.637931122092053 0.882173
v 1.160717 0.513117155643693 1.06121240202353
v 1.160717 0.464780706557396 1.06121240202353
v 1.062716 0.428256603946739 1.05508702088833
v 1.160717 0.365995560487883 1.06166636944369
v 1.062716 0.429846547767672 1.06815292669595
v 1.062716 0.405390663244271 1.06500827354241
v 1.062716 0.461841122715741 1.00647767362944
v 1.160717 0.4164442574711 1.06121240202353
v 1.062716 0.461841122715741 1.05508702088833
v 1.062716 0.475986525003358 1.05340890158392
v 1.062716 0.475623471677131 1.06948086800062
v 1.062716 0.524929502119331 1.05508702088833
v 1.062716 0.5748180717112 1.02088812603097
v 1.062716 0.560489967461854 1.05352405206269
v 1.062716 0.547366528123534 1.06684706917214
v 1.062716 0.573265951205628 1.06992223772961
v 1.062716 0.597026216705343 1.06584178180591
v 1.062716 0.655186919060927 1.05508702088833
v 1.062716 0.643464572757981 1.06992223772961
v 1.062716 0.0268130809390733 1.082173
v 1.062716 0.0537469964123801 1.082173
v 1.062716 0.0944502752010349 1.082173
v 1.062716 0.123485979111666 1.082173
v 1.062716 0.150419894584973 1.082173
v 1.062716 0.198756343671269 1.082173
v 1.062716 0.234910807601553 1.082173
v 1.062716 0.283247256687849 1.082173
v 1.062716 0.331583705774146 1.082173
v 1.062716 0.345076946967269 1.082173
v 1.062716 0.392102140016455 1.082173
v 1.062716 0.425607561624041 1.082173
v 1.062716 0.476593053033035 1.082173
v 1.062716 0.488775038189048 1.082173
v 1.062716 0.537111487275344 1.082173
v 1.11590311811331 0.546387617724377 1.082173
v 1.062716 0.573265951205628 1.082173
v 1.062716 0.587188494776467 1.08176770437293
v 1.13687086666305 0.0800607560994457 1.082173
v 1.062716 0.621602400291924 1.082173
v 1.08721625 0.682 0.909198220740432
v 1.062716 0.0268130809390733 0.882173
v 1.13481947980255 0.682 0.910001063763665
v 1.062716 0 0.909258979111666
v 1.062716 0 0.957868326370555
v 1.160717 0.622371238892289 1.06066402628585
v 1.062716 0 1.02131289047072
v 1.062716 0 1.03660581166528
v 1.08031346551998 0.682 0.936223441480865
v 1.11238506292007 0.682 0.937197086979107
v 1.11247509130726 0.682 0.983598780787684
v 1.11297182835032 0.682 1.05812369962816
v 1.160717 0.0151363632347629 1.04127214067979
v 1.160717 0.0601322047017528 0.942406630293788
v 1.160717 0.0262664592761979 0.957559320143181
v 1.160717 0.0619292993098715 0.991601564473049
v 1.160717 0.0614199403296972 1.04141504149381
v 1.160717 0.109901928446728 0.943330252111702
v 1.160717 0.108252500993023 0.990422715529666
v 1.160717 0.108711854575524 1.05504868338396
v 1.160717 0.158875349681188 0.943586829484766
v 1.160717 0.157070497880669 0.991642456788173
v 1.160717 0.156193308210722 1.04096694643461
v 1.160717 0.205406946966965 0.943033109529284
v 1.160717 0.204182527027417 1.00959212320845
v 1.160717 0.206769468721342 1.03848984124859
v 1.160717 0.252395426992897 0.945196893446388
v 1.160717 0.252446330904327 1.0411679904228
v 1.160717 0.302349371191761 0.944005813613619
v 1.160717 0.299583904890339 0.989983399324156
v 1.160717 0.268495326370555 1.00647767362944
v 1.160717 0.30170730820685 1.01004898827221
v 1.160717 0.352263297215756 0.941825661008529
v 1.160717 0.350416294225854 0.991642456788173
v 1.160717 0.400113617522325 0.946569680345118
v 1.160717 0.447240222463381 0.944243859715277
v 1.1117165 0.682 1.01995990481404
v 1.160717 0.449293970535051 0.991046485893329
v 1.11698912068173 0.0857375033404768 1.082173
v 1.160717 0.49559225082588 0.944465075849915
v 1.160717 0.461841122715741 0.957868326370555
v 1.160717 0.477145955739894 0.921249643845987
v 1.160717 0.426186916124572 0.922012823076631
v 1.160717 0.543116462712523 0.910408676982898
v 1.160717 0.545075406078836 0.943985284176444
v 1.160717 0.591460159013677 0.941963909622207
v 1.160717 0.60685046997463 0.909258979111666
v 1.160717 0.0240009547362406 0.902452920476096
v 1.160717 0.014394243663938 0.921590024943885
v 1.160717 0.0141531353678112 0.99184379017206
v 1.160717 0.0616164603263073 0.903376799028723
v 1.160717 0.11171648509364 0.90389939138378
v 1.160717 0.160052934179936 0.903899391383779
v 1.160717 0.208419240782211 0.903924598278623
v 1.160717 0.254246192693647 0.901998278226712
v 1.160717 0.302699701773247 0.901113951741335
v 1.160717 0.349177080874193 0.897204320857073
v 1.160717 0.397473873544488 0.898640519893114
v 1.160717 0.42003657016799 0.900992536623977
v 1.160717 0.453621088936993 0.900992536623977
v 1.13205528440544 0.682 0.96311328478287
v 1.160717 0.501957538023289 0.900992536623977
v 1.160717 0.592689057481945 0.895063641470432
v 1.160717 0.637833815822946 0.894974841338056
v 1.160717 0.0268130809390733 0.882173
v 1.160717 0.0603975997080757 0.882173
v 1.160717 0.0900201670998138 0.882173
v 1.160717 0.108734048794372 0.882173
v 1.160717 0.13835661618611 0.882173
v 1.160717 0.157070497880669 0.882173
v 1.160717 0.186693065272407 0.882173
v 1.160717 0.205406946966965 0.882173
v 1.160717 0.235029514358703 0.882173
v 1.160717 0.256001345413073 0.882173
v 1.160717 0.283365963444999 0.882173
v 1.160717 0.302079845139558 0.882173
v 1.160717 0.331702412531296 0.882173
v 1.160717 0.350416294225854 0.882173
v 1.160717 0.376890570846094 0.882173
v 1.160717 0.398752743312151 0.882173
v 1.160717 0.42003657016799 0.882173
v 1.160717 0.453621088936993 0.882173
v 1.160717 0.472209188055314 0.882173
v 1.160717 0.500142206787078 0.882173
v 1.160717 0.521899918104983 0.882173
v 1.160717 0.54376209057104 0.882173
v 1.160717 0.570236367191279 0.882173
v 1.160717 0.592098539657336 0.882173
v 1.160717 0.61881493363905 0.882173
v 1.160717 0.640434988743633 0.882173
v 1.160717 0 0.930903864001357
v 1.07922046453821 0.682 1.03306166897906
v 1.08721625 0.0509813054822215 0.882173
v 1.14295387970843 0 1.02713969085846
v 1.08721625 0.437672898172593 0.882173
v 1.14378291549366 0 1.0492648096018
v 1.160717 0 1.04025180404706
v 1.160717 0 0.946968748253964
v 1.160717 0 0.979513211260246
v 1.160717 0 0.999119914722205
v 1.160717 0.471257416941595 1.01594713041762
v 1.062716 0.486009347258889 0.933563652741111
v 1.160717 0.182968557311569 1.0175591250802
v 1.062716 0.269703728177528 0.907622272332831
v 1.062716 0.316831775456852 0.909258979111666
v 1.062716 0.364241803657259 0.909849263734894
v 1.062716 0.365168224543148 0.957868326370555
v 1.062716 0.412365035534506 0.908860925393765
v 1.062716 0.462132344675745 0.905142349593216
v 1.062716 0.46308043034527 0.957932103725153
v 1.062716 0.511345556981873 0.907725064456148
v 1.062716 0.510177571802038 0.957868326370555
v 1.062716 0.510753969661027 1.00842576862964
v 1.062716 0.558514020888334 0.909258979111666
v 1.062716 0.562623497785781 0.957357748549078
v 1.062716 0.558514020888334 1.00647767362944
v 1.062716 0.60685046997463 0.909258979111666
v 1.062716 0.0509813054822215 0.933563652741111
v 1.062716 0.604748670809389 0.972457649590826
v 1.062716 0.0529290396437151 1.04092389312901
v 1.062716 0.195990652741111 0.933563652741111
v 1.062716 0.195990652741111 1.03078234725889
v 1.062716 0.292663550913703 0.932460492784341
v 1.062716 0.534345796345186 1.03078234725889
v 1.062716 0.621602400291924 1.02131289047072
v 1.160717 0.0857529291592827 1.01634973129469
v 1.160717 0.13290227333752 1.01594713041762
v 1.160717 0.376075017169123 1.017292558955
v 1.062716 0.666540947651684 0.924524232539832
v 1.062716 0.342095015808589 0.933606855361514
v 1.062716 0.658174469272842 0.959748545050795
v 1.062716 0.389336449086296 0.933563652741111
v 1.062716 0.437355831286691 0.935086142260596
v 1.062716 0.534345796345185 0.933563652741111
v 1.062716 0.631018694517778 0.933563652741111
v 1.160717 0.569095318529913 1.01759582596582
v 1.160717 0.616769498975691 1.01716272138407
v 1.062716 0.663370075024638 0.999871813255868
v 1.062716 0.666123445232052 1.02391196208562
v 1.062716 0.666862352239861 1.03988779138704
v 1.062716 0.0751495300253697 0.882173
v 1.062716 0.682 0.924094195952938
v 1.062716 0.682 0.96609768283825
v 1.062716 0.682 0.984832788739754
v 1.062716 0.682 1.02131289047072
v 1.062716 0.244327101827407 1.03078234725889
v 1.160717 0.0371488296476816 1.01928436786531
v 1.160717 0.519593866027892 0.967337783158729
v 1.062716 0.486009347258889 0.982173
v 1.11045351573832 0.580376913344303 0.882173
v 1.062716 0.147654203654814 0.982173
v 1.10612851100582 0.606290107254425 0.882173
v 1.10637010903533 0.628484880983248 0.882173
v 1.07241936627516 0.579916554501324 0.882173
v 1.10901759347451 0.663354573700715 0.882173
v 1.062716 0.108126884062963 0.882173
v 1.062716 0.159776758189608 0.882173
v 1.062716 0.183653094790715 0.882173
v 1.062716 0.209235171942638 0.882173
v 1.1117165 0.682 0.882173
v 1.062716 0.2564496563622 0.882173
v 1.062716 0.304786105448497 0.882173
v 1.062716 0.413504673629445 0.882173
v 1.062716 0.461841122715741 0.882173
v 1.062716 0.510177571802037 0.882173
v 1.062716 0.0496833836300705 0.981492722135407
v 1.062716 0.558514020888334 0.882173
v 1.062716 0.0993177545685179 0.982173
v 1.062716 0.195990652741111 0.982173
v 1.062716 0.60685046997463 0.882173
v 1.062716 0.292663550913704 0.982173
v 1.062716 0.341 0.982173
v 1.062716 0.656489910533871 0.882173
v 1.160717 0.0857265143120485 0.968981846697415
v 1.160717 0.13290227333752 0.967337783158729
v 1.160717 0.279413800748758 0.968457845866262
v 1.160717 0.419049024534939 0.968941295213398
v 1.160717 0.569095318529913 0.968986478706928
v 1.160717 0.61637167753002 0.967890265337554
v 1.062716 0.534345796345186 0.982172999999999
v 1.062716 0.24386857032479 0.982613028419489
v 1.160717 0.303409850151714 1.05469403748312
v 1.062716 0.0406348713494857 0.964065567377212
v 1.160717 0.350329232512238 1.04231798050929
v 1.160717 0.398752743312151 1.00647767362944
v 1.160717 0.398752743312151 1.04025180404706
v 1.160717 0.447089192398447 1.04025180404706
v 1.160717 0.4972984862968 1.04230542787611
v 1.160717 0.507763864701785 0.992597198675925
v 1.160717 0.540464546499472 0.994019171450446
v 1.160717 0.545157902080728 1.04119597637975
v 1.160717 0.592519373095363 0.990937992156183
v 1.160717 0.592837107337261 1.03922986572666
v 1.160717 0.640434988743633 0.991642456788173
v 1.160717 0.640434988743633 1.04025180404706
v 1.160717 0.654824321853417 0.905969990584504
v 1.062716 0.141804412970296 0.897218381677813
v 1.160717 0.364350941421917 0.911859674583861
v 1.160717 0.508662779794863 0.912603054764642
v 1.062716 0.288100139185841 0.895777072387434
v 1.062716 0.239826992434815 0.896862934515724
v 1.062716 0.424494097533021 0.940892530266546
v 1.160717 0.25947847915335 0.975239595541058
v 1.062716 0.203366617899758 0.916676587532302
v 1.062716 0.638394659676426 0.916676587532302
v 1.160717 0.384937337337452 0.913979285335741
v 1.13224218009145 0.413785481902875 1.082173
v 1.160717 0.0845658242512239 0.922012823076631
v 1.160717 0.13290227333752 0.922012823076631
v 1.160717 0.181238722423817 0.922012823076631
v 1.160717 0.280197896883547 0.922911446726806
v 1.160717 0.326248069682706 0.922012823076631
v 1.160717 0.229575171510113 0.922012823076631
v 1.160717 0.181238722423817 1.06121240202353
v 1.160717 0.0380047189278325 1.06215816688065
v 1.160717 0.0849966402475897 1.06311602879229
v 1.160717 0.137514217759759 1.06127298513868
v 1.160717 0.328296077160757 1.06067836039756
v 1.160717 0.230443853736423 1.05533707305428
v 1.062716 0.0509813054822215 0.903133597976469
v 1.062716 0.0992857270999562 0.901899904024976
v 1.062716 0.408191215760132 0.940524814859129
v 1.160717 0.107759820728641 1.02475559665214
v 1.062716 0.606236264422258 0.941273140589716
v 1.062716 0.315273085314447 0.988250454976707
v 1.160717 0.205406946966965 0.974755391579364
v 1.160717 0.398752743312151 0.974755391579364
v 1.13621675 0.682 1.00489583579613
v 1.160717 0.650659627835103 1.082173
v 1.160717 0.615219889700903 1.082173
v 1.160717 0.682 0.917488335579361
v 1.160717 0.682 0.951262465996979
v 1.160717 0.682 0.984832788739754
v 1.160717 0.682 1.0249588828525
v 1.11443602726979 0.0518401087420102 1.082173
v 1.160717 0.478633382100242 0.991642456788173
v 1.160717 0.241040556488669 1.00639138450406
v 1.062716 0.635264313761209 0.989907865967683
v 1.13606632263872 0.50392565249563 0.882173
v 1.14824140930268 0.156049664468428 1.082173
v 1.08705157430493 0 0.928566653460821
v 1.09340400383279 0 0.978880715213454
v 1.13136506686242 0.341 1.082173
v 1.1117165 0 1.082173
v 1.160717 0.0247833655122964 1.082173
v 1.160717 0.0612167062357224 1.082173
v 1.160717 0.108734048794372 1.082173
v 1.160717 0.164531756528449 1.082173
v 1.160717 0.206255340141335 1.082173
v 1.160717 0.253743396053261 1.082173
v 1.16053281789939 0.300263036006482 1.082173
v 1.160717 0.337462873457457 1.082173
v 1.160717 0.383984236089415 1.082173
v 1.160717 0.434135771630049 1.082173
v 1.160717 0.482472220716346 1.082173
v 1.160717 0.530522407409772 1.082173
v 1.160717 0.577078516635368 1.082173
v 1.08143652295192 0.682 1.00384818172246
v 1.160717 0.133641331254803 1.082173
v 1.062716 0.682 1.05174294523536
v 1.062716 0.651801200145962 1.082173
v 1.062716 0.334977164995822 0.882173
v 1.13621675 0.188614687582464 1.082173
v 1.13621675 0.0436053403235745 0.882173
v 1.13401993270276 0.285738520703451 1.082173
v 1.13621675 0.285287585755057 0.882173
v 1.13346812535559 0.233948549868765 1.082173
v 1.062716 0.491684805497029 1.02998826757962
v 1.160717 0.524495473942518 1.0177693549966
v 1.062716 0.106693719727165 1.03078234725889
v 1.062716 0.592341105810239 0.998718480164334
v 1.062716 0.396880979683609 0.999641289076019
v 1.160717 0.661881310289419 1.06281595989699
v 1.160717 0.658375506499738 1.01744683395303
v 1.160717 0.520148050205665 0.924479932651879
v 1.062716 0.142792777127279 0.939626486357625
v 1.062716 0.0993177545685187 0.940901444023393
v 1.062716 0.437672898172593 1.03819995567952
v 1.160717 0.325620129107286 1.02449500860431
v 1.160717 0.567930315114188 0.926146044320475
v 1.160717 0.42272749443636 1.0265562641618
v 1.160717 0.229575171510113 1.02336473883825
v 1.062716 0.384796364547402 0.986391117182619
v 1.062716 0.57932819522511 0.985197327753028
v 1.062716 0.355757014891539 1.03523949713154
v 1.160717 0.661570396066584 0.966077806926113
v 1.09601498275999 0.682 1.0091374623692
v 1.128597310073 0 0.982798963166858
v 1.09601498275999 0.682 0.960528115110309
v 1.09830131027994 0.368842846377573 1.082173
v 1.09610313278881 0.416270364559603 1.082173
v 1.100152556776 0.561011589027416 1.082173
v 1.09610313278881 0.609616160904789 1.082173
v 1.09610313278881 0.657952609991085 1.082173
v 1.12586606290146 0.410150296624074 0.882173
v 1.13839674855102 0.682 1.04488835899133
v 1.062716 0.27260534325993 1.03491556850273
v 1.062716 0.175932445087337 1.03491556850273
v 1.13621675 0.600333913031272 1.082173
v 1.160717 0.682 1.05356594142625
v 1.062716 0.248437118716781 1.05922024213218
v 1.062716 0.123485979111666 1.03491556850273
v 1.160717 0.0300302297696758 0.929334122317644
v 1.07151473275999 0.682 0.909198220740432
v 1.062716 0.151366243230878 1.06168429187517
v 1.09267039432329 0 1.0647656483463
v 1.08843395252447 0.682 1.06558535251212
v 1.13458401488701 0 1.06399072157807
v 1.13621675 0.682 1.06863001044417
v 1.13351987733937 0 0.897366810052583
v 1.08721625 0.400037715892791 0.882173
v 1.08721625 0.496710614065384 0.882173
v 1.08702875538933 0.0157967697216006 0.882173
v 1.062716 0.389336449086296 0.895715989555833
v 1.062716 0.584402892138324 0.901642423337193
v 1.11175702178382 0.682 0.909623069572795
v 1.160717 0.0436053403235745 0.922012823076631
v 1.062716 0.333624034841353 1.04233317692337
v 1.1117165 0.02687349820619 1.082173
v 1.160717 0.560420303603204 1.06121240202353
v 1.08620622797944 0.476185428690453 0.882173
v 1.08721625 0.520878838608532 0.882173
v 1.08447795886803 0.619333114471027 0.882173
v 1.08615634600205 0.377048331359065 0.882173
v 1.09073617813919 0.41985950880617 0.882173
v 1.062716 0.633824358464072 1.04581401883175
v 1.13797435315375 0.326884116667111 1.082173
v 1.13621675 0.682 0.926855888530113
v 1.08721625 0.682 0.975465235789002
v 1.13621675 0.444264148089713 0.882173
v 1.13621675 0.179257746735185 0.882173
v 1.13132393460665 0.471167795452177 0.882173
v 1.134167703097 0.084069313656694 0.882173
v 1.1343643028612 0.133565721548938 0.882173
v 1.13503037785469 0.229244943982548 0.882173
v 1.13758731182338 0.422742669232143 0.882173
v 1.0845106798653 0 1.01252182646226
v 1.1363452532296 0.259066321572939 1.082173
v 1.13712559850683 0.308585327829481 1.082173
v 1.13445192383583 0.16016385776865 0.882173
v 1.13767965569951 0.25973965809949 0.882173
v 1.1382011334168 0.308761041444559 0.882173
v 1.13838233619983 0.114586180330196 1.082173
v 1.13405701927549 0.11199094815118 0.882173
v 1.13679431147477 0.210216601053999 1.082173
v 1.13455210488608 0.209059160266682 0.882173
v 1.062716 0.0310670008222 1.04252166697422
v 1.160717 0.5032315594054 1.01675717695931
v 1.062716 0.0825254951840167 1.03078234725889
v 1.062716 0.515970755301711 1.03059084479113
v 1.160717 0.50280160664339 0.967337783158729
v 1.062716 0.613339019330962 0.997610625635048
v 1.08721625 0.117009268727467 0.882173
v 1.160717 0.181276891341149 0.995523803357636
v 1.062716 0.147654203654814 0.916676587532302
v 1.062716 0.0509813054822215 0.916676587532302
v 1.062716 0.0509813054822215 1.01389528205008
v 1.062716 0.290287603087612 1.01396307733641
v 1.062716 0.341666282472745 1.01470918052259
v 1.062716 0.389336449086296 0.965285934791191
v 1.062716 0.434584480227412 1.01532130926513
v 1.160717 0.0845658242512239 1.0476694124677
v 1.160717 0.13092519238894 1.0457846657923
v 1.160717 0.27791162059641 1.0476694124677
v 1.160717 0.325596053641342 1.00345463276658
v 1.160717 0.374461771582679 0.996606057863421
v 1.160717 0.425017149423002 1.00017551306297
v 1.160717 0.567930315114188 0.90184137069103
v 1.062716 0.582682245431482 0.965285934791191
v 1.062716 0.632062145397685 0.961825167401768
v 1.160717 0.326248069682706 1.0476694124677
v 1.062716 0.586792262320856 1.04233317692337
v 1.160717 0.668593459530463 0.930260722554322
v 1.13421727461799 0.578483570242068 1.082173
v 1.13610865244241 0.459035038140501 0.882173
v 1.062716 0.631670190254251 0.882173
v 1.13621675 0.0570722980602279 1.082173
v 1.08837703632196 0.659823287270415 0.882173
v 1.13621675 0.682 1.02245939383327
v 1.062716 0.135154658266438 0.882173
v 1.062716 0.222072989772095 0.903133597976469
v 1.08796575265798 0 0.882173
v 1.13621675 0 0.882233758371234
v 1.08721625 0.682060417267117 1.082173
v 1.13621675 0.682060417267117 1.082173
v 1.08721625 0 1.082173
v 1.08721625 0.682 0.882173
v 1.13621675 0 1.082173
v 1.13621675 0.682 0.882173
v 1.08627829032963 0.0311361164941802 0.882173
v 1.13720553428695 0.0276744730250514 0.882173
v 1.08721625 0.0751495300253697 0.882173
v 1.08532053124245 0.458244600299625 0.882173
v 1.08721625 0.558514020888334 0.882173
v 1.13621675 0.682 0.984832788739754
v 1.08497241251392 0.604813053620019 0.882173
v 1.12255959531757 0.101277537290341 1.082173
v 1.160717 0.326012065426047 0.900683662794724
v 1.160717 0 0.906538432000678
v 1.10784855412132 0 0.930408073086885
v 1.1117165 0 1.03078234725889
v 1.062716 0.169896106566362 0.936929722351396
v 1.062716 0.220158877284259 1.03078234725889
v 1.062716 0.269677726853781 0.932655632112663
v 1.062716 0.316831775456852 0.933563652741111
v 1.062716 0.379920154860442 1.04561756410016
v 1.062716 0.46295337184009 1.03286598032117
v 1.062716 0.558514020888334 1.03078234725889
v 1.062716 0 0.933563652741111
v 1.160717 0.0603975997080757 1.01594713041762
v 1.160717 0.157263623784655 1.0148674284427
v 1.160717 0.301479739590271 1.03060462587354
v 1.160717 0.347410793220755 0.918267477093893
v 1.160717 0.35259534786519 1.01522907565217
v 1.160717 0.39981990154985 0.921289219694392
v 1.160717 0.447089192398447 1.01594713041762
v 1.160717 0.586650554035195 0.918096393160675
v 1.062716 0.364710758720621 0.934035758426852
v 1.062716 0.462796966127252 0.932216357456798
v 1.062716 0.510105728715393 0.934096040519606
v 1.062716 0.558514020888334 0.933563652741111
v 1.160717 0.54376209057104 1.01594713041762
v 1.160717 0.593206230937921 1.01330547866791
v 1.160717 0.640434988743633 1.01594713041762
v 1.1117165 0 0.982173
v 1.062716 0.0751495300253697 0.982173
v 1.062716 0.123485979111666 0.982173
v 1.062716 0.171822428197963 0.982173
v 1.062716 0.220087043739606 0.982263397049489
v 1.062716 0.268393387588114 0.983180712541497
v 1.062716 0.365168224543148 0.982173
v 1.062716 0.421220306954696 0.996827376428423
v 1.062716 0.461841122715741 0.982173
v 1.11248516772095 0.682 0.96079633555908
v 1.160717 0.0624500946797122 0.966044890870656
v 1.160717 0.109736723850315 0.964844621514033
v 1.160717 0.155299184008961 0.965546224442916
v 1.160717 0.300293802987529 0.96726841039207
v 1.160717 0.348198993118645 0.967255182037496
v 1.160717 0.443333867097009 0.965858024984538
v 1.160717 0.544502456009784 0.966900217904499
v 1.160717 0.592120375417299 0.966960839207954
v 1.062716 0.510177571802037 0.982173
v 1.062716 0.557459500158003 0.984609413939712
v 1.10068051058638 0.525339099369531 1.082173
v 1.10254204782119 0.477111258406938 1.082173
v 1.08139130533497 0.51220170543863 1.082173
v 1.1117165 0.507411880871879 0.882173
v 1.062716 0.48608107615101 1.00469385699075
v 1.062716 0.512943262732196 1.082173
v 1.160717 0.471825317619886 0.942165160244847
v 1.160717 0.519593866027892 0.943033109529284
v 1.160717 0.477789313480141 0.900992536623977
v 1.062716 0.486091424724757 0.910913062450429
v 1.062716 0.486009347258889 0.957868326370555
v 1.062716 0.486009347258889 0.882173
v 1.160717 0.473689873497772 1.04229930883389
v 1.160717 0.522696415852214 1.04327404835085
v 1.160717 0.181238722423817 0.943033109529284
v 1.160717 0.181238722423817 1.04025180404706
v 1.11524878209462 0.145010404368487 0.882173
v 1.062716 0.148556823381238 0.962272594073397
v 1.062716 0.148324883731599 1.00588124544485
v 1.08048976557761 0.174588119128121 1.082173
v 1.08048976557761 0.222924568214418 1.082173
v 1.08048976557761 0.271261017300714 1.082173
v 1.07791360959999 0.321826621581766 1.082173
v 1.08048976557761 0.367933915473307 1.082173
v 1.08048976557761 0.416270364559603 1.082173
v 1.07844293419305 0.465101117799515 1.082173
v 1.08110921424074 0.564163002130146 1.082173
v 1.08090110719422 0.611031263503738 1.082173
v 1.1117165 0.0509813054822215 0.882173
v 1.11299280782898 0.098382889856519 0.882173
v 1.11439878640543 0.193384533619153 0.882173
v 1.1117165 0.292663550913704 0.882173
v 1.1117165 0.341 0.882173
v 1.14614082653573 0.360648050975747 0.882173
v 1.1117165 0.410738982699286 0.882173
v 1.062716 0.0493034494188117 1.00137521620925
v 1.062716 0.0993177545685179 0.924094195952937
v 1.062716 0.0993177545685179 0.957868326370555
v 1.062716 0.0990358024701889 1.00490497969643
v 1.062716 0.195990652741111 0.957868326370555
v 1.062716 0.195990652741111 1.00647767362944
v 1.062716 0.292663550913704 0.957868326370555
v 1.062716 0.337890009547141 0.957091448618494
v 1.062716 0.500761277576183 1.05508702088833
v 1.062716 0.597174665044141 1.01931462723157
v 1.062716 0.174588119128121 1.082173
v 1.062716 0.305695415194009 1.082173
v 1.06297031986821 0.368167766924508 1.082173
v 1.062716 0.454810047510576 1.082173
v 1.062716 0.0509813054822215 0.882173
v 1.160717 0.0350381751150432 1.03909634467422
v 1.160717 0.0845658242512239 0.943033109529284
v 1.160717 0.0831502849347534 0.993544055723403
v 1.160717 0.13290227333752 0.943033109529284
v 1.160717 0.13290227333752 0.991642456788173
v 1.160717 0.279556343868722 0.94699072474941
v 1.160717 0.326985733322781 0.948399603706699
v 1.160717 0.373651058747651 0.942029414577829
v 1.160717 0.422920967855299 0.943033109529284
v 1.160717 0.567930315114188 0.943033109529284
v 1.160717 0.632697193669384 0.910261148235374
v 1.160717 0.0845658242512239 0.900992536623977
v 1.160717 0.13290227333752 0.900992536623977
v 1.160717 0.181238722423817 0.900992536623977
v 1.160717 0.27791162059641 0.900992536623977
v 1.160717 0.618126720462957 0.896025629408324
v 1.062716 0.292663550913704 0.909258979111666
v 1.062716 0.341624801314552 0.911899984904755
v 1.062716 0.438833877844677 0.910523182630713
v 1.062716 0.536059206805777 0.909651314989858
v 1.062716 0.534671553237298 0.957906945977101
v 1.062716 0.531210505133258 1.00698012121617
v 1.062716 0.643859701180317 1.01703105855135
v 1.062716 0.389336449086296 0.882173
v 1.062716 0.437672898172593 0.882173
v 1.062716 0.534345796345186 0.882173
v 1.062716 0.582682245431482 0.882173
v 1.160717 0.374584518769002 1.04025180404706
v 1.160717 0.567930315114188 0.991642456788173
v 1.160717 0.567930315114188 1.04025180404706
v 1.160717 0.616266764200485 0.991642456788173
v 1.160717 0.614910139225422 1.04096394915795
v 1.160717 0.0845658242512239 1.082173
v 1.160717 0.27791162059641 1.082173
v 1.160717 0.361631098000605 1.082173
v 1.160717 0.409967547086901 1.082173
v 1.160717 0.458303996173198 1.082173
v 1.160717 0.508940231584932 1.082173
v 1.11504554150301 0.241296413174256 0.882173
v 1.062716 0.241860735702605 0.959043677188784
v 1.062716 0.243723287646286 1.00600796065269
v 1.062716 0.259079032144701 1.082173
v 1.160717 0.233299959048911 0.903968627795667
v 1.160717 0.0362293751649275 0.991642456788173
v 1.160717 0.22964889870842 0.94223668092651
v 1.062716 0.282035713540903 0.882173
v 1.160717 0.229575171510113 1.082173
v 1.062716 0 0.997237069017916
v 1.14119714033249 0.638443614967076 1.082173
v 1.160717 0.60293978293218 1.06064398426062
v 1.09266453765161 0.590679983679956 0.882173
v 1.09206793313758 0.158355470461309 0.882173
v 1.09053640249633 0.302189041324774 0.882173
v 1.09206793313758 0.351701266806495 0.882173
v 1.08839704901335 0.205913964200351 0.882173
v 1.09108570128469 0.254922045058102 0.882173
v 1.062716 0.25141695064004 0.940368756315165
v 1.160717 0.0436053403235745 0.974755391579364
v 1.062716 0.443076793232952 0.991169360949012
v 1.062716 0.233477314610821 0.88247367304532
v 1.09046463078799 0 0.995680325861055
v 1.062716 0.610109728727996 1.04541108449363
v 1.062716 0.0212890223952333 1.05408995329551
v 1.14441179883996 0.670849007023848 1.082173
v 1.160717 0.381203087924062 0.927818082146963
v 1.160717 0.553943593219005 1.082173
v 1.1161599413944 0.414694660191428 1.082173
v 1.160717 0.120818161065946 1.03551707565298
v 1.062716 0.399569571200913 0.951829675569869
v 1.062716 0.303540376698335 1.00066493906701
v 1.062716 0.325560775462587 1.00154484411563
v 1.160717 0.407987484181295 0.988796042815545
v 1.062716 0.260521230988355 1.04706790531746
v 1.160717 0.488295581983028 1.0044541269734
v 1.062716 0 1.05938940583264
v 1.098703558313 0.451595411515793 1.082173
v 1.09858067294296 0.500881498312079 1.082173
v 1.160717 0.614487187644376 0.946027333597292
v 1.09303329702292 0.182041291629573 0.882173
v 1.09243074223033 0.135034326209769 0.882173
v 1.09428722828488 0.22740092931948 0.882173
v 1.09206793313758 0.27919659317705 0.882173
v 1.09226056125674 0.323555384569577 0.882173
v 1.09261672607576 0.57333407347295 0.882173
v 1.160717 0.223595522378304 0.959437726022819
v 1.160717 0.221179041817863 0.990616532604404
v 1.160717 0.24905346091667 0.991307900757843
v 1.160717 0.639831091864261 0.965671579655816
v 1.160717 0.583405604096573 1.06048637023835
v 1.062716 0.66330654336533 0.903254737292987
v 1.160717 0.538551068945117 1.06279021768923
v 1.160717 0.488948931100545 1.06121240202353
v 1.160717 0.345436838757841 1.05983223300693
v 1.160717 0.389806897111798 1.06270456511538
v 1.160717 0.444379148727802 1.06082838456714
v 1.062716 0.116666727417359 0.901037682525966
v 1.160717 0.159376795452738 1.06198947229223
v 1.160717 0.0184222580670379 1.06121240202353
v 1.062716 0.030700376564732 0.976998444556206
v 1.160717 0.645547308289368 1.06121240202353
v 1.062716 0.44504886333124 1.06863001044417
v 1.0799059581664 0 1.04837628448165
v 1.160717 0.622957556362776 0.926536353885082
v 1.160717 0.658723401636028 0.946200021915124
v 1.062716 0.659278497042783 0.978870069813212
v 1.062716 0.579416297162209 1.05922024213218
v 1.160717 0.49529681116963 0.919280085559105
v 1.062716 0.405707584136101 1.04141875305104
v 1.11982635733471 0.338025850149223 1.082173
v 1.12209136144459 0.372862080642045 1.082173
v 1.160717 0.661217494371816 0.988237622763964
v 1.062716 0.314813671180998 1.03949612770142
v 1.160717 0.0603975997080757 0.922012823076631
v 1.160717 0.108734048794372 0.922012823076631
v 1.160717 0.157070497880669 0.922012823076631
v 1.160717 0.205406946966965 0.922012823076631
v 1.160717 0.253743396053261 0.922012823076631
v 1.160717 0.302079845139558 0.922012823076631
v 1.062716 0.682 0.945095939395594
v 1.062716 0.682 0.903133597976469
v 1.160717 0 1.06121240202353
v 1.160717 0.0603975997080757 1.06121240202353
v 1.160717 0.203988200856529 1.06119748046327
v 1.160717 0.254740603312627 1.06494624045934
v 1.062716 0.0751495300253697 0.903133597976469
v 1.160717 0.661217494371816 0.882173
v 1.12536781167886 0 0.946010360342839
v 1.12741801724001 0 1.04160478970373
v 1.09716117146512 0.333197306780983 1.082173
v 1.09610313278881 0.136952936848319 1.082173
v 1.1289040127187 0.353317553867712 0.882173
v 1.12108520403018 0.641162341035086 0.882173
v 1.1406601913944 0.619861013637661 1.082173
v 1.09812957770424 0.0115685991653709 1.082173
v 1.10054657418321 0.638003196044729 1.082173
v 1.062716 0.204072471757357 1.06171314368286
v 1.1396277542356 0.656109134725901 1.082173
v 1.160717 0 1.02006180865147
v 1.07160288278881 0.555188719240486 1.082173
v 1.07160288278881 0.410179371981597 1.082173
v 1.062716 0.432964751059666 0.953133597976469
v 1.14281746742961 0.531298800765897 1.082173
v 1.13864010182644 0.436950278398418 1.082173
v 1.1406601913944 0.484047925084521 1.082173
v 1.160717 0.682 1.00489583579613
v 1.062716 0.294352252603129 1.06371833126295
v 1.062716 0.136961273100432 1.04890390501519
v 1.062716 0.137625099827927 1.02069662106609
v 1.062716 0.215450730171332 0.928828924347024
v 1.062716 0.649983032187851 0.931669680952508
v 1.1161599413944 0.60497503696803 1.082173
v 1.12908272758456 0.0630060481949891 0.882173
v 1.160717 0.171757196415675 0.958856561214556
v 1.160717 0.193322834695391 0.958894250554324
v 1.160717 0.362500406497428 0.958894250554324
v 1.160717 0.383671934048605 0.958814910572925
v 1.160717 0.391486239246311 0.989240872695579
v 1.160717 0.314163957411132 1.03922587986329
v 1.160717 0.0181520372649253 0.939137359031824
v 1.09592762079042 0.0929161900014931 0.882173
v 1.13267600643107 0.388832056480415 1.082173
v 1.09263150314901 0 1.03281136558421
v 1.0921560831664 0 0.909258979111666
v 1.08938013435184 0 0.952415165293353
v 1.160717 0.0419571211574398 0.895542728583193
v 1.160717 0.435885910701758 0.89519270799129
v 1.160717 0.596149203168135 1.082173
v 1.12574842548528 0 0.918235784425917
v 1.12755499587641 0 1.01470960398423
v 1.09389299116914 0.682 1.04737905088408
v 1.062716 0.0150411594727132 0.898478680030913
v 1.062716 0.190552189697048 0.906196288544067
v 1.160717 0.55699922888116 0.895715989555833
v 1.062716 0.622696403907882 0.892517742320589
v 1.124978148113 0.575385689580919 0.882173
v 1.12119677768964 0.622221400512944 0.882173
v 1.12732986721119 0.327533042263347 0.882173
v 1.09610313278881 0.161121161391468 1.082173
v 1.09610313278881 0.209457610477764 1.082173
v 1.09961604889645 0.109079529736549 1.082173
v 1.09846315580349 0.30755123549122 1.082173
v 1.14361519186242 0.133264954268996 1.082173
v 1.062716 0.300284357805302 1.04878172808919
v 1.062716 0.0251141029352458 0.932881006822309
v 1.062716 0.0235715453480261 0.946565206693135
v 1.062716 0.0577719569175145 0.951658582997373
v 1.099466375 0.648830066818849 0.882173
v 1.160717 0.497794688180019 1.07169270101177
v 1.062716 0.422816150470877 1.0343878243463
v 1.160717 0.261119361211908 1.02336473883825
v 1.062716 0.227534842442906 0.940981261161746
v 1.160717 0.603950636915171 0.927367282675018
v 1.160717 0.0220645782939337 0.976006504591339
v 1.062716 0.662562884219574 0.940981261161747
v 1.13827530030487 0.552810118743629 1.082173
v 1.12409770742936 0.0689272366007039 1.082173
v 1.144833212948 0.0974226219581949 1.082173
v 1.160717 0.0427916382066878 0.948227920468184
v 1.062716 0.250658522739635 0.917201457342155
v 1.062716 0.446698091268541 0.96433197678621
v 1.160717 0.283400282407422 0.99524092004626
v 1.062716 0.111517942464733 1.04501725504385
v 1.062716 0.682 1.00307283960523
v 1.09993889301946 0.682 0.924624495961548
v 1.09917869480194 0.682 0.895134931341395
v 1.12289662732246 0.682 0.922831027808034
v 1.12373599767173 0.682 0.896145311469453
v 1.062716 0.191094098222143 1.04623591582795
v 1.062716 0.555188719240486 1.082173
v 1.062716 0.603525168326783 1.082173
v 1.062716 0.216833575636411 1.082173
v 1.062716 0.0718426016910082 1.082173
v 1.062716 0.410179371981597 1.082173
v 1.062716 0.063917265349052 1.02104946029592
v 1.062716 0.0667534003331191 1.05406109670457
v 1.160717 0.245347266361011 0.958894250554324
v 1.160717 0.187599829869075 1.082173
v 1.160717 0.0425904826101861 1.082173
v 1.160717 0.632939758768003 1.082173
v 1.160717 0.319771359298507 1.082173
v 1.062716 0.092841044184319 0.882173
v 1.160717 0.682 0.89983066778968
v 1.062716 0.0343028297855135 0.925234546225029
v 1.160717 0.525297309297232 0.907543080481599
v 1.11126063468262 0.682 1.03816633985848
v 1.1117165 0.682 1.0023963467769
v 1.160717 0.219183990932515 0.892220773028382
v 1.062716 0.647198433628514 1.03736035543973
v 1.10429984213965 0.0720583163207265 1.082173
v 1.07382808028775 0.271768576197262 0.882173
v 1.160717 0.529681512597983 0.895051623605331
v 1.062716 0.161793324371076 1.02069662106609
v 1.07781581937318 0.682 0.956710374639202
v 1.062716 0.106693719727165 1.05922024213218
v 1.14559060704894 0.682 0.937286761801587
v 1.160717 0.460806278804658 0.932522966302957
v 1.160717 0.44122776080421 0.911233799595012
v 1.13004050506419 0.682 0.946821526218508
v 1.14788600127293 0.682 0.972293903603771
v 1.148466875 0.432150359128852 0.882173
v 1.09555941588088 0.543964987814987 0.882173
v 1.10009783405128 0.0396693166634364 0.882173
v 1.099466375 0.0630654177537956 0.882173
v 1.09939369167687 0.448108874763801 0.882173
v 1.160717 0.459132361662036 1.02854889195117
v 1.062716 0.545042497463929 1.0427552040438
v 1.160717 0.604881108230974 1.02839626481733
v 1.160717 0.169853066454307 1.02839626481733
v 1.160717 0.483341529213169 1.02809946723234
v 1.062716 0.206516813675891 1.04547836007751
v 1.160717 0.0724817119796498 1.02809946723234
v 1.160717 0.141070756074488 1.02911351793256
v 1.160717 0.363198862799493 1.02839626481733
v 1.160717 0.556544659144676 1.02839626481733
v 1.062716 0.643102806789353 0.945715989555833
v 1.062716 0.183906540469537 0.921411315926388
v 1.062716 0.210290721025073 0.944159699898991
v 1.062716 0.280098177363649 0.946360312420936
v 1.062716 0.303641414565299 0.94482300080042
v 1.062716 0.280579438642129 0.921411315926388
v 1.062716 0.304747663185278 0.921411315926388
v 1.062716 0.378198526813947 0.947067277252695
v 1.062716 0.401420561357871 0.921411315926388
v 1.062716 0.425310898550315 0.922007391534411
v 1.062716 0.448755031703744 0.948101202358906
v 1.062716 0.619005530937453 0.926139310210623
v 1.160717 0.604182651928911 0.955185446344006
v 1.160717 0.604182651928911 0.979490119973451
v 1.062716 0.179624985019556 1.01955570907628
v 1.160717 0.096649936522798 1.0037947936029
v 1.160717 0.120818161065946 1.0037947936029
v 1.160717 0.510146154358444 0.954864397291114
v 1.062716 0.0629844964030475 0.969405853515723
v 1.062716 0.0630654177537956 0.994325336814722
v 1.062716 0.0872336422969438 0.970020663185278
v 1.062716 0.0872336422969438 0.994325336814722
v 1.062716 0.111323123474003 0.993263892235274
v 1.062716 0.280579438642129 0.970020663185278
v 1.062716 0.280579438642129 0.994325336814722
v 1.062716 0.303774986016418 0.970053378400497
v 1.160717 0.073180167279226 0.979786917243795
v 1.160717 0.120818161065946 0.979490119973451
v 1.160717 0.322476502042762 0.97786247812106
v 1.160717 0.433351638302569 0.980932585268563
v 1.062716 0.256411214098981 0.970020663185278
v 1.062716 0.0388971932106474 1.03346522728544
v 1.160717 0.556544659144677 0.979786917558438
v 1.09618664934784 0.682 1.02606701419037
v 1.09977958596981 0.0924708380442226 1.082173
v 1.062716 0.0751495300253697 0.940981261161746
v 1.062716 0.119200371469437 0.939087377137386
v 1.160717 0.54376209057104 0.926146044320475
v 1.160717 0.0436053403235745 0.882173
v 1.062716 0.333624034841353 1.06335346337602
v 1.062716 0.44504886333124 1.05508702088833
v 1.160717 0.284781592445548 1.00942017362035
v 1.160717 0.436828829552491 0.882173
v 1.160717 0.682 0.968047627368366
v 1.062716 0.0111350705369269 0.9417826515475
v 1.160717 0.516917375958018 0.899499897271157
v 1.062716 0.300315628581161 0.896651914437512
v 1.148466875 0.11982767322163 0.882173
v 1.148466875 0.216500571394223 0.882173
v 1.062716 0.378910352476756 1.00196326456073
v 1.062716 0.572857338531994 1.00258940250226
v 1.062716 0.284689455531504 1.04913451593938
v 1.062716 0.253717640513426 0.902469647099401
v 1.062716 0.417594880521785 0.956514924683676
v 1.062716 0.413855907697171 0.926870364903321
v 1.160717 0.0724817119796498 0.932522966302957
v 1.160717 0.0957211939948436 0.91221612300004
v 1.160717 0.120818161065946 0.932522966302957
v 1.160717 0.144043160570924 0.912197063288444
v 1.160717 0.169154610152243 0.932522966302957
v 1.160717 0.192397312174822 0.912211396242128
v 1.160717 0.21947394352752 0.932257723442952
v 1.160717 0.120818161065946 1.07169270101177
v 1.160717 0.0457478527699469 1.05017987375507
v 1.062716 0.582536985967838 0.923336138998261
v 1.062716 0.316831775456852 0.973729467395596
v 1.062716 0.620144402028884 0.9807707997177
v 1.09610313278881 0.173205273663042 1.082173
v 1.12584576624248 0.553895157086742 0.882173
v 1.12536833356176 0.600952624521088 0.882173
v 1.08376485775999 0.682 1.01825748780194
v 1.07873942722378 0.594569584681784 0.882173
v 1.099466375 0.682 0.993952814172494
v 1.062716 0.350072694769485 0.882173
v 1.12193386007462 0.450646138356045 0.882173
v 1.148466875 0.197010817274714 0.882173
v 1.148466875 0.100337919102122 0.882173
v 1.148466875 0.148674368188418 0.882173
v 1.14791693337704 0.243738334655294 1.082173
v 1.062716 0.162960893602797 0.895492008140112
v 1.160717 0.220218230662834 0.882173
v 1.062716 0.177737761494339 0.895715989555833
v 1.062716 0.485441298261513 1.04445360362282
v 1.160717 0.281531780057151 1.02346268130192
v 1.160717 0.508758123635733 0.934276665795617
v 1.062716 0.449757010444167 1.04664348828393
v 1.160717 0.473925234987315 0.96631185897496
v 1.14660796381423 0.486289277006373 0.882173
v 1.160717 0.651394894281083 0.97807737068459
f 1 177 488
f 1 840 177
f 1 557 179
f 1 179 840
f 1 488 557
f 2 9 156
f 2 561 9
f 2 156 89
f 2 89 744
f 2 481 561
f 2 771 481
f 2 744 771
f 3 562 348
f 3 348 759
f 3 479 562
f 3 789 479
f 3 759 789
f 4 435 436
f 4 482 435
f 4 436 559
f 4 559 482
f 5 240 223
f 5 223 574
f 5 566 240
f 5 485 558
f 5 574 485
f 5 558 566
f 6 420 563
f 6 767 420
f 6 563 483
f 6 483 790
f 6 790 767
f 7 795 564
f 7 564 891
f 7 891 795
f 8 404 448
f 8 733 404
f 8 448 475
f 8 475 484
f 8 484 560
f 8 560 733
f 9 10 156
f 9 494 10
f 9 803 494
f 9 561 803
f 10 11 157
f 10 898 11
f 10 157 156
f 10 494 410
f 10 410 898
f 11 12 158
f 11 958 12
f 11 881 157
f 11 158 881
f 11 898 958
f 12 13 159
f 12 849 13
f 12 159 158
f 12 958 849
f 13 14 159
f 13 799 14
f 13 31 799
f 13 849 31
f 14 799 32
f 14 32 847
f 14 160 159
f 14 665 160
f 14 639 665
f 14 847 639
f 15 34 848
f 15 991 34
f 15 161 665
f 15 880 161
f 15 665 639
f 15 639 991
f 15 848 640
f 15 640 880
f 16 36 37
f 16 640 36
f 16 37 641
f 16 162 640
f 16 711 162
f 16 641 711
f 17 37 38
f 17 641 37
f 17 38 850
f 17 163 641
f 17 666 163
f 17 642 666
f 17 850 642
f 18 128 465
f 18 798 128
f 18 165 164
f 18 164 642
f 18 667 165
f 18 465 643
f 18 642 798
f 18 643 667
f 19 465 40
f 19 40 466
f 19 166 667
f 19 809 166
f 19 643 465
f 19 466 644
f 19 667 643
f 19 644 809
f 20 46 469
f 20 560 46
f 20 469 105
f 20 105 806
f 20 733 560
f 20 806 733
f 21 167 644
f 21 668 167
f 21 644 466
f 21 466 745
f 21 645 668
f 21 745 645
f 22 745 107
f 22 107 812
f 22 110 621
f 22 813 110
f 22 621 745
f 22 812 706
f 22 706 813
f 23 169 168
f 23 168 645
f 23 625 169
f 23 645 621
f 23 621 746
f 23 622 625
f 23 746 622
f 24 43 811
f 24 813 43
f 24 621 110
f 24 110 813
f 24 111 620
f 24 811 111
f 24 620 746
f 24 746 621
f 25 170 625
f 25 808 170
f 25 620 467
f 25 467 646
f 25 622 620
f 25 625 622
f 25 646 808
f 26 772 45
f 26 45 773
f 26 354 747
f 26 757 354
f 26 747 772
f 26 773 757
f 27 467 44
f 27 44 468
f 27 173 172
f 27 172 646
f 27 879 173
f 27 646 467
f 27 468 647
f 27 647 879
f 28 44 467
f 28 549 44
f 28 467 171
f 28 171 864
f 28 864 549
f 29 436 175
f 29 175 647
f 29 469 436
f 29 647 468
f 29 468 804
f 29 804 469
f 30 378 756
f 30 885 378
f 30 401 754
f 30 755 401
f 30 754 885
f 30 756 755
f 31 32 799
f 31 851 32
f 31 572 518
f 31 518 851
f 31 849 572
f 32 415 33
f 32 33 847
f 32 851 415
f 33 438 34
f 33 34 991
f 33 415 438
f 33 991 847
f 34 520 35
f 34 35 848
f 34 438 520
f 35 442 36
f 35 36 640
f 35 520 442
f 35 640 848
f 36 513 37
f 36 442 513
f 37 440 38
f 37 513 440
f 38 514 39
f 38 39 850
f 38 440 514
f 39 514 502
f 39 502 778
f 39 778 798
f 39 798 850
f 40 382 736
f 40 830 382
f 40 465 779
f 40 736 466
f 40 779 830
f 41 428 42
f 41 42 830
f 41 94 418
f 41 779 94
f 41 418 427
f 41 427 704
f 41 704 428
f 41 830 779
f 42 705 382
f 42 382 830
f 42 428 705
f 43 430 707
f 43 813 430
f 43 707 431
f 43 431 811
f 44 820 468
f 44 549 474
f 44 474 820
f 45 371 548
f 45 680 371
f 45 548 773
f 45 772 680
f 46 187 482
f 46 484 187
f 46 559 469
f 46 482 559
f 46 560 484
f 47 567 316
f 47 316 890
f 47 331 528
f 47 890 331
f 47 528 829
f 47 829 567
f 48 332 49
f 48 49 721
f 48 555 332
f 48 749 555
f 48 721 749
f 49 333 50
f 49 50 748
f 49 332 333
f 49 748 721
f 50 333 334
f 50 334 724
f 50 724 748
f 51 724 334
f 51 334 729
f 51 336 725
f 51 729 336
f 51 750 724
f 51 725 750
f 52 715 337
f 52 337 722
f 52 899 715
f 52 722 751
f 52 751 899
f 53 84 488
f 53 566 84
f 53 439 566
f 53 648 439
f 53 488 565
f 53 565 911
f 53 911 648
f 54 649 508
f 54 508 821
f 54 567 829
f 54 912 567
f 54 821 648
f 54 648 912
f 54 829 649
f 55 509 519
f 55 636 509
f 55 519 649
f 55 649 528
f 55 528 749
f 55 749 636
f 56 506 515
f 56 650 506
f 56 515 636
f 56 636 721
f 56 748 650
f 56 721 748
f 57 510 521
f 57 708 510
f 57 521 650
f 57 650 724
f 57 750 708
f 57 724 750
f 58 441 516
f 58 651 441
f 58 516 708
f 58 751 651
f 58 708 725
f 58 725 751
f 59 517 651
f 59 846 517
f 59 651 722
f 59 752 652
f 59 652 846
f 59 722 752
f 60 253 252
f 60 252 517
f 60 653 253
f 60 517 846
f 60 800 653
f 60 846 800
f 61 62 63
f 61 499 62
f 61 63 800
f 61 723 499
f 61 652 723
f 61 800 652
f 62 470 63
f 62 654 470
f 62 499 486
f 62 486 654
f 63 255 254
f 63 254 653
f 63 470 255
f 63 653 800
f 64 913 65
f 64 65 998
f 64 500 270
f 64 270 913
f 64 511 470
f 64 470 654
f 64 654 500
f 64 505 511
f 64 998 505
f 65 496 66
f 65 66 507
f 65 568 496
f 65 507 550
f 65 550 998
f 65 913 568
f 66 623 414
f 66 414 1011
f 66 496 487
f 66 487 623
f 66 1011 507
f 67 68 623
f 67 992 68
f 67 910 69
f 67 69 992
f 67 623 497
f 67 497 910
f 68 70 261
f 68 992 70
f 68 261 260
f 68 260 414
f 68 414 623
f 69 753 325
f 69 325 844
f 69 569 753
f 69 910 569
f 69 844 992
f 70 71 262
f 70 844 71
f 70 262 261
f 70 992 844
f 71 72 263
f 71 993 72
f 71 263 262
f 71 844 993
f 72 73 264
f 72 845 73
f 72 264 263
f 72 993 845
f 73 74 265
f 73 801 74
f 73 265 264
f 73 845 801
f 74 795 265
f 74 330 564
f 74 801 330
f 74 564 795
f 75 183 182
f 75 182 512
f 75 771 183
f 75 512 831
f 75 831 771
f 76 84 485
f 76 557 84
f 76 485 837
f 76 832 557
f 76 575 832
f 76 837 575
f 77 273 79
f 77 79 796
f 77 266 273
f 77 574 266
f 77 837 574
f 77 796 837
f 78 463 600
f 78 796 463
f 78 575 796
f 78 833 575
f 78 600 833
f 79 274 80
f 79 80 463
f 79 273 274
f 79 463 796
f 80 275 82
f 80 82 463
f 80 274 275
f 81 600 463
f 81 463 838
f 81 512 730
f 81 831 512
f 81 576 831
f 81 838 576
f 81 730 600
f 82 807 269
f 82 269 838
f 82 275 807
f 82 838 463
f 83 419 481
f 83 483 419
f 83 481 831
f 83 797 483
f 83 576 797
f 83 831 576
f 84 558 485
f 84 557 488
f 84 566 558
f 85 179 86
f 85 86 853
f 85 395 177
f 85 177 840
f 85 840 179
f 85 531 395
f 85 892 531
f 85 853 892
f 86 179 584
f 86 584 968
f 86 968 853
f 87 182 88
f 87 88 532
f 87 717 182
f 87 655 341
f 87 341 768
f 87 532 655
f 87 768 717
f 88 182 183
f 88 183 522
f 88 522 955
f 88 955 532
f 89 156 90
f 89 90 732
f 89 732 744
f 90 157 96
f 90 96 884
f 90 156 157
f 90 295 522
f 90 884 295
f 90 522 732
f 91 531 293
f 91 293 959
f 91 794 531
f 91 656 794
f 91 959 656
f 92 942 601
f 92 601 944
f 92 944 657
f 92 657 959
f 92 855 942
f 92 959 855
f 93 524 658
f 93 883 524
f 93 655 532
f 93 532 883
f 93 601 943
f 93 945 601
f 93 943 655
f 93 658 945
f 94 128 778
f 94 779 128
f 94 778 418
f 95 884 96
f 95 96 903
f 95 445 524
f 95 871 445
f 95 524 884
f 95 903 871
f 96 157 881
f 96 881 158
f 96 158 903
f 97 530 372
f 97 372 765
f 97 451 530
f 97 960 451
f 97 765 656
f 97 656 960
f 98 637 451
f 98 451 960
f 98 602 637
f 98 657 602
f 98 960 657
f 99 445 477
f 99 658 445
f 99 477 817
f 99 638 602
f 99 602 946
f 99 817 638
f 99 946 658
f 100 159 480
f 100 903 159
f 100 816 477
f 100 477 871
f 100 480 816
f 100 871 903
f 101 530 577
f 101 1003 530
f 101 577 925
f 101 925 841
f 101 841 1005
f 101 1005 1003
f 102 577 637
f 102 659 577
f 102 637 603
f 102 603 659
f 103 603 638
f 103 660 603
f 103 638 901
f 103 938 660
f 103 901 938
f 104 718 105
f 104 105 804
f 104 804 468
f 104 468 820
f 104 474 802
f 104 820 474
f 104 802 718
f 105 469 804
f 105 718 806
f 106 665 161
f 106 161 805
f 106 473 480
f 106 877 473
f 106 480 665
f 106 805 877
f 107 736 382
f 107 382 812
f 107 466 736
f 107 745 466
f 108 376 556
f 108 868 376
f 108 556 379
f 108 379 818
f 108 860 726
f 108 726 868
f 108 818 860
f 109 659 604
f 109 604 709
f 109 926 659
f 109 709 860
f 109 860 926
f 111 171 620
f 111 864 171
f 111 811 864
f 112 660 578
f 112 578 710
f 112 604 660
f 112 710 604
f 113 480 473
f 113 473 901
f 113 477 816
f 113 817 477
f 113 816 480
f 113 638 817
f 113 901 638
f 114 290 544
f 114 596 290
f 114 544 399
f 114 399 988
f 114 988 596
f 115 529 197
f 115 197 612
f 115 401 529
f 115 823 401
f 115 612 822
f 115 822 823
f 116 162 476
f 116 880 162
f 116 476 321
f 116 321 578
f 116 578 919
f 116 805 880
f 116 919 805
f 117 541 209
f 117 209 614
f 117 825 402
f 117 402 826
f 117 826 541
f 117 614 824
f 117 824 825
f 118 579 726
f 118 927 579
f 118 605 947
f 118 954 605
f 118 661 927
f 118 947 661
f 118 726 709
f 118 709 954
f 119 410 494
f 119 552 410
f 119 563 420
f 119 420 887
f 119 494 563
f 119 887 552
f 120 321 472
f 120 710 321
f 120 472 533
f 120 533 948
f 120 605 710
f 120 948 605
f 121 711 163
f 121 163 815
f 121 476 711
f 121 742 476
f 121 975 742
f 121 815 975
f 122 662 580
f 122 580 928
f 122 928 661
f 122 661 949
f 122 989 662
f 122 949 989
f 123 533 131
f 123 131 781
f 123 493 534
f 123 781 493
f 123 739 533
f 123 534 740
f 123 740 739
f 124 666 164
f 124 164 963
f 124 493 781
f 124 963 493
f 124 815 666
f 124 781 852
f 124 852 815
f 125 460 127
f 125 127 973
f 125 347 534
f 125 606 347
f 125 534 460
f 125 973 606
f 126 348 551
f 126 759 348
f 126 380 759
f 126 843 380
f 126 551 843
f 127 135 447
f 127 777 135
f 127 447 973
f 127 460 581
f 127 581 777
f 128 779 465
f 128 798 778
f 129 581 130
f 129 130 667
f 129 166 142
f 129 142 581
f 129 667 166
f 130 165 667
f 130 963 165
f 130 460 493
f 130 581 460
f 130 493 963
f 131 533 472
f 131 472 975
f 131 852 781
f 131 975 852
f 132 607 133
f 132 133 977
f 132 458 447
f 132 447 607
f 132 535 458
f 132 738 535
f 132 977 738
f 133 607 728
f 133 728 869
f 133 869 810
f 133 810 977
f 134 855 293
f 134 293 892
f 134 854 358
f 134 358 855
f 134 853 854
f 134 892 853
f 135 607 447
f 135 536 607
f 135 858 536
f 135 777 858
f 136 328 498
f 136 856 328
f 136 551 348
f 136 348 553
f 136 498 551
f 136 553 856
f 137 363 633
f 137 761 363
f 137 431 707
f 137 760 431
f 137 633 760
f 137 707 857
f 137 857 761
f 138 362 632
f 138 764 362
f 138 430 706
f 138 761 430
f 138 632 761
f 138 706 764
f 139 142 141
f 139 141 964
f 139 777 142
f 139 453 858
f 139 964 453
f 139 858 777
f 140 359 697
f 140 762 359
f 140 428 704
f 140 763 428
f 140 697 763
f 140 704 762
f 141 142 167
f 141 167 770
f 141 770 964
f 142 166 882
f 142 882 167
f 142 777 581
f 143 536 582
f 143 728 536
f 143 582 624
f 143 624 608
f 143 608 728
f 144 361 456
f 144 763 361
f 144 429 705
f 144 764 429
f 144 456 764
f 144 705 763
f 145 147 146
f 145 146 582
f 145 668 147
f 145 582 1009
f 145 770 668
f 145 964 770
f 145 1009 964
f 146 147 663
f 146 1006 582
f 146 663 1006
f 147 168 169
f 147 668 168
f 147 169 663
f 148 151 150
f 148 150 915
f 148 170 151
f 148 625 170
f 148 299 525
f 148 915 299
f 148 525 663
f 148 663 625
f 149 291 583
f 149 974 291
f 149 664 446
f 149 446 974
f 149 583 547
f 149 547 664
f 150 151 152
f 150 152 775
f 150 547 583
f 150 775 547
f 150 583 915
f 151 878 152
f 151 170 878
f 152 173 153
f 152 153 775
f 152 172 173
f 152 878 172
f 153 173 879
f 153 175 731
f 153 879 175
f 153 731 547
f 153 547 775
f 154 155 436
f 154 501 155
f 154 435 315
f 154 315 897
f 154 436 435
f 154 897 501
f 155 175 436
f 155 501 175
f 158 159 903
f 159 160 480
f 160 665 480
f 161 880 805
f 162 711 476
f 162 880 640
f 163 711 641
f 163 666 815
f 164 165 963
f 164 666 642
f 166 809 882
f 167 809 644
f 167 668 770
f 167 882 809
f 168 668 645
f 169 625 663
f 170 808 878
f 171 467 620
f 172 808 646
f 172 878 808
f 174 572 214
f 174 214 865
f 174 552 421
f 174 421 702
f 174 865 552
f 174 866 572
f 174 702 866
f 175 501 731
f 175 879 647
f 176 479 184
f 176 184 873
f 176 562 479
f 176 873 491
f 176 491 874
f 176 874 562
f 177 268 565
f 177 669 268
f 177 395 669
f 177 565 488
f 178 503 406
f 178 406 891
f 178 491 875
f 178 876 491
f 178 875 503
f 178 564 876
f 178 891 564
f 179 416 584
f 179 832 416
f 179 557 832
f 180 768 358
f 180 358 854
f 180 417 730
f 180 833 417
f 180 584 833
f 180 968 584
f 180 730 717
f 180 717 768
f 180 854 968
f 181 701 370
f 181 370 769
f 181 405 719
f 181 888 405
f 181 719 701
f 181 769 888
f 182 717 512
f 183 732 522
f 183 744 732
f 183 771 744
f 184 464 185
f 184 185 873
f 184 479 317
f 184 317 788
f 184 902 464
f 184 788 902
f 185 464 609
f 185 491 873
f 185 875 491
f 185 503 875
f 185 907 503
f 185 609 907
f 186 570 236
f 186 236 609
f 186 403 570
f 186 895 403
f 186 464 504
f 186 609 464
f 186 504 996
f 186 996 895
f 187 484 471
f 187 471 894
f 187 839 482
f 187 894 839
f 188 790 272
f 188 272 807
f 188 670 767
f 188 807 670
f 188 767 790
f 189 492 782
f 189 867 492
f 189 671 610
f 189 610 867
f 189 979 671
f 189 782 979
f 190 274 273
f 190 273 828
f 190 862 274
f 190 828 478
f 190 478 867
f 190 727 862
f 190 867 727
f 191 672 585
f 191 585 713
f 191 727 610
f 191 610 950
f 191 950 672
f 191 713 727
f 192 322 585
f 192 670 322
f 192 537 791
f 192 920 537
f 192 585 920
f 192 987 670
f 192 791 987
f 193 611 671
f 193 673 611
f 193 671 783
f 193 981 673
f 193 783 981
f 194 349 611
f 194 672 349
f 194 611 951
f 194 939 672
f 194 674 940
f 194 951 674
f 194 940 939
f 195 422 391
f 195 391 537
f 195 538 392
f 195 392 986
f 195 537 398
f 195 398 737
f 195 986 422
f 195 737 538
f 196 612 673
f 196 822 612
f 196 634 822
f 196 983 634
f 196 673 784
f 196 784 983
f 197 350 612
f 197 674 350
f 197 529 586
f 197 586 674
f 198 392 538
f 198 766 392
f 198 538 921
f 198 586 917
f 198 921 586
f 198 635 766
f 198 917 635
f 199 634 385
f 199 385 785
f 199 754 401
f 199 401 823
f 199 823 634
f 199 714 754
f 199 985 714
f 199 785 985
f 200 201 278
f 200 457 201
f 200 278 529
f 200 529 401
f 200 401 755
f 200 755 457
f 201 635 278
f 201 457 394
f 201 394 792
f 201 792 635
f 202 351 378
f 202 675 351
f 202 378 885
f 202 786 675
f 202 714 786
f 202 885 714
f 203 394 457
f 203 793 394
f 203 457 859
f 203 539 793
f 203 859 539
f 204 675 386
f 204 386 787
f 204 613 675
f 204 676 613
f 204 787 676
f 205 540 207
f 205 207 870
f 205 351 613
f 205 870 351
f 205 952 540
f 205 613 952
f 206 756 378
f 206 378 870
f 206 412 756
f 206 859 412
f 206 1007 859
f 206 870 965
f 206 965 1007
f 207 540 454
f 207 454 587
f 207 587 1007
f 207 965 870
f 207 1007 965
f 208 588 373
f 208 373 677
f 208 387 588
f 208 676 387
f 208 614 676
f 208 824 614
f 208 677 824
f 209 589 540
f 209 540 952
f 209 541 589
f 209 952 614
f 210 352 402
f 210 678 352
f 210 402 825
f 210 590 678
f 210 734 590
f 210 677 734
f 210 825 677
f 211 216 615
f 211 626 216
f 211 678 218
f 211 218 905
f 211 615 678
f 211 905 626
f 212 554 403
f 212 403 895
f 212 895 462
f 212 462 957
f 212 894 554
f 212 957 894
f 213 411 276
f 213 276 591
f 213 1010 411
f 213 591 542
f 213 542 953
f 213 953 615
f 213 615 1010
f 214 572 958
f 214 898 865
f 214 958 898
f 215 626 217
f 215 217 776
f 215 941 526
f 215 526 1010
f 215 1010 626
f 215 627 941
f 215 1008 627
f 215 776 1008
f 216 1010 615
f 216 626 1010
f 217 235 628
f 217 905 235
f 217 626 905
f 217 628 776
f 218 590 234
f 218 234 906
f 218 678 590
f 218 906 905
f 219 261 842
f 219 900 261
f 219 450 893
f 219 961 450
f 219 543 455
f 219 455 961
f 219 842 543
f 219 893 900
f 220 616 627
f 220 679 616
f 220 627 961
f 220 961 679
f 221 455 592
f 221 679 455
f 221 592 861
f 221 617 679
f 221 936 617
f 221 861 747
f 221 747 936
f 222 592 238
f 222 238 685
f 222 861 592
f 222 685 680
f 222 680 772
f 222 772 861
f 223 478 224
f 223 224 574
f 223 240 834
f 223 492 478
f 223 834 492
f 224 266 574
f 224 828 266
f 224 478 828
f 225 275 274
f 225 274 862
f 225 807 275
f 225 713 807
f 225 862 713
f 226 241 681
f 226 834 241
f 226 681 383
f 226 383 782
f 226 782 492
f 226 492 834
f 227 242 243
f 227 681 242
f 227 243 682
f 227 682 384
f 227 384 783
f 227 980 681
f 227 783 980
f 228 244 245
f 228 682 244
f 228 245 683
f 228 683 385
f 228 385 784
f 228 982 682
f 228 784 982
f 229 246 247
f 229 683 246
f 229 247 896
f 229 712 388
f 229 388 785
f 229 984 683
f 229 896 712
f 229 785 984
f 230 248 249
f 230 712 248
f 230 249 684
f 230 684 386
f 230 386 786
f 230 786 712
f 231 250 251
f 231 684 250
f 231 251 573
f 231 573 387
f 231 387 787
f 231 787 684
f 232 252 253
f 232 573 252
f 232 253 254
f 232 254 373
f 232 373 588
f 232 588 573
f 233 255 234
f 233 234 590
f 233 254 255
f 233 381 254
f 233 590 381
f 234 255 256
f 234 256 835
f 234 835 906
f 235 257 258
f 235 835 257
f 235 258 628
f 235 906 835
f 235 905 906
f 236 407 907
f 236 908 407
f 236 570 908
f 236 907 609
f 237 259 260
f 237 628 259
f 237 260 969
f 237 374 776
f 237 969 374
f 237 776 628
f 238 262 263
f 238 543 262
f 238 263 264
f 238 264 685
f 238 592 543
f 239 264 265
f 239 685 264
f 239 265 795
f 239 371 680
f 239 795 371
f 239 680 685
f 240 566 439
f 240 439 962
f 240 962 834
f 241 508 242
f 241 242 681
f 241 439 821
f 241 962 439
f 241 821 508
f 241 834 962
f 242 1000 243
f 242 508 1000
f 243 244 682
f 243 971 244
f 243 519 971
f 243 1000 519
f 244 1001 245
f 244 971 509
f 244 509 1001
f 245 506 246
f 245 246 683
f 245 515 506
f 245 1001 515
f 246 999 247
f 246 506 999
f 247 521 972
f 247 999 521
f 247 1004 896
f 247 972 1004
f 248 516 249
f 248 510 516
f 248 972 510
f 248 712 896
f 248 896 1004
f 248 1004 972
f 249 516 250
f 249 250 684
f 250 517 251
f 250 516 441
f 250 441 517
f 251 517 252
f 251 252 573
f 253 653 254
f 254 381 373
f 255 511 256
f 255 470 511
f 256 511 909
f 256 966 835
f 256 909 966
f 257 550 258
f 257 505 550
f 257 909 505
f 257 835 966
f 257 966 909
f 258 259 628
f 258 1011 259
f 258 550 507
f 258 507 1011
f 259 414 260
f 259 1011 414
f 260 261 900
f 260 900 969
f 261 262 842
f 262 543 842
f 266 828 273
f 267 320 435
f 267 994 320
f 267 435 839
f 267 839 957
f 267 957 994
f 268 911 565
f 268 669 567
f 268 567 912
f 268 648 911
f 268 912 648
f 269 272 271
f 269 271 797
f 269 807 272
f 269 797 838
f 270 500 338
f 270 338 694
f 270 694 568
f 270 568 913
f 271 272 790
f 271 790 483
f 271 483 797
f 276 411 743
f 276 914 591
f 276 632 914
f 276 918 632
f 276 743 918
f 277 629 594
f 277 594 630
f 277 595 629
f 277 630 595
f 278 586 529
f 278 917 586
f 278 635 917
f 279 715 336
f 279 336 976
f 279 686 375
f 279 375 715
f 279 868 579
f 279 579 929
f 279 929 686
f 279 976 868
f 280 437 337
f 280 337 970
f 280 687 437
f 280 580 687
f 280 930 580
f 280 686 930
f 280 970 686
f 281 307 489
f 281 593 307
f 281 489 997
f 281 687 593
f 281 997 687
f 282 347 606
f 282 662 347
f 282 606 535
f 282 535 931
f 282 593 662
f 282 931 593
f 283 338 489
f 283 694 338
f 283 489 932
f 283 688 694
f 283 933 688
f 283 932 978
f 283 978 933
f 284 631 339
f 284 339 694
f 284 594 629
f 284 688 594
f 284 629 631
f 284 694 688
f 285 630 594
f 285 594 934
f 285 608 630
f 285 869 608
f 285 934 869
f 286 340 631
f 286 695 340
f 286 629 595
f 286 595 689
f 286 631 629
f 286 689 695
f 287 595 630
f 287 690 595
f 287 630 618
f 287 618 690
f 288 443 525
f 288 624 443
f 288 525 691
f 288 618 624
f 288 691 618
f 289 490 342
f 289 342 695
f 289 988 490
f 289 689 596
f 289 596 988
f 289 695 689
f 290 619 544
f 290 596 690
f 290 690 619
f 291 299 583
f 291 691 299
f 291 619 691
f 291 974 619
f 292 345 490
f 292 843 345
f 292 380 843
f 292 935 380
f 292 399 935
f 292 988 399
f 292 490 988
f 293 531 892
f 293 855 959
f 294 399 544
f 294 545 399
f 294 459 446
f 294 446 527
f 294 544 459
f 294 527 990
f 294 990 545
f 295 955 522
f 295 524 883
f 295 884 524
f 295 883 532
f 295 532 955
f 296 818 379
f 296 379 925
f 296 577 659
f 296 925 577
f 296 659 926
f 296 926 818
f 297 473 877
f 297 938 473
f 297 578 660
f 297 919 578
f 297 660 938
f 297 877 919
f 298 579 927
f 298 929 579
f 298 928 580
f 298 580 930
f 298 927 661
f 298 661 928
f 298 686 929
f 298 930 686
f 299 691 525
f 299 915 583
f 300 413 527
f 300 692 413
f 300 501 692
f 300 731 501
f 300 527 664
f 300 664 731
f 301 398 537
f 301 939 398
f 301 537 920
f 301 585 672
f 301 920 585
f 301 672 939
f 302 737 398
f 302 398 940
f 302 674 586
f 302 586 921
f 302 940 674
f 302 921 737
f 303 360 361
f 303 541 360
f 303 361 697
f 303 589 541
f 303 922 589
f 303 697 922
f 304 317 759
f 304 788 317
f 304 759 380
f 304 380 819
f 304 863 788
f 304 819 863
f 305 580 662
f 305 687 580
f 305 662 593
f 305 593 687
f 306 774 318
f 306 318 788
f 306 545 774
f 306 924 545
f 306 788 863
f 306 863 924
f 307 738 397
f 307 397 932
f 307 932 489
f 307 593 931
f 307 931 738
f 308 377 810
f 308 933 377
f 308 594 688
f 308 934 594
f 308 688 933
f 308 810 934
f 309 689 595
f 309 595 690
f 309 596 689
f 309 690 596
f 310 819 380
f 310 380 935
f 310 399 545
f 310 935 399
f 310 545 924
f 310 924 819
f 311 598 368
f 311 368 699
f 311 597 698
f 311 923 597
f 311 698 598
f 311 699 923
f 312 599 370
f 312 370 701
f 312 598 700
f 312 916 598
f 312 700 599
f 312 701 916
f 313 314 320
f 313 692 314
f 313 319 774
f 313 872 319
f 313 320 872
f 313 413 692
f 313 774 413
f 314 315 320
f 314 692 315
f 315 435 320
f 315 692 897
f 316 669 395
f 316 395 794
f 316 567 669
f 316 794 890
f 317 479 789
f 317 789 759
f 318 319 504
f 318 774 319
f 318 504 902
f 318 902 788
f 319 433 504
f 319 872 433
f 320 433 872
f 320 994 433
f 321 742 472
f 321 476 742
f 321 710 578
f 322 713 585
f 322 670 807
f 322 807 713
f 323 365 364
f 323 364 526
f 323 616 365
f 323 526 941
f 323 627 616
f 323 941 627
f 324 608 624
f 324 630 608
f 324 624 618
f 324 618 630
f 325 720 327
f 325 327 993
f 325 753 720
f 325 993 844
f 326 637 602
f 326 602 638
f 326 603 637
f 326 638 603
f 327 498 328
f 327 328 845
f 327 571 498
f 327 720 571
f 327 845 993
f 328 801 845
f 328 856 801
f 329 569 342
f 329 342 696
f 329 696 345
f 329 345 995
f 329 753 569
f 329 720 753
f 329 995 720
f 330 562 335
f 330 335 564
f 330 553 562
f 330 856 553
f 330 801 856
f 331 396 765
f 331 890 396
f 331 555 528
f 331 765 555
f 332 1003 333
f 332 555 372
f 332 372 1003
f 333 841 334
f 333 1005 841
f 333 1003 1005
f 334 556 729
f 334 841 556
f 335 874 491
f 335 491 876
f 335 562 874
f 335 876 564
f 336 729 376
f 336 376 976
f 336 715 899
f 336 899 725
f 337 715 375
f 337 375 970
f 337 437 752
f 337 752 722
f 338 500 486
f 338 486 693
f 338 693 489
f 339 496 568
f 339 631 496
f 339 568 694
f 340 497 487
f 340 487 631
f 340 695 497
f 341 358 768
f 341 942 358
f 341 601 942
f 341 943 601
f 341 655 943
f 342 490 696
f 342 569 695
f 343 944 601
f 343 601 945
f 343 602 657
f 343 946 602
f 343 657 944
f 343 945 658
f 343 658 946
f 344 659 603
f 344 603 660
f 344 604 659
f 344 660 604
f 345 696 490
f 345 551 498
f 345 498 571
f 345 843 551
f 345 571 995
f 346 739 400
f 346 400 949
f 346 947 605
f 346 605 948
f 346 661 947
f 346 949 661
f 346 948 739
f 347 400 740
f 347 989 400
f 347 740 534
f 347 662 989
f 348 562 553
f 349 610 671
f 349 950 610
f 349 671 611
f 349 672 950
f 350 611 673
f 350 951 611
f 350 673 612
f 350 674 951
f 351 870 378
f 351 675 613
f 352 741 402
f 352 542 741
f 352 953 542
f 352 678 615
f 352 615 953
f 353 617 367
f 353 367 698
f 353 616 679
f 353 956 616
f 353 679 617
f 353 698 956
f 354 369 700
f 354 757 369
f 354 617 936
f 354 937 617
f 354 700 937
f 354 936 747
f 355 690 618
f 355 618 691
f 355 619 690
f 355 691 619
f 356 709 604
f 356 604 710
f 356 710 605
f 356 605 954
f 356 954 709
f 357 546 393
f 357 393 889
f 357 426 703
f 357 889 426
f 357 539 587
f 357 703 539
f 357 827 546
f 357 587 827
f 358 942 855
f 359 393 546
f 359 762 393
f 359 546 454
f 359 454 589
f 359 589 922
f 359 922 697
f 360 456 361
f 360 542 456
f 360 541 826
f 360 741 542
f 360 826 741
f 361 763 697
f 362 456 591
f 362 764 456
f 362 591 914
f 362 914 632
f 363 523 633
f 363 918 523
f 363 761 632
f 363 632 918
f 364 365 444
f 364 743 411
f 364 411 1010
f 364 444 523
f 364 523 743
f 364 1010 526
f 365 597 444
f 365 698 597
f 365 616 956
f 365 956 698
f 366 444 597
f 366 633 444
f 366 699 495
f 366 495 760
f 366 597 923
f 366 760 633
f 366 923 699
f 367 598 698
f 367 700 598
f 367 617 937
f 367 937 700
f 368 598 916
f 368 758 699
f 368 701 719
f 368 916 701
f 368 719 758
f 369 449 599
f 369 780 449
f 369 599 700
f 369 757 1012
f 369 1012 780
f 370 475 448
f 370 448 769
f 370 449 475
f 370 599 449
f 371 406 548
f 371 891 406
f 371 795 891
f 372 530 1003
f 372 555 765
f 373 381 734
f 373 734 677
f 374 450 776
f 374 893 450
f 374 969 893
f 375 686 970
f 376 729 556
f 376 868 976
f 377 397 977
f 377 978 397
f 377 977 810
f 377 933 978
f 379 556 841
f 379 841 925
f 381 590 734
f 382 705 812
f 383 783 671
f 383 671 979
f 383 681 980
f 383 979 782
f 383 980 783
f 384 784 673
f 384 673 981
f 384 682 982
f 384 981 783
f 384 982 784
f 385 634 983
f 385 683 984
f 385 983 784
f 385 984 785
f 386 675 786
f 386 684 787
f 387 573 588
f 387 676 787
f 388 712 786
f 388 786 714
f 388 714 985
f 388 985 785
f 389 423 766
f 389 886 423
f 389 766 635
f 389 635 792
f 389 792 886
f 390 420 767
f 390 887 420
f 390 767 670
f 390 670 987
f 390 791 887
f 390 987 791
f 391 422 702
f 391 791 537
f 391 702 791
f 392 766 434
f 392 434 986
f 393 762 427
f 393 427 889
f 394 716 792
f 394 793 716
f 395 531 794
f 396 656 765
f 396 794 656
f 396 890 794
f 397 738 977
f 397 978 932
f 398 939 940
f 400 739 740
f 400 989 949
f 402 741 826
f 403 408 570
f 403 814 408
f 403 554 409
f 403 409 814
f 404 769 448
f 404 806 718
f 404 718 888
f 404 733 806
f 404 888 769
f 405 802 474
f 405 474 836
f 405 836 719
f 405 888 802
f 406 407 548
f 406 904 407
f 406 503 904
f 407 461 773
f 407 967 461
f 407 773 548
f 407 904 907
f 407 908 967
f 408 780 461
f 408 461 967
f 408 908 570
f 408 814 780
f 408 967 908
f 409 475 449
f 409 449 814
f 409 471 475
f 409 554 471
f 410 552 865
f 410 865 898
f 412 457 755
f 412 859 457
f 412 755 756
f 413 990 527
f 413 774 545
f 413 545 990
f 415 434 423
f 415 423 886
f 415 851 434
f 415 886 438
f 416 832 575
f 416 575 833
f 416 833 584
f 417 600 730
f 417 833 600
f 418 502 427
f 418 778 502
f 419 561 481
f 419 483 563
f 419 563 494
f 419 494 803
f 419 803 561
f 421 552 887
f 421 791 702
f 421 887 791
f 422 434 518
f 422 986 434
f 422 518 866
f 422 866 702
f 423 434 766
f 424 520 438
f 424 438 886
f 424 716 520
f 424 792 716
f 424 886 792
f 425 703 513
f 425 513 1002
f 425 793 703
f 425 716 793
f 425 1002 716
f 426 514 440
f 426 440 703
f 426 889 514
f 427 502 889
f 427 762 704
f 428 763 705
f 429 812 705
f 429 764 706
f 429 706 812
f 430 813 706
f 430 857 707
f 430 761 857
f 431 760 735
f 431 735 811
f 432 735 495
f 432 495 758
f 432 836 549
f 432 549 864
f 432 864 735
f 432 758 836
f 433 994 462
f 433 462 996
f 433 996 504
f 434 851 518
f 435 482 839
f 436 469 559
f 437 687 997
f 437 723 752
f 437 997 723
f 439 648 821
f 440 513 703
f 441 651 517
f 442 1002 513
f 442 520 716
f 442 716 1002
f 443 663 525
f 443 624 582
f 443 582 1006
f 443 1006 663
f 444 633 523
f 445 871 477
f 445 658 524
f 446 459 974
f 446 664 527
f 447 458 973
f 449 780 814
f 450 961 627
f 450 627 1008
f 450 1008 776
f 451 577 530
f 451 637 577
f 452 656 959
f 452 960 656
f 452 959 657
f 452 657 960
f 453 582 536
f 453 536 858
f 453 1009 582
f 453 964 1009
f 454 540 589
f 454 546 827
f 454 827 587
f 455 543 592
f 455 679 961
f 456 542 591
f 458 535 606
f 458 606 973
f 459 544 619
f 459 619 974
f 460 534 493
f 461 757 773
f 461 1012 757
f 461 780 1012
f 462 895 996
f 462 994 957
f 464 902 504
f 471 484 475
f 471 554 894
f 472 742 975
f 473 938 901
f 474 549 836
f 478 492 867
f 481 771 831
f 485 574 837
f 486 499 693
f 486 500 654
f 487 496 631
f 487 497 623
f 489 693 997
f 495 699 758
f 495 735 760
f 497 695 910
f 499 997 693
f 499 723 997
f 501 897 692
f 502 514 889
f 503 907 904
f 505 909 511
f 505 998 550
f 506 650 521
f 506 521 999
f 508 649 519
f 508 519 1000
f 509 636 515
f 509 515 1001
f 509 971 519
f 510 708 516
f 510 972 521
f 512 717 730
f 518 572 866
f 523 918 743
f 528 555 749
f 528 649 829
f 533 739 948
f 535 738 931
f 536 728 607
f 538 737 921
f 539 1007 587
f 539 703 793
f 539 859 1007
f 547 731 664
f 569 910 695
f 571 720 995
f 572 849 958
f 575 837 796
f 576 838 797
f 579 868 726
f 608 869 728
f 610 727 867
f 613 676 952
f 614 952 676
f 620 622 746
f 621 645 745
f 634 823 822
f 636 749 721
f 639 847 991
f 642 850 798
f 650 748 724
f 651 751 722
f 652 752 723
f 652 800 846
f 677 825 824
f 708 750 725
f 709 726 860
f 713 862 727
f 714 885 754
f 718 802 888
f 719 836 758
f 725 899 751
f 735 864 811
f 747 861 772
f 805 919 877
f 810 869 934
f 815 852 975
f 818 926 860
f 819 924 863
f 839 894 957
f 853 968 854
f 893 969 900
