v 3.514171 0 0.882173
v 3.514171 0 1.082173
v 3.614171 0 0.882173
v 3.614171 0 1.082173
v 3.700171 0.201 0.882173
v 3.700171 0.201 1.082173
v 3.738171 0.289 0.882173
v 3.738171 0.289 1.082173
v 3.807171 0.686 0.882173
v 3.807171 0.686 1.082173
v 3.840171 0.536 0.882173
v 3.840171 0.536 1.082173
v 3.876171 0.686 0.882173
v 3.876171 0.686 1.082173
v 3.950171 0.289 0.882173
v 3.950171 0.289 1.082173
v 3.990171 0.201 0.882173
v 3.990171 0.201 1.082173
v 4.081171 0 0.882173
v 4.081171 0 1.082173
v 4.18117 0 0.882173
v 4.18117 0 1.082173
v 3.70884486041868 0.455789311423947 0.956284570205421
v 3.65419993462033 0.327849314503581 0.944859136794262
v 3.7730924533368 0.373564695825387 0.937098121653705
v 3.6799316765287 0.153696464910095 1.03614002748773
v 3.76654597279554 0.357711943926456 1.02196260251751
v 3.94238018970357 0.53708310474247 0.940372778041238
v 3.79333915690005 0.422593477983466 1.02325206756002
v 3.8040331605409 0.448489741701984 0.93585453456687
v 3.81809300459318 0.482536618965827 0.937975050703725
v 3.81357434005026 0.471594362670718 1.02156051541821
v 4.05612100158467 0.150736399771787 1.082173
v 4.12642335745914 0.0369935554143255 1.082173
v 4.14425738515567 0.0830233993659303 1.082173
v 3.79224888999163 0.218431791306409 1.082173
v 3.74866845670748 0.239095723845702 1.082173
v 3.79224888999163 0.241456912698067 1.082173
v 3.85821691788989 0.218431791306409 1.082173
v 3.92554697114566 0.219958050138739 1.082173
v 3.55081437445784 0.0383707380941995 1.082173
v 3.59139534196254 0.0806862231684037 1.082173
v 3.60425695449496 0.172766930437533 1.082173
v 3.61678240235609 0.106066129628822 1.082173
v 3.61678240235609 0.218431791306409 1.082173
v 3.65980875537498 0.167609667061046 1.082173
v 3.68214559000779 0.309749350157743 1.082173
v 3.72522035289448 0.42157418280753 1.082173
v 3.79271658041406 0.494060451316861 1.082173
v 3.79220604623421 0.464268313735142 1.082173
v 3.81591663230571 0.576758911703269 1.082173
v 3.81639444092521 0.61917584239994 1.082173
v 3.93260772878229 0.559063203667386 0.998178850235049
v 3.9242978255739 0.577753735770626 0.90994882503598
v 3.89246452399434 0.649352806205534 0.950952512729482
v 4.01399283890986 0.376012814821804 0.938723454162101
v 4.01225680113769 0.379917489629616 0.986418535339119
v 3.99263060957026 0.42406047834518 1.02528121781347
v 3.98621760480008 0.438484529808779 0.93674745806506
v 3.97318205856434 0.467803920094358 0.938701463402818
v 3.97142125775354 0.471764291624144 0.973872769886813
v 3.95342623351797 0.512238478836556 0.939064782186526
v 3.9523923428792 0.514563892946759 1.02258433246759
v 4.05407175053151 0.285867819682644 0.986421707171057
v 4.07442821048844 0.240082320286074 0.982982207022076
v 4.07381705988922 0.241456912698066 1.02528121781347
v 4.03378706179228 0.331491892138983 0.939087107341374
v 4.03396660431816 0.331088067297729 0.967002035540881
v 4.04371935329641 0.309152304232689 1.0659647557129
v 4.03364677184025 0.331807430573838 1.0208633745886
v 4.11663859381397 0.145143245202826 1.02528121781347
v 4.10517211159251 0.170933516003455 1.02075269161373
v 4.1052734722967 0.170705536754089 1.05430703909642
v 4.09491557146377 0.194002399928706 1.02808443274477
v 4.1438593894563 0.0839185663985069 1.02474966307739
v 4.15655022329401 0.0553744989993745 1.04262163013808
v 4.11663859381397 0.145143245202826 1.082173
v 4.16411017966765 0.0383707380941996 1.082173
v 4.15438654741467 0.0602410121788422 1.082173
v 4.12208902948293 0.132884192324274 1.082173
v 3.74871845815261 0.241456912698067 0.882173
v 3.81468648605087 0.241456912698067 0.882173
v 3.83972885977467 0.265905025479071 0.882173
v 3.88065451394913 0.241456912698067 0.882173
v 3.81468648605087 0.686 0.987933518977347
v 3.85207812917004 0.686 0.987933518977347
v 3.82310345544661 0.686 1.02696020745907
v 3.85062393409082 0.686 1.02519961967917
v 3.876171 0.686 0.987933518977347
v 3.63247230807607 0.0427739874801285 0.961463739715123
v 3.6280154184718 0.0323573036375887 1.04286421479409
v 3.64139471559495 0.0636275213323912 1.02528121781347
v 3.65660779489003 0.0991836717778623 0.938663842097452
v 3.65955252809989 0.106066129628822 0.994962887836037
v 3.66663029979145 0.122608363466072 0.939064782186526
v 3.68970741453657 0.176544410719197 0.98596409588521
v 3.67142367328485 0.133811480584356 1.05353604914569
v 4.06848109288541 0.0280293552750803 1.0121104960567
v 4.06254289512602 0.0411455942820846 0.920954236355523
v 4.04755500562058 0.0742507128600294 0.89854486244593
v 4.04755500562058 0.0742507128600294 0.939064782186526
v 4.04755500562058 0.0742507128600294 0.984761298072878
v 4.01259056974565 0.151479851440935 0.996903419860875
v 4.03334046837304 0.10564765776944 0.936450971751491
v 4.03474946207986 0.102535484856568 0.962316908476423
v 4.01514037168244 0.145847871338795 1.02455201757937
v 4.02633990555484 0.121110439378877 1.02873887568507
v 3.54030541827527 0.061188433231522 0.963662400267882
v 3.88413931080153 0.289 0.972258583521533
v 3.72065486920216 0.483440048712235 0.963834247976527
v 4.04755500562058 0.0742507128600295 1.082173
v 3.9325006922868 0.559303948836743 0.943274230215522
v 3.90834202398289 0.38292506432933 1.0242507065822
v 3.98068105091424 0.450937278721677 1.02942444665188
v 4.02662891835576 0.120472070444979 1.082173
v 4.01292715731725 0.150736399771787 1.082173
v 3.77013150188203 0.599279536829596 0.966097673934294
v 4.03502816580488 0.12909125102048 0.882173
v 3.71007142768823 0.340082032661613 0.882173
v 4.01259056974565 0.241456912698067 0.882173
v 4.07855859764391 0.0613958594858572 0.882173
v 4.09737854734126 0.0397994198601922 0.882173
v 4.08164437680817 0.102067504339751 0.882173
v 4.07354773732783 0.172495856239316 0.882173
v 3.73456568845254 0.395476792945435 1.082173
v 3.97515895679707 0.341814633833693 0.882173
v 3.978219917616 0.341192774453118 1.082173
v 4.01259056974565 0.241456912698067 1.082173
v 4.05015187256726 0.235902506603314 1.082173
v 3.74871845815261 0.549145243319768 0.997681379215995
v 4.07341625227394 0.178300136237089 1.082173
v 3.86556927342218 0.478969331497478 0.882535050039803
v 3.86013196824358 0.491178553125773 0.998459425543858
v 3.88090079917728 0.444543087301934 0.982333940346369
v 3.8600947763943 0.491262065732799 1.02578827469653
v 3.88165581321696 0.442847737594648 1.02262803311475
v 3.94145171892939 0.308578749313094 0.938273975927305
v 3.9400850917277 0.311647448575079 0.977457238512423
v 3.64487336296649 0.071757848328663 0.948339408493097
v 3.92220671101857 0.351792539803747 1.02528121781347
v 3.91161078949973 0.375585199941523 0.935578725470511
v 3.90395885666254 0.392767267312286 0.971585301620894
v 3.90068109513487 0.254264858105411 1.082173
v 3.96613654136031 0.483650610745706 1.03575470414965
v 3.92289452277611 0.350248089766379 0.914976216180422
v 3.78613858485782 0.515595599968564 0.882173
v 3.75962984217754 0.574692033221137 1.082173
v 3.53055966801983 0.0383707380941996 0.912593040505105
v 3.55081437445784 0.0857930200616913 0.913245074133598
v 3.55081437445784 0.0857930200616913 0.939064782186526
v 3.56473439434685 0.118383919870094 0.940238978930748
v 3.588659096032 0.174398750436686 0.941188687122554
v 3.61697131985478 0.24068607310709 0.984524904190278
v 3.63441785473779 0.281533591638647 0.929851718748403
v 3.64543724235875 0.260289315483601 1.082173
v 3.63724533204581 0.288153555574824 0.965808659736614
v 3.73468666367739 0.516292646016001 0.982173
v 3.64740994171874 0.311951924979704 0.975328567381966
v 3.67018572502933 0.365276796485046 1.00893089751273
v 3.64664782600176 0.310167585792506 1.02539098830679
v 3.76975039506639 0.598387252612784 0.923444101787898
v 3.67459135362218 0.375591681176839 0.938405036499296
v 3.78218703288098 0.517958588620678 1.082173
v 3.68340295795555 0.396222263336198 0.938167887825788
v 3.68320082261514 0.395749004484589 1.02972541437326
v 3.7204359596313 0.482927516406384 0.900659963380279
v 3.75630959305317 0.332923847883656 0.910618891093263
v 3.70480909366579 0.446340383121962 1.02270585182945
v 3.71971094323058 0.481230037734398 1.02300564383767
v 3.74871845815261 0.549145243319768 0.939064782186526
v 3.73281509948625 0.511910758524118 1.06391627838266
v 3.74894782194245 0.549682252056375 1.05281582042231
v 3.76227798526034 0.580892122486664 1.02649507206599
v 3.79083783602009 0.64775921334396 0.913967205187094
v 3.78982378888703 0.645385027906147 0.987784066993189
v 3.78094798712922 0.624604140514143 1.082173
v 3.79078233198017 0.647629261905801 1.082173
v 4.05361222966409 0.28690136836656 0.906542665777861
v 4.07427230188632 0.240432987996625 0.941083595660808
v 4.11663859381397 0.145143245202827 0.939064782186526
v 4.11656283399531 0.145313643255278 0.990270700407835
v 4.10351439123071 0.174662040254992 0.96702741857084
v 4.14452662554216 0.0824178271996812 0.939064782186526
v 4.14452662554216 0.0824178271996812 0.995162884824354
v 4.16411017966765 0.0383707380941995 0.96465936622064
v 4.15797458856187 0.0521708341553755 0.90496671834092
v 4.1663268515133 0.0333850270390335 1.0198357062868
v 4.13730659118792 0.098657039679101 0.929628610650718
v 4.1431132089022 0.0855968665244402 0.907350730036666
v 4.11663859381397 0.145143245202827 0.902616721377971
v 4.10179368659997 0.178532227949659 0.907668509189577
v 4.13401247307484 0.106066129628822 0.882173
v 4.16450996243184 0.0374715516174077 0.882636819064204
v 4.15407920239875 0.0609322888090107 0.882173
v 3.88065451394913 0.579933870371178 1.082173
v 3.88065451394913 0.624604140514143 1.082173
v 3.74871845815261 0.201 0.939064782186526
v 3.74871845815261 0.201 0.97375554183723
v 3.77345703095462 0.201 0.94426244888444
v 3.72217501566618 0.201 0.939064782186526
v 3.74871845815261 0.201 1.02528121781347
v 3.75105464398609 0.201 1.05065688028601
v 3.77910605961162 0.201 1.04876771393577
v 3.72217501566618 0.201 1.02528121781347
v 3.81468648605087 0.201 0.939064782186526
v 3.83998136589406 0.201 0.942117542990754
v 3.84046657674138 0.201 0.975894766462562
v 3.81259585765337 0.201 1.04325297202547
v 3.88519937276982 0.201 0.937650045414849
v 3.87865330804855 0.201 0.973470132365876
v 3.90521491240171 0.201 0.970228560590359
v 3.88400407031024 0.201 1.0276396434163
v 3.94947907003632 0.201 0.937507666492705
v 3.769039711237 0.201 0.882173
v 3.83712408211011 0.201 0.882173
v 3.700171 0.201 0.956198299454818
v 3.700171 0.201 0.976211463817637
v 3.700171 0.201 1.01090222346834
v 3.58007525557291 0.0612393133403626 0.882173
v 3.54871982723505 0.0320090742418889 0.882173
v 3.55694441895526 0.0598924885683429 0.882173
v 3.61678240235609 0.12909125102048 0.882173
v 3.63538042662845 0.112862240040875 0.882173
v 3.61678240235609 0.173761521163444 0.882173
v 3.68275043025435 0.241456912698067 0.882173
v 3.63921999841533 0.241456912698067 0.882173
v 3.55947329734875 0.106066129628822 0.882173
v 3.75383368228974 0.326928260054562 1.082173
v 3.79270270551907 0.42105226728637 1.082173
v 3.77184342789855 0.370540095009237 1.082173
v 3.81468648605087 0.474287500534952 1.082173
v 4.00486673655449 0.168540186291723 0.941216235854698
v 4.00515312035179 0.167907624277917 1.01380024420187
v 4.01259056974565 0.151479851440935 0.910686984233926
v 4.02272670227431 0.12909125102048 0.882173
v 4.01259056974565 0.151479851440935 0.882173
v 3.7488216788092 0.314791349665428 0.938953018985994
v 3.74613226236252 0.308278743171994 1.02434035685536
v 3.807171 0.686 0.92982654488023
v 3.807171 0.686 0.956348991734632
v 3.807171 0.686 1.00521772852545
v 3.88065451394913 0.512238478836556 1.082173
v 3.92066330877802 0.522891546727804 1.082173
v 3.87728951665495 0.645935639220481 1.082173
v 3.94821501425519 0.378659805329019 1.082173
v 3.94662254184739 0.444543087301933 1.082173
v 3.9060960938249 0.453294621992584 1.082173
v 3.92418494578815 0.401845556546108 1.082173
v 3.94662254184739 0.512238478836556 1.082173
v 3.88073694395744 0.444911016750106 1.082173
v 3.9358604987972 0.321133579973562 1.082173
v 3.9151689178722 0.367595584414238 1.082173
v 3.89983828317685 0.402019827775619 1.082173
v 3.90122078465787 0.467387335424738 0.882173
v 3.8838668951241 0.513507638818153 0.882173
v 3.90407369759025 0.54504341872797 0.882173
v 3.89664152087351 0.573737041050502 0.882173
v 3.87959448783518 0.597774306485741 0.882173
v 3.96154305067217 0.398796900300914 0.882173
v 3.94479911369471 0.454375507958253 0.882173
v 4.0332566448322 0.267330639209259 0.882173
v 4.01264634706931 0.319516525444538 0.882173
v 4.03502816580488 0.296050494404724 0.882173
v 4.08851403648188 0.141744851801102 0.882173
v 3.91309144383575 0.602958991762836 0.882173
v 3.93437476712519 0.555088802757129 0.882173
v 3.90309211000837 0.625449370438137 0.882173
v 3.89323082033235 0.647629261905801 0.882173
v 4.00626883523199 0.393385548906236 0.882173
v 3.96906013790662 0.477074893347375 0.882173
v 3.95163726497057 0.516262204893092 0.882173
v 4.03396660431816 0.331088067297729 0.882173
v 4.02032837865643 0.361762996736672 0.882173
v 4.06357997679981 0.264482034089724 0.882173
v 4.1104526738894 0.159056540224295 0.882173
v 4.09689152650483 0.189558106150141 0.882173
v 4.07381705988922 0.241456912698067 0.882173
v 4.12377538998543 0.12909125102048 0.882173
v 3.69146071512718 0.255076152116344 1.082173
v 3.64598151139848 0.188538059312195 1.082173
v 3.75173936395446 0.556218080794408 1.082173
v 3.53280515225799 0.0436280834436287 0.995713838536221
v 3.55100368241976 0.0862362462114405 1.02432915514954
v 3.53986781692572 0.0601638785359892 1.05303682786926
v 3.5770858393504 0.147302320117322 1.05500303154022
v 3.58838692667768 0.173761521163444 0.98816995681443
v 3.60401491114419 0.210351273190834 1.06739956567082
v 3.64366814152051 0.30319125966918 1.05119629996914
v 3.69982864903441 0.4346796834048 1.04914411650468
v 3.53012903463265 0.0373624974675702 1.082173
v 3.53986781692572 0.0601638785359892 1.082173
v 3.5496389524978 0.0830410082371642 1.082173
v 3.5766015910835 0.146168551137487 1.082173
v 3.55947329734875 0.106066129628822 1.082173
v 3.58664809442763 0.169690398557516 1.082173
v 3.60566834356458 0.214222449437894 1.082173
v 3.61678240235609 0.240243761147717 1.082173
v 3.63134738875038 0.274344719053792 1.082173
v 3.64621418533554 0.309152304232689 1.082173
v 3.66300459447859 0.348463637584683 1.082173
v 3.66917987082534 0.3629217931269 1.082173
v 3.68275043025435 0.394694502233742 1.082173
v 3.69420709914244 0.421517965910276 1.082173
v 3.72447718327702 0.492389220914798 1.082173
v 3.73208918360867 0.510211173909725 1.082173
v 3.55081437445784 0 0.939064782186526
v 3.55480057775554 0 0.973132653710423
v 3.5486248708271 0 1.02962182165201
v 4.03482396689619 0.26666840788234 1.082173
v 3.93268857773555 0.558881359195978 1.082173
v 3.91878104265402 0.590162016070035 1.082173
v 3.89828704795382 0.636256856919796 1.082173
v 4.00626883523199 0.393385548906236 1.082173
v 3.99203954168851 0.425389900956013 1.082173
v 3.97196261219631 0.470546683868905 1.082173
v 3.95732799187631 0.50346269191981 1.082173
v 3.94662254184739 0.527541258471968 1.082173
v 4.04993990702691 0.295161111280823 1.082173
v 4.0330055396521 0.333249682125702 1.082173
v 4.08233237077829 0.222304380165496 1.082173
v 4.09669275386512 0.190005183126927 1.08184762044138
v 4.10993840346943 0.160213230928532 1.082173
v 3.63058833072687 0.0383707380941995 1.082173
v 3.64709354031522 0.0769468674809207 1.082173
v 3.67911977488798 0.151798880842827 1.082173
v 3.67022330536247 0.131005969509962 1.082173
v 3.63058833072687 0.0383707380941995 0.904059077133302
v 3.66006599960155 0.107266219998964 0.911764091835687
v 3.67799799722727 0.149177051659084 0.882173
v 3.63793584763607 0.0555434229633614 0.882173
v 3.66056969122592 0.108443452748942 0.882173
v 3.614171 0 0.940543223665568
v 3.614171 0 0.976412481022653
v 3.614171 0 1.02334670592248
v 3.90443753341833 0.201 1.05290254683821
v 3.94153404900447 0.201 1.05992538895573
v 3.74871845815261 0.201 1.082173
v 3.79224888999163 0.201 1.082173
v 3.84122992853731 0.201 1.082173
v 3.90719795643557 0.201 1.082173
v 3.990171 0.201 0.939064782186526
v 3.990171 0.201 0.976076016113702
v 3.990171 0.201 1.022960743537
v 3.76020508238674 0.395844684095422 0.882173
v 3.74932409186129 0.445035680411801 0.882173
v 3.83381209220804 0.603586298100138 0.882173
v 3.75746986790265 0.335733533058384 0.882173
v 3.7724678501854 0.372052176429344 0.882173
v 3.78088409600637 0.392432693270321 0.882173
v 3.79275799937601 0.421186165155644 0.882639515003479
v 3.80240336803562 0.444543087301934 0.882173
v 3.81468648605087 0.474287500534952 0.882173
v 3.74871845815261 0.549145243319768 0.882173
v 3.77115605421185 0.601678318052313 0.882173
v 3.79078233198017 0.647629261905801 0.882173
v 3.94085887107527 0.241688032804941 0.882173
v 3.89657117494139 0.218890201633821 0.882173
v 3.88065451394913 0.201 0.882173
v 3.94662254184739 0.201 0.882173
v 4.15542447310711 0 0.947875066903696
v 4.15300993474303 0 0.976412481022653
v 4.15300993474303 0 1.02528121781347
v 4.10530354245965 0 0.946261219438821
v 4.1098298136789 0 0.97607329543477
v 4.18117 0 0.950151981621192
v 4.18117 0 0.985817752437975
v 4.18117 0 1.01321607407872
v 4.06379917330064 0.0383707380941995 0.882173
v 4.05337486461088 0.0613958594858572 0.882173
v 4.04418912944476 0.0824922677266708 0.882173
v 4.03502816580488 0.101919886518887 0.882173
v 3.84187982037151 0.201 1.03095464837386
v 3.89438169904107 0.414272339425968 0.909312978859183
v 3.92472500597735 0.346137822941774 0.972499319932189
v 3.85590626585208 0.500667175768508 0.939300803466245
v 3.95129461482236 0.517032889392631 0.988279131890316
v 3.840171 0.536 0.939064782186526
v 3.840171 0.536 0.972371582865301
v 3.840171 0.536 1.01985096905174
v 3.93265018886198 0.328342185009916 0.882173
v 3.90309211000837 0.394713507526671 0.882173
v 3.79497419334496 0.201 0.999518379825352
v 3.94252878608208 0.306160243979336 1.03239094894316
v 4.09535360191162 0.193017187232194 0.945165547225364
v 3.88786134231495 0.428913504074607 0.882173
v 3.82756760959982 0.505480025207411 0.983644380954729
v 3.514171 0 0.940042726486617
v 3.514171 0 0.977390425322744
v 3.514171 0 1.01381404651607
v 3.9141941944248 0.600478698699298 0.974054537496214
v 3.71011452628036 0.328245249299076 1.082173
v 4.081171 -3.46944695195361e-18 0.976412481022653
v 4.081171 0 1.0200974280431
v 4.081171 0 0.932860721427941
v 3.79272854562923 0.289 1.00573526631341
v 3.80445132826742 0.449502363549537 0.983705818212177
v 3.56960065056776 0.129777270612568 1.00672558731395
v 3.86101643020814 0.289 0.99961536669385
v 3.81468648605087 0.289 0.922128614495164
v 3.6834810129163 0.161992006932271 0.913021087523749
v 3.79095391499471 0.54264383188387 0.882173
v 3.860032302089 0.289 0.911054487029379
v 3.83930185901812 0.648673608454948 0.882173
v 3.91389264375849 0.289 0.939064782186526
v 3.91389264375849 0.289 0.973617874093347
v 3.91389264375849 0.289 1.02528121781347
v 3.81468648605087 0.289 0.882173
v 3.86101643020814 0.289 0.882173
v 3.950171 0.289 0.939064782186526
v 3.950171 0.289 0.971658890263828
v 3.950171 0.289 0.997324741383452
v 3.69486764904306 0.423064509363604 0.977963786355228
v 3.89588606591135 0.410894351999049 1.05171169682986
v 3.68259434933408 0.303990419245234 0.882173
v 3.68407075620509 0.335767837866774 0.882173
v 3.66250322720531 0.30652997518181 0.882173
v 3.88566799983325 0.433838554919887 0.932910865338431
v 3.70349503550143 0.442805765760797 0.882173
v 3.75664151377162 0.33372761668226 0.982173
v 3.52806056982581 0.0325196071689505 0.882173
v 3.54039401287078 0.0613958594858572 0.882173
v 3.98524968932822 0.325381498368336 0.882173
v 3.55081437445784 0.0857930200616913 0.882173
v 4.00836474646879 0.388671451127415 1.03053503167464
v 3.89216493195371 0.650026644939025 1.05538283829391
v 3.58838692667768 0.173761521163444 0.882173
v 3.69434386273646 0.187380760581722 1.03405705442893
v 3.61086954457312 0.226400005382794 0.882173
v 3.62262152414004 0.253914879044606 0.882173
v 3.63698826675928 0.287551689409102 0.882647172654698
v 3.65733335151882 0.335185573863175 0.882173
v 3.67146724109089 0.368277206103577 0.882173
v 3.76660970115494 0.289 1.04089418334692
v 3.564171 0 0.882173
v 3.68416906076076 0.397379714348271 0.882173
v 3.564171 0 1.082173
v 3.71387578884435 0.467568208693591 0.882173
v 4.1311705 0 0.882173
v 4.1311705 0 1.082173
v 3.73831664729409 0.524791515507666 0.882173
v 3.86045397197872 0.490455508375053 1.082173
v 4.1441524912115 0 0.91542805162895
v 3.82248532243964 0.289 1.03427270128404
v 3.78342044532688 0.398574637213143 0.982391110458988
v 3.87567031305067 0.289 1.03791893850068
v 3.86098997128099 0.28867605780458 1.082173
v 3.738171 0.289 0.939064782186526
v 3.738171 0.289 0.96473063330615
v 3.73823981195986 0.289166632883195 1.01314741849001
v 4.08209679971728 0.109696979031428 1.082173
v 3.99678986136552 0.297245719636338 1.082173
v 4.05389183210369 0.286272489997898 1.02528121781347
v 3.79894613510823 0.666743149092979 1.03316257148288
v 3.92397306051804 0.578484193340383 0.962084009559958
v 4.04849344906243 0.0721778872357423 1.03370544154959
v 4.10237469326266 0.0830462038037371 1.082173
v 3.78143374650979 0.289 1.0589080068896
v 3.970171 0.245 0.882173
v 3.96746787490353 0.244195297262881 1.082173
v 3.94868447821778 0.201 0.998358142687116
v 3.719171 0.245 0.882173
v 3.719171 0.245 1.082173
v 3.80754719345158 0.57160058679678 0.882173
v 3.7201101490785 0.365214017646063 0.882173
v 3.60948250825233 0.223152541505466 1.02436766504378
v 3.55852212426476 0.103839151008961 0.982173
v 3.75660052207107 0.459064527556391 1.082173
v 3.906621474559 0.289 0.904313873698458
v 3.876171 0.686 1.03505325948867
v 3.75002291589576 0.317700227708354 1.04635240027034
v 3.63175251663981 0.275293243736902 1.05532167705386
v 3.52418062215078 0.0234354975953514 1.03667578665581
v 3.57499464682531 0.142406217481778 0.913370349457208
v 3.77823318656263 0.618247986286569 1.04941904272719
v 4.06832706950666 0.0283695607600149 0.966679341092887
v 4.03782932583353 0.223825830420855 0.882173
v 4.17217751586689 0.0202257847249206 0.928221893673343
v 3.79379348853341 0.201 0.973296048027788
v 4.03436479882195 0.187380760581722 0.882173
v 4.03883992112383 0.187383414890054 1.082173
v 3.75761324978047 0.569970591636184 0.976495295529257
v 3.90419395894495 0.289 1.082173
v 4.11555303955283 0 1.05491144502559
v 3.59808189523953 0.196460321277542 1.03210990338832
v 3.89270724438915 0.648806882478451 1.0076399562872
v 3.79786996714832 0.546285583984799 1.082173
v 3.91693585512662 0.363628007124776 0.978821594393994
v 3.98563986764806 0.32158141456363 1.082173
v 3.8378514581295 0.289 0.960871990594507
v 3.72698007525748 0.201 0.983079991134264
v 4.03388953922228 0.206181928092047 1.082173
v 3.77792152678891 0.264849318698067 0.882173
v 3.91925151485467 0.201 1.02360075748546
v 3.72230609154451 0.374412860600341 1.082173
v 3.93422597625273 0.324803826050687 1.05837779049624
v 3.90559371510407 0.289 0.882173
v 3.9899403541525 0.430111367746728 0.980835894289701
v 3.73053569687264 0.4603385676133 1.082173
v 4.01937937513351 0.363897483789813 1.05096558744043
v 3.77974636444262 0.3896775982091 1.05372710890674
v 3.77061910473626 0.367575312449571 0.982173
v 3.99259958290244 0.276741017044862 0.882173
v 3.65891704327733 0.186783986651532 0.882173
v 3.82742874302544 0.505143750267476 0.910618891093263
v 3.82742874302544 0.505143750267476 1.05372710890674
v 3.9070761065521 0.616488614406148 0.928161367433555
v 3.91363852789826 0.201 0.910618891093263
v 3.84657058859338 0.656050806035757 1.082173
v 3.71829205627205 0.351887977910937 1.082173
v 3.91292065652533 0.289 1.06004596925034
v 4.06069504984274 0.0452270986990095 1.04588114249722
v 3.77239101672921 0.289 0.903436039184957
v 4.05238479333863 0.289662103055082 0.947573207878565
v 3.53055966801983 0.0383707380941996 0.955701258318579
v 3.86101643020814 0.289 0.956507148880376
v 3.81478524841688 0.474526660382057 0.987633708099538
v 3.55081437445784 0.0857930200616913 0.982173
v 3.68275043025435 0.394694502233742 0.982173
v 3.78995483294033 0.645691840945628 0.951055760333347
v 3.78126358399747 0.289 1.082173
v 3.94095029003899 0.540299217483517 0.976307988464357
v 3.99857279340719 0.410695391534622 0.960955780731333
v 4.05865695488067 0.275554834448185 1.05394024262922
v 4.06384782654892 0.263879589727959 1.082173
v 3.60425790314843 0.0415205041185821 1.082173
v 3.6583376666434 0.208096553277733 1.082173
v 3.77195160442937 0.482939815571099 0.882173
v 3.58249268722892 0 0.910618891093263
v 3.58249268722892 0 1.05372710890674
v 3.63074713052825 0.272939336322122 1.00520664069463
v 3.66002326998805 0.208634644939122 0.882173
v 3.950171 0.289 1.04102518731177
v 3.88470091016618 0.6668146309529 0.918837147302059
v 3.91241690876859 0.266162530709033 0.882173
v 3.54068702123883 0.0620818790779454 1.03197239130563
v 3.87580189199075 0.455992451620775 0.905764085279182
v 3.84850806022639 0.686 0.911886995073888
v 3.84542874302544 0.686 1.05372710890674
v 3.76593640720235 0.289 0.96096690738143
v 3.95135106762245 0.201 0.971452843261586
v 3.94868447821778 0.201 1.082173
v 4.02314600079233 0.175868199885893 1.082173
v 3.64399104558417 0.0696956879350858 0.975825372107684
v 4.08482201755176 0.0563107254771145 1.082173
v 3.71573444420348 0.419618794767838 0.882173
v 4.08742490282433 0.210850319714206 0.916971987566518
v 3.71024398061791 0.459065067248749 1.082173
v 3.66092475243857 0.343594109804991 1.053034499542
v 4.06436300281029 0.0371253564300147 1.082173
v 3.71783021752281 0.390709422468859 0.882173
v 3.9015947202034 0.628817281172941 0.990391256208796
v 3.80369459578497 0.447669883910661 1.05372710890674
v 3.59851803620531 0.197481456781039 0.912801335170199
v 3.76071438993581 0.577231281556193 0.907422148558787
v 3.67496870815261 0.232396023884774 1.082173
v 3.63953986493839 0.144019327542828 1.082173
v 3.73468666367739 0.516292646016001 0.920726030163053
v 3.77681632498117 0.614930692618029 1.01604633411222
v 3.80773097758802 0.289 0.955841147868945
v 3.67094236047341 0.367048304726131 0.967959486835885
v 3.99617633901379 0.416085467285271 0.910199470078141
v 3.8476705 0.60226900544266 1.082173
v 3.876171 0.686 0.918192910697595
v 3.78026636352328 0.623008257259292 0.937187870495322
v 3.82795820729409 0.201 1.01096410434169
v 3.5782076981057 0 0.996045705053138
v 4.00138078487282 0.176239925720468 1.05372710890674
v 3.60598646355621 0.088061470668792 0.882173
v 3.99029938915334 0.429303830638167 0.882173
v 3.98723367045411 0.26903216213322 1.082173
v 3.78089048059032 0.289 0.934456569975637
v 3.83891310131618 0.262501939550237 1.082173
v 4.12697259250094 0.121900142440964 0.959230883827819
v 3.73584116312668 0.518995672030384 1.04081103456417
v 3.91250003341769 0.373588443143923 0.997941230877034
v 3.88403609309338 0.66830992933728 1.0171863513529
v 3.89271793742644 0.41800824050609 0.998712264910811
v 3.93872296536225 0.31470604141386 0.905996034779919
v 4.15574361353511 0.0571887157496057 0.998297165230254
v 4.02314600079233 0.221228456349033 1.082173
v 3.69312273287789 0.41875013399727 0.910618891093263
v 4.08930345986827 0.206625092312987 0.896714356813543
v 3.74572555883747 0.307293882675061 0.986021289846705
v 3.86354559866622 0.570542481916214 0.882173
v 3.96065756148125 0.495973864910573 1.00541266367523
v 4.05183800360263 0.112493556315908 1.082173
v 3.807171 0.686 1.04369536426273
v 3.58321912446 0.161662161704993 1.02717732763619
v 3.91724157333204 0.59362457153702 0.943565459509346
v 3.73496487842412 0.516944029347938 1.01646694970973
v 4.07232051409424 0.0195488754621762 1.05041914023519
v 3.77642874302544 0.289 0.882173
v 4.03648381799162 0.0987046547657669 1.05508595744624
v 3.87080793466136 0.467206155805855 1.05040493606023
v 4.05737410112178 0.0525623810387086 0.955593930896949
v 3.7349341155428 0.516872004308401 0.951532526772993
v 4.11618749523392 0.0623770229176634 0.882173
v 3.94740407752734 0.364107501084442 0.882173
v 3.93717797289408 0.253715895653204 1.082173
v 3.85092294780121 0.511856989937284 1.05250810509851
v 4.13047991939395 0.114011505925441 1.01378814204229
v 3.98501608248871 0.302806639494742 0.882173
v 4.04281514559659 0.311186037071393 0.970645497157966
v 3.70778499392661 0.452964336498657 0.917950054453369
v 3.71811976635895 0.477504620212432 0.989068304561792
v 3.7237259633804 0.201 0.908769550284261
v 3.72321476888105 0.201 1.06045304024436
v 3.57829249943913 0.150127469676608 0.962525456224973
v 3.92916676400505 0.426630232344364 0.882173
v 3.66924826529746 0.363081924894404 1.04676864607505
v 3.82925914947537 0.509576205102117 0.95666526853251
v 3.61957515103602 0.246782415053614 0.916752921504023
v 3.5966051912456 0.108879370926031 0.882173
v 4.08886591318562 0.207609216930755 0.975639191981554
v 3.70641167348489 0.450092498329808 0.987901234298227
v 3.67376810176834 0.139290900644607 0.99182261607651
v 3.99857279340719 0.410695391534622 0.939064782186526
v 3.58455357445584 0.023729017165596 1.082173
v 3.700171 0.201 0.919185649727409
v 3.6016132359909 0.204728238531588 0.984092643824954
v 3.56370798277067 0.115980785599589 1.04213242568673
v 3.59714067451955 0.0266544673536505 0.882173
v 3.57393011201322 0.139913825396133 0.882173
v 4.16708996737151 0 0.916162490810596
v 3.9813143233683 0.449512930105827 1.00106344024521
v 3.66168990272284 0.34538555381524 0.976202205191394
v 3.64737956148455 0.311880795830724 0.909514431582288
v 3.89533219936459 0.642902866028704 0.912763158696898
v 3.86834836685409 0.472729003518553 0.963586427595432
v 3.75996732191241 0.341781289336909 0.940954732831243
v 3.67535106656333 0.223636900693891 0.882173
v 3.71209306925188 0.271581682368352 0.882173
v 3.79186309864393 0.201 0.910618891093263
v 4.04877329055899 0.297785050693726 0.882173
v 3.91704037373355 0.512238478836556 0.882173
v 3.78170247210174 0.459415293918443 0.882173
v 3.91839900627029 0.448240856384099 0.882173
v 3.7659590270045 0.356290614412847 0.910618891093263
v 3.52236533400991 0.0191853690470998 0.969426101309335
v 4.11709046737151 0 1.02268932292829
v 3.76711784821398 0.265077160384678 1.082173
v 3.80523155173703 0.607241867572222 0.882173
v 3.86772282010754 0.626298195438404 0.882173
v 3.96839677092369 0.201 0.910618891093263
v 3.85888929802962 0.201 0.910618891093263
v 4.08489382816462 0.216543181712309 1.00217787931164
v 4.09589420756567 0 0.913386963261375
v 3.61019756527744 0.142426404881771 1.082173
v 3.700171 0.201 1.04653761173417
v 4.11359371224453 0.0850255805167925 0.882173
v 3.65330011087123 0.325742559923768 1.06295186709048
v 3.84947232029198 0.515114308071634 0.911539995709237
v 4.1705416245826 0.0239052112837596 1.05031896562333
v 4.15077608658753 0.0215982548534942 1.082173
v 3.78753307874064 0.640021795276721 1.03155545320417
v 3.96269442285714 0.491392581352731 0.912515574954583
v 3.78008010676863 0.390485778155403 1.02528121781347
v 3.86755147778244 0.201 1.05533651160429
v 3.738171 0.289 1.04765101517409
v 3.84166622012268 0.686 0.882325903977359
v 3.841671 0.686 1.082173
v 4.18117 0 1.04769453703936
v 4.1325256963251 0.109410169610338 0.983500999000149
v 3.7346053556185 0.201 0.882173
v 3.62119017668995 0.250563669656331 1.00962798752184
v 3.514171 0 1.04799352325804
v 3.95880516160079 0.218453749811513 1.082173
v 3.99894478139748 0.181620548781387 0.910105290709529
v 3.6001565526287 0.201317710250125 1.00754066749175
v 3.63058833072687 0.0383707380941995 0.991194778978182
v 3.96167037922134 0.201 1.04394120807929
v 3.79856832700785 0.201 0.882173
v 4.18117 0 0.91301356926118
v 4.14083517623216 0.0907205895912393 0.959799181584383
v 3.88065451394913 0.546086174603867 1.082173
v 3.68275043025435 0.275304608465378 0.882173
v 3.95191969379899 0.41484914861314 1.082173
v 3.94662254184739 0.478390783069245 1.082173
v 3.53517265993086 0 1.05254831714079
v 3.69001638202497 0.177266532407205 1.06037047195901
v 3.66970714607492 0.129799597221616 1.01676541587703
v 3.93245445790385 0.289 1.05404250792983
v 3.89594199479813 0.410768766226024 1.02316774462784
v 3.93019103123728 0.489563696447559 0.882173
v 3.94766058641931 0.525206501386415 0.911594800679524
v 3.96675184819486 0.432547464764534 0.882173
v 3.83985185701444 0.574425390028517 0.882173
v 4.13007245858301 0 1.00084684941806
v 3.82742874302544 0.505143750267476 1.02256609343261
v 4.0022081688501 0.402518749795339 1.00414277182252
v 3.82742874302544 0.505143750267476 0.882173
v 3.82742874302544 0.505143750267476 1.082173
v 3.82861145246377 0.508007762338736 0.936536883705298
v 3.76739117405842 0.289 0.982204791499621
v 4.06035613975673 0.123145880109458 0.882173
v 4.0194269210275 0.136379778829375 0.939064782186526
v 4.0597928172322 0.201573503225349 0.882173
v 3.97236998663886 0.402188172872256 1.082173
v 3.75574558945788 0.415613173944913 1.082173
v 3.76031185282796 0.342615594593197 1.05372710890674
v 3.99944972240113 0.408723013625708 1.05372710890674
v 4.02931775225658 0.341544208184254 0.911354050781562
v 4.08910848839499 0.207063619752966 1.05539691130952
v 3.93170150031577 0.330472422018218 1.0019541586558
v 3.89314597584205 0.219498781584396 1.082173
v 3.8476705 0.579933870371178 1.082173
v 3.8476705 0.624604140514143 1.082173
v 3.78287658807028 0.242286121352501 0.882173
v 3.84760297064955 0.244781364983226 0.882173
v 3.91220255628625 0.244212143640729 0.882173
v 3.91797538712602 0.201 0.937369971229601
v 3.87000949780982 0.201 1.082173
v 3.91694830401685 0.201 0.882173
v 3.82803241625901 0.289 0.99961536669385
v 3.64740507589992 0.153646894182424 0.882173
v 4.01963718744205 0.363317615515969 1.082173
v 3.65769702808044 0.336037048679794 0.992537855542665
v 4.02199017594454 0.358025302712627 1.00454206470488
v 3.78764825134299 0.408812559624703 0.911280720470959
v 3.84636388291963 0.686 0.961611583250954
v 3.66623058309164 0.356016634815243 0.90563773001226
v 3.60993254563902 0.0587778067859528 0.882173
v 4.03709196198817 0.097361391652504 1.00502125794318
v 3.86094222124322 0.201 0.999518379825352
v 3.81755749696094 0.627450016334142 0.882173
v 3.87163155500418 0.541916040614111 0.882173
v 4.12805075127888 0.119475160976548 1.05372710890674
v 3.79830041385112 0.665231323897152 0.928219117612868
v 3.68777348750268 0.406454970740067 1.05037408256209
v 3.76216903680015 0.499712265677311 1.082173
v 3.63784276541774 0.289552324493416 0.995274886304255
v 3.60039304159821 0.201871401148019 0.950364229385242
v 3.62376062579052 0.256581854239931 0.953855047424717
v 3.94487872917199 0.201 1.02643253936467
v 3.76402860805759 0.351615972453182 0.961960862592473
v 3.58249268722892 0 1.02431396186797
v 3.58249268722892 0 0.939804002926047
v 3.5841225925757 0 0.97824587134041
v 3.89772562095678 0.406763714760674 0.939323189047989
v 3.72838217247166 0.217721585253517 1.082173
v 4.12646846964427 0.0342285217236313 0.882173
v 3.90443951961253 0.622418793326541 1.05372710890674
v 4.00007140954207 0.407324722553659 0.981682110419472
v 3.74262208428373 0.534871821906622 0.91672485274854
v 3.91523340864577 0.490831617417085 1.082173
v 3.57257959037735 0.0607058731656819 1.082173
v 4.05516700590833 0.153843818670567 0.882173
v 3.66098521433484 0.286817169161207 0.882173
v 3.840171 0.536 1.05101198452587
v 4.1392695493085 0.094553568932993 1.05372710890674
v 4.02793885661919 0.117578690324651 0.910618891093263
v 3.72609621806922 0.496179862100629 0.882173
v 3.77381006032446 0.37530243039355 1.00362652288901
v 3.90819631941092 0.383252237322757 0.908414068657841
v 4.081171 0 1.05113521402155
v 3.56871148525854 0.0306979297429286 0.882173
v 3.76580954885882 0.589160561491981 0.995916768707423
v 3.53769724959839 0.0550819359197784 0.944130152684608
v 3.54308801064952 0.0677033082101381 0.993355622625356
v 3.97644568853969 0.385116622336774 1.082173
v 3.88049277082033 0.289 0.943041060947754
v 3.81697604206897 0.658887740726579 1.082173
v 3.92831599107357 0.529671397990562 0.882173
v 3.79788677910335 0.433605857240454 0.910618891093263
v 4.16174237192164 0.043696382157822 0.930977912711707
v 4.16904284290882 0.0272762525928016 0.907651953413461
v 3.72206960214548 0.486752358606815 0.932586243842752
v 4.0256159813031 0.122709436901953 0.986465547625211
v 3.93423857875388 0.555395115967064 0.915819158968655
v 3.97952117227765 0.453546063487197 0.91074380369995
v 3.74429391262538 0.487898757994672 1.082173
v 3.82524642167141 0.201 0.912458593412509
v 3.65699203263797 0.334386445015873 1.01877690768703
v 3.55398814350713 0.0932237557880147 1.05379271855127
v 3.79186309864393 0.221228456349033 0.882173
v 4.14209021737151 0 1.05372710890674
v 3.744807771424 0.305071397467918 0.913167645282413
v 3.91436983136424 0.600083658255058 1.05372710890674
v 4.00947547513612 0.321182880193469 1.082173
v 4.08748915397616 0.147069800715705 1.082173
v 4.07784902879464 0.232388257820111 1.05084530763028
v 4.16584168011431 0.0344762685831244 0.994573858980669
v 3.62605342381803 0.0277717114816807 0.882173
v 3.7588790846948 0.201 0.910618891093263
v 4.06918423413458 0.251877007412088 1.06425260478117
v 3.91107666393364 0.376784554621725 1.04775517772943
v 3.90213331071086 0.396866447767439 1.0024375811252
v 3.97511053724927 0.463466409552156 1.05383463967699
v 3.98702030931546 0.436679096684236 1.0546754508374
v 3.77719099262927 0.558992201172962 0.882173
v 4.00914670041829 0.159086639735431 0.9679841010237
v 3.78026636352328 0.623008257259292 0.980296088308796
v 3.75995645618872 0.575456733602258 0.953953798621006
v 3.85751600708405 0.49705257500218 0.970547671106128
v 3.87012305313927 0.215485562780341 0.882173
v 3.85882786728511 0.559731116795007 1.082173
v 4.04430060300514 0.307844964535866 0.923431135686602
v 4.04430060300514 0.307844964535866 1.00964757131355
v 4.00908214506696 0.387057887022805 0.907139845462074
v 3.73071408804201 0.321826243753783 0.882173
v 3.69639946352176 0.366391900481371 0.882173
v 4.02278038334111 0.356247977954015 1.02939351752706
v 3.91868781444539 0.359694062108992 1.05372710890674
v 3.56285158571022 0.113975705792526 0.910618891093263
v 3.85384752800945 0.221796002171305 0.882173
v 3.77664721836252 0.382172803289625 0.908020502787664
v 3.96105148238133 0.318538716133249 0.882173
v 3.99095071003751 0.368965838462522 0.882173
v 3.96318095768141 0.314055388047532 1.082173
v 3.99174484307128 0.369547200873004 1.082173
v 3.990171 0.201 1.0525668717685
v 3.92325968755289 0.22645219584263 0.882173
v 4.08581131308486 0.214479585912686 0.882173
v 3.64105528786322 0.115118677622348 1.082173
v 3.70823300034586 0.305675837728776 0.882173
v 3.70988579763803 0.291582377065983 1.082173
v 3.614171 0 1.05275985296124
v 3.65865842283885 0.103976418495441 1.082173
v 3.886257464129 0.289 0.922532120908944
v 3.88876270831036 0.289 1.00322794344617
v 3.613462044281 0.232469816985544 1.05573274680406
v 3.66309141394567 0.114337246547447 0.967013835011281
v 3.64424412795509 0.0702871944066559 1.05372710890674
v 3.74697118913102 0.545054367726561 0.964915381153954
v 3.74871845815261 0.549145243319768 1.02698967773073
v 3.87020655409347 0.468556528535566 0.933962162558125
v 3.85209358557874 0.509228376018652 0.882173
v 3.87618808749768 0.456075783333579 0.882173
v 3.65285249300624 0.0904067452820308 0.969668614887222
v 3.76346326576789 0.289 1.00585466227641
v 3.55749268722892 0 0.910618891093263
v 3.55749268722892 0 1.05372710890674
v 3.614171 0 0.911358111832784
v 4.03339344312136 0.332377214412979 0.991562813199354
v 3.91492507576884 0.368143120773608 0.882173
v 3.65586754118486 0.130434831941162 0.882173
v 3.54068702123883 0.0620818790779454 0.925828911345815
v 3.89685893903858 0.201 0.998613277375625
v 3.87440863908255 0.241580901207504 1.082173
v 3.87866867331929 0.270153205906465 1.082173
v 3.9341152350956 0.325052490285338 1.03278852613379
v 3.514171 0 0.911107863243309
v 3.96098664695631 0.495233689907084 1.0546754508374
v 3.96830395711631 0.478775685881631 0.999680352512192
v 3.79269766599991 0.289 1.03408613330659
v 3.81052300834851 0.528622562343744 0.882173
v 3.76089103497751 0.508938197481733 0.882173
v 3.71481585756359 0.272038076058172 1.082173
v 3.64928721326344 0.0820739403017645 0.882173
v 3.87051638371043 0.467860820213853 1.01187032167867
v 4.058018049253 0.0511400340675549 0.99843589706479
v 4.12705058656699 0.121724719146766 0.917849294505337
v 3.80369459578497 0.447669883910661 1.082173
v 3.80830252899329 0.265228456349033 1.082173
v 3.58749790171936 0.114276777884074 1.082173
v 3.5996282356254 0.200080763273119 0.882173
v 3.76074927241439 0.577312951796157 1.05372710890674
v 3.96839677092369 0.201 0.957570399150114
v 3.75993725618223 0.57541178068604 0.882173
v 4.03784154804201 0.0957057125665466 0.912248804902348
v 3.75810093653452 0.36557514725115 0.882173
v 4.15127618063075 0.0672368108987335 0.973990703634863
v 3.68418924476143 0.163647292988928 1.01225452638794
v 4.04132502350913 0.314537601345362 0.900655015201143
v 3.7906087028707 0.415981496167285 1.05572626798665
v 4.01741327669133 0.140827498736724 1.05375587293252
v 3.86029297011115 0.490817030750413 1.05372710890674
v 4.14807960684122 0.0744265053555101 1.05564600860336
v 3.88297603127045 0.439883247965436 1.05006580217724
v 3.738171 0.289 0.910618891093263
v 3.83997256269394 0.53551947044513 0.912416499530439
v 3.950171 0.289 0.910618891093263
v 3.990171 0.201 0.910618891093263
v 3.81468648605087 0.474287500534952 0.910618891093263
v 3.81468648605087 0.474287500534952 1.05372710890674
v 3.94769064216795 0.525138900366174 1.05629000914606
v 4.02662891835576 0.120472070444979 1.05372710890674
v 3.58838692667768 0.173761521163444 0.910618891093263
v 3.75217919709941 0.55724786078566 0.909779449516593
v 4.07470394517959 0.239462141209649 0.914634995415213
v 3.94025425956975 0.201 0.913465306799232
v 3.94207982191411 0.348437112717553 1.082173
v 3.8206019731731 0.488612258566229 1.00265119199146
v 4.06422583079067 0.263029387236035 1.00964757131355
v 4.09994268146102 0.182695485944998 0.998742530483385
v 4.07248508665032 0.0191853690470997 0.900974029792082
v 4.08586556473098 0.0330775477352662 1.082173
v 3.57948920491516 0.152929312531743 0.933690916594717
v 3.96303927219846 0.490616950455114 0.954041639800819
v 3.68908449861364 0.175088525829542 0.882173
v 3.62851968943892 0.267724235341627 0.906012359374201
v 3.9311329316617 0.39729316234282 0.882173
v 3.62968440797506 0.0865043151983873 0.882173
v 3.79897666599009 0.6668146309529 0.975194424375426
v 4.10163001474146 0.0191853690470998 1.082173
v 3.6423374734021 0.235723485322957 1.082173
v 3.66625842327979 0.286472176001119 1.082173
v 3.88754570957531 0.6604161431065 1.082173
v 3.72767076643978 0.499866347364118 1.00372710890674
v 3.83553101346824 0.289 0.898869584073332
v 3.80377666865775 0.447868629004542 1.02484494682866
v 3.7592344266095 0.573766247966276 0.931254441987212
v 3.77902982942891 0.620113163782352 0.912095775817375
v 3.78130414699515 0.62543801651425 0.960652140927158
v 3.83941427392516 0.289 1.06185345883672
v 3.84999998643198 0.513929457739109 0.98500684123089
v 3.66527437176244 0.35377786016734 0.93811863549552
v 3.75755198075295 0.520067055409438 1.082173
v 3.81315054590217 0.529552793477431 1.082173
v 4.10526496926893 0.10693869812234 0.882173
v 3.62265163060632 0.0198210087426784 0.916651958668913
v 3.76439351096557 0.352499609887207 0.927549410990463
v 3.74724029652658 0.310961923941828 0.896395945546631
v 3.73646173679629 0.401215557233562 0.882173
v 3.79005054710355 0.583844308734105 1.082173
v 3.69460972355885 0.422460629219706 0.944114202378251
v 3.64735054411201 0.0775475391455137 1.0026302614763
v 3.57310112082563 0.137972910875027 1.03285461043697
v 4.00178642655843 0.176673284841808 1.082173
v 3.99793691554546 0.183846714014964 0.99617767692294
v 4.05771912489 0.0518002955726342 1.01900949934807
v 3.92029261876143 0.586762197678219 1.01482833912226
v 4.06346356665613 0.264743862353307 0.95567535318222
v 3.69340124406304 0.22922181371397 1.082173
v 3.68710557269076 0.282114228174517 1.082173
v 3.68941809049844 0.175868199885893 1.082173
v 4.13330782751255 0.107962600280719 1.082173
v 3.66343844945289 0.349479420903347 1.03063619124763
v 3.78227306670881 0.395796181147803 1.082173
v 3.672692964616 0.189867343932305 1.082173
v 4.15281161347559 0.0637833342264953 0.951851921509009
v 4.08431950933912 0.21783493255179 1.02939854394171
v 3.59533446147544 0.190027763044887 1.05115341230274
v 4.00138078487282 0.176239925720467 0.882173
v 3.75631211797765 0.418487890286127 0.882173
v 3.77028891465338 0.59964808686764 1.082173
v 3.84122992853731 0.201 1.05506863545931
v 3.6938526850249 0.420688177225531 1.02609096496175
v 3.66923689330392 0.12870051807079 0.898413526937819
v 4.05646169823293 0.202906275944065 1.082173
v 3.74505854963601 0.347406455362177 1.082173
v 3.77703391254606 0.438270324949416 0.882173
v 3.95720758565839 0.426630232344364 0.882173
v 3.92220671101857 0.351792539803747 0.998462967421569
v 4.13176115222574 0 0.957887878701155
v 4.02939699531723 0.34136597566675 1.04851708901217
v 3.87051638371043 0.467860820213853 0.990396682945113
v 3.85060412357487 0.512572895245507 1.0060973859781
v 3.62727294402621 0.264805234136445 0.974160129157212
v 3.94126965165524 0.539580913263661 1.00324619616066
v 3.96162861350933 0.493789786630768 0.980230967619953
v 3.74169068644744 0.471030872239591 0.882173
v 3.75649674914294 0.333377059199085 1.02534398371253
v 3.75798763286343 0.289 0.919148603070445
v 3.89120796463543 0.421398815773178 0.974331176755385
v 3.62036579639379 0.0746496194850117 1.082173
v 3.88552919477949 0.664951663386675 0.971540318390894
v 3.63085999071035 0.039005664334649 0.929588206520014
v 3.53305831778209 0 0.957731339017291
v 3.8481038057139 0.289 1.01924843411435
v 3.59705715279164 0.194061094931962 1.082173
v 3.81664688524388 0.201 0.990447752818325
v 3.77438134901327 0.201 1.01005225809003
v 3.77238029181204 0.201 0.987769930760966
v 3.94320788060773 0.304635368089911 1.06194021595915
v 3.93988509085684 0.312096541439645 1.00595109780772
v 3.83338230761045 0.686 1.00660736839541
v 3.84857502168896 0.517129151298416 0.963340864275888
v 3.84943394416882 0.289 0.937135460830704
v 3.99793691554546 0.183846714014964 0.957570399150114
v 4.10553136472616 0.170125488273251 0.936902648223542
v 4.08622643219054 0.213545905125237 0.941922115192212
v 3.8913306089887 0.289 1.06209000377794
v 4.02379412551088 0.35396788153252 0.97492440740851
v 3.86094222124322 0.201 0.956410162011878
v 3.92691024914148 0.201 0.956410162011878
v 3.81981182418389 0.486698858562951 0.963001901882422
v 3.83379987151272 0.520571875133738 0.999654422335438
v 3.69408561045285 0.421233524814514 0.882173
v 3.92373310548047 0.579023897259982 0.882173
v 3.92247394062785 0.581855995361606 0.987171283304943
v 3.90257976961136 0.62660172015844 0.967719836060849
v 3.72431585756359 0.310961923941828 1.082173
v 3.63286555549305 0.203418145428081 0.882173
v 3.91389264375849 0.289 0.999449545953411
v 3.52196221551162 0.0182415489452859 0.901865998066198
v 3.73985112897352 0.380490882656773 0.882173
v 3.87414971987152 0.265132050180413 0.882173
v 4.03720378135236 0.0971144060239115 1.03009776750013
v 3.66317688868262 0.348867029475343 0.956591501800392
v 3.85908878807813 0.6668146309529 0.882173
v 3.79869926414102 0.43557334551797 1.00372710890674
v 3.80865794513875 0.459688974992859 1.00200490208457
v 3.80935741208092 0.461382782195958 0.960618891093263
v 3.85001324052281 0.289 1.03791893850068
v 3.57929765522038 0.152480837819718 0.996787579047671
v 3.5602075125128 0.10778514533713 1.01600340256371
v 4.06596673112739 0.0837309945573395 0.882173
v 3.67501547484359 0.142206272599554 0.924841836639894
v 3.81485310433388 0.654983484314521 0.882173
v 3.87028247777411 0.65020351621293 0.882173
v 3.93183602228535 0.330170359050172 0.939658310102088
v 3.89314781518479 0.647815956062921 0.981054331499764
v 3.68982029297626 0.347922820505278 1.082173
v 3.69718300511978 0.428485445434021 1.00302284121511
v 3.68807318368911 0.40715664850079 0.960618891093263
v 3.9255147083347 0.3443645821939 1.082173
v 3.90660188819847 0.386832460136162 1.06795005445337
v 3.86116255945171 0.48886440741298 0.910268078034017
v 3.88387158047553 0.437872332932228 0.901949709700443
v 3.87998434997643 0.446600932325663 0.956350678446756
v 3.82742874302544 0.557966935185589 0.882173
v 3.82742874302544 0.557966935185589 1.082173
v 3.67998478090859 0.388219295915664 0.908665222878546
v 4.03709196198817 0.097361391652504 1.082173
v 3.74178238422034 0.532905834727496 1.06644865494949
v 4.081171 0 0.907516860713971
v 3.75237897386736 0.323405583776843 1.00321858134441
v 3.75367216857226 0.326537143503403 0.956731692192236
v 3.76274860879908 0.348516366405609 1.00324463740128
v 3.74813517822209 0.313128941380952 0.882173
v 3.82023692001243 0.23551242843226 1.082173
v 4.00278903399232 0.343572247552504 0.882173
v 4.00810703809989 0.389251085621505 1.05734144481904
v 3.89789382854684 0.637141281174252 1.0292198969774
v 3.88370837277027 0.669047033857805 1.06141970456847
v 3.79737747709211 0.4945219775879 0.882173
v 3.75502296588677 0.289 1.06151591053255
v 4.02379412551088 0.35396788153252 0.939064782186526
v 3.74191427378157 0.533214627352066 1.082173
v 3.539171 0 0.882173
v 3.589171 0 0.882173
v 3.539171 0 1.082173
v 3.589171 0 1.082173
v 4.15617025 0 0.882173
v 4.15617025 0 1.082173
v 4.10617075 0 0.882173
v 4.10617075 0 1.082173
v 4.12991586670738 0.0640515874890475 1.082173
v 3.61079887148742 0.192379442216427 1.082173
v 3.89770675024833 0.492466511885569 0.882173
v 3.78096919309601 0.624653789979057 0.882173
v 3.52236533400991 0.0191853690470998 0.926317883495861
v 3.85031248598936 0.513227754187527 1.082173
v 4.1147345605288 0.14942577345252 0.961431333660816
v 4.12442116033466 0 0.92794194043616
v 3.78863968915489 0.411213394326059 1.00372710890674
v 3.77980248503697 0.389813498079732 0.963420388690328
v 3.79175390761361 0.201 1.02956838559392
v 3.78351430416631 0.398801922834108 0.939072752790922
v 4.06375801350845 0.264081596114088 0.98467251419465
v 3.95379231510356 0.511415092636235 0.966229411333185
v 4.09936769676562 0.127420112117127 1.082173
v 3.98200107694241 0.447968292412459 1.082173
v 3.56705868553083 0.123825775679693 1.06390341865454
v 3.85015148412179 0.513589276562887 1.02256609343261
v 3.97011585204971 0.428014562376657 1.082173
v 3.77048367407212 0.229944352002238 1.082173
v 3.66098521433484 0.252969473393895 0.882173
v 3.90459491256767 0.559626352104485 1.082173
v 4.07274754338875 0.0186056569105704 0.946125347459627
v 4.09913073368576 0 1.03691226847492
v 3.59255161808556 0.183512300364154 0.967548092143885
v 3.9759849513793 0.289247349471816 1.082173
v 4.02060227588594 0.29501048963073 1.082173
v 4.04426875501455 0.307916596644644 1.02873541164646
v 3.81673940926447 0.201 1.082173
v 3.79795109717187 0.664413469829026 0.897990748532445
v 3.90885073090232 0.612497151141517 1.082173
v 3.82190372250859 0.686 0.96288024888974
v 3.807171 0.686 0.980783360130043
v 3.54974006119343 0 0.998824066632954
v 4.15244394634914 0 1.00308616151535
v 3.93039399669925 0.289 0.956463935995559
v 3.79487949898513 0.65722194642935 1.01607314276216
v 3.79609097157259 0.660058363477121 1.05825492640905
v 3.93083002007804 0.563061604223183 0.976344265721259
v 4.04864139636733 0.071851102529311 1.00961577718883
v 4.04755500562058 0.0742507128600294 1.05782007451822
v 3.7503249132097 0.266973236370063 0.882173
v 4.07121048817375 0.0788527232029301 1.082173
v 4.06729444936559 0.128728907520644 1.082173
v 3.72444472907631 0.201 1.082173
v 3.7120749523518 0.463122907236516 0.89228013906979
v 3.80293874074795 0.289 1.05192094594374
v 3.738171 0.289 0.988929831827167
v 3.97380068922939 0.221121763766903 0.882173
v 3.960171 0.267 1.082173
v 3.980171 0.223 1.082173
v 4.00623037393993 0.296677148017173 0.882173
v 3.96942773910889 0.201 1.01065944311206
v 3.9290555376541 0.201 0.985678099871264
v 3.58148391258926 0.0963051827416851 0.882173
v 3.95329301011273 0.344603025983996 0.882173
v 4.10906492253215 0.0585082993213982 1.082173
v 3.709671 0.223 0.882173
v 3.709671 0.223 1.082173
v 3.73268764041621 0.2633298484321 1.082173
v 4.04813820835131 0.299213469785148 1.04726897542872
v 3.64896796026005 0.315599709004754 1.00179123226996
v 3.76495885060963 0.538403883493843 1.082173
v 3.94839677092369 0.265228456349033 0.882173
v 3.82629987151272 0.686 1.06795005445337
v 3.96242122973169 0.359020235110215 1.082173
v 3.78736594214351 0.586786576620492 0.882173
v 3.73671340800027 0.34841476100307 0.882173
v 3.86937493890934 0.289 1.05946183094034
v 3.91114573195413 0.419700057622488 1.082173
v 4.17243333841501 0.0196503917957218 0.978293068604837
v 3.80613059122242 0.265187415107625 0.882173
v 3.98529829052011 0.395601921719117 0.882173
v 4.15278060517801 0.063853077708085 0.924911914458072
v 3.71275795621641 0.464951030595407 1.00720992705831
v 3.840171 0.536 0.996111275958521
v 3.61055473531565 0.225662943435272 1.00302650551152
v 3.63158927300578 0.274911041917975 1.03141706742801
v 3.60542912620152 0.213662370560547 1.04450489398339
v 3.55357880685801 0.092265377148784 1.00236798378352
v 3.56973254134124 0.130086066075387 0.978693277246857
v 3.55461477841674 0.0946908941770847 0.961705565017748
v 3.56237599916822 0.112862216482595 0.960618891093263
v 4.10303124349315 0 0.997475286206092
v 4.0650684578192 0.261134160885861 0.906910620604665
v 3.75092933951629 0.440270771849582 1.082173
v 3.77003150953994 0.477886265513641 1.082173
v 4.03830882650326 0.321321594558554 1.04193419379532
v 3.92556850677561 0.289 0.894411390557534
v 3.88106928763835 0.289 0.89890310172825
v 3.93170150031577 0.330472422018218 0.975135908263895
v 3.76219491439843 0.347866976170293 1.082173
v 3.8378514581295 0.289 0.917763772781033
v 4.07482604644271 0.0140146776375402 0.994261488539678
v 3.876171 0.686 1.01149338923301
v 3.876171 0.686 1.05861312974434
v 3.96812281544998 0.201 0.993340515637637
v 3.807171 0.686 0.90570773609929
v 3.58708280249014 0.170708179208998 1.05867223920361
v 3.62199431884209 0.252446405207075 1.06411163694691
v 3.89028761356715 0.423465422262862 1.082173
v 3.86041275697456 0.524119239418278 1.082173
v 3.614171 0 0.999879593472564
v 3.52247008224528 0.019430615768801 0.989541228452877
v 3.990171 0.201 0.999518379825352
v 3.52568391537189 0.0269551533962972 1.06301848067913
v 3.52627682440762 0.028343329500424 1.01272878151667
v 3.58115851934545 0.156837673279789 0.896395945546631
v 3.78607966106189 0.63661891292988 1.0575278753732
v 4.06731061298922 0.0306147009798601 0.989026636938568
v 4.01595544211955 0.20956005871793 0.882173
v 3.65572172241839 0.0971127349546105 1.02915179583428
v 3.82590528408049 0.221228456349033 0.882173
v 3.8211911770575 0.201 0.96700350251471
v 4.01226789941098 0.194190380290861 1.082173
v 3.77565509292103 0.557415717467223 1.082173
v 3.64827667496708 0.313981204871719 0.882173
v 3.92718247947247 0.289 1.082173
v 4.12980995453601 0 0.980022105359992
v 3.93477305874821 0.289 1.01606155579586
v 3.61086627849933 0.226392358534266 0.936128238788532
v 3.59154183530899 0.18114809905108 1.01194529525784
v 4.04755500562058 0.0742507128600294 0.961913040129702
v 3.78676482921786 0.406673292321685 1.03967124183391
v 3.90907383501933 0.611995348105205 1.01265162155798
v 3.88492136649336 0.666318783292922 1.04127347514036
v 3.88587986286554 0.664162945039951 0.99256438099316
v 3.7588790846948 0.221228456349033 0.882173
v 3.72620003678569 0.448940201957355 0.882173
v 3.82410478311092 0.289 0.941023222788308
v 3.742082597531 0.201 1.00372710890674
v 3.72881087628778 0.201 0.960618891093263
v 3.83916176892243 0.624388346855611 0.882173
v 3.79442566239982 0.425224525615253 0.962017675482494
v 3.7455075972168 0.369581846316563 1.082173
v 3.76636248775529 0.537258912806623 0.882173
v 3.92788235755203 0.289 0.882173
v 3.52236533400991 0.0191853690470998 0.947871992402598
v 3.99039004759053 0.429099922796122 1.00291243710096
v 3.98518759853648 0.440801207230112 0.9606621616467
v 3.7659590270045 0.356290614412847 0.882173
v 3.75799510519551 0.390273127153602 1.082173
v 3.77116475826373 0.368896649913143 1.04395454331611
v 3.7725336454213 0.372211504108441 0.960618891093263
v 3.66882862259489 0.127746303971777 0.882173
v 3.59746609980589 0 1.0386955942059
v 3.83345074992807 0.519726453257186 0.924530203269029
v 4.08267989992854 0.221522721874563 0.962393429390846
v 3.73232774846945 0.334016598361156 1.082173
v 4.01191055291027 0.380696266884652 0.962090970863857
v 4.081171 -1.73472347597681e-18 0.998254954532875
v 4.081171 -1.73472347597681e-18 0.954636601225297
v 3.7718577857193 0.201 1.082173
v 3.69178582494786 0.181402090866518 0.914902270410336
v 3.64321493015799 0.06788174374136 0.91371742869886
v 3.89946048701036 0.289 1.04417979166945
v 3.79800662808996 0.664543484196979 0.998935200038314
v 4.03372441867529 0.149474979691084 1.082173
v 4.0952377071962 0.0189428393194609 0.882173
v 3.79337587807126 0.289 0.909589927726784
v 3.75729987151272 0.289 0.892161903623791
v 3.78164386591834 0.443196893924837 1.082173
v 3.53249268722892 0 1.03663737053576
v 3.68526861152415 0.400590312305693 1.00471224218413
v 3.76850699695829 0.5954760884416 0.941310193131252
v 3.80280987599621 0.289 1.082173
v 3.99607646380757 0.416310105370862 0.992575220949668
v 4.00609722005539 0.393771543650967 0.950010281458929
v 4.06741310070113 0.255860618949658 1.04196713982738
v 3.73893859862311 0.222186853207722 0.882173
v 4.06250383001203 0.266902490210607 0.929002140514132
v 3.65460938990706 0.328807970908686 1.082173
v 4.04636577887323 0.169082116757588 1.082173
v 3.67032361293257 0.263301971306393 1.082173
v 3.67897711689505 0.208758553161183 1.082173
v 3.75275124879945 0.489965275086585 0.882173
v 3.80440751280348 0.511114913707409 0.882173
v 3.91662762770685 0.364320117785529 0.955354749608094
v 3.59833184361446 0 0.896395945546631
v 3.56803017372885 0 0.924035290497452
v 3.61771638650285 0.242430495361621 1.03738287082269
v 4.07327089935342 0.0174496728567311 0.882173
v 3.88470091016618 0.6668146309529 0.882173
v 3.83149748097408 0.686 0.932933494886885
v 3.71240716415471 0.464129722218887 1.04919247072144
v 3.72286700380253 0.48861931265712 1.05544561546882
v 3.79897666599009 0.6668146309529 0.882173
v 4.06047651498879 0.0958577356986613 0.882173
v 3.73222645117805 0.432080941034886 0.882173
v 3.93914006971968 0.544370742764068 1.0342777240145
v 4.08134148653742 0.224533064814411 0.93030871840286
v 4.14558984388308 0.0800264495824791 0.882173
v 3.91418945236655 0.236073843479807 1.082173
v 3.68595868768432 0.16778285144824 0.966786324839263
v 3.87018147269019 0.662623391477031 1.082173
v 3.62766501031585 0.122989977512477 1.082173
v 3.79390697900701 0.289 0.981115381592582
v 3.876171 0.686 0.941792655317418
v 3.78748782279385 0.289 0.959836315589125
v 3.75729987151272 0.289 0.934830740263685
f 1 986 420
f 1 420 1031
f 1 842 986
f 1 1031 842
f 2 1033 290
f 2 290 1144
f 2 666 679
f 2 1144 666
f 2 679 1033
f 3 622 783
f 3 1032 622
f 3 783 833
f 3 833 1217
f 3 1217 1032
f 4 323 525
f 4 817 323
f 4 525 618
f 4 618 1034
f 4 1034 817
f 5 503 531
f 5 890 503
f 5 531 631
f 5 606 619
f 5 664 606
f 5 619 1192
f 5 631 1096
f 5 1096 664
f 5 1192 890
f 6 649 607
f 6 607 1083
f 6 680 649
f 6 926 680
f 6 1083 740
f 6 740 1097
f 6 1097 924
f 6 924 1213
f 6 930 926
f 6 1213 930
f 7 592 1080
f 7 1199 592
f 7 632 815
f 7 1080 632
f 7 777 870
f 7 913 777
f 7 815 800
f 7 800 1021
f 7 870 1199
f 7 1021 913
f 8 659 228
f 8 228 983
f 8 641 520
f 8 520 1028
f 8 1098 641
f 8 1028 659
f 8 816 848
f 8 983 816
f 8 848 1098
f 9 660 403
f 9 403 1000
f 9 1136 660
f 9 1000 1225
f 9 1068 1136
f 9 1225 1068
f 10 177 762
f 10 1076 177
f 10 587 1076
f 10 1103 587
f 10 762 661
f 10 661 1103
f 11 504 691
f 11 871 504
f 11 687 584
f 11 584 726
f 11 827 652
f 11 652 871
f 11 1012 687
f 11 691 846
f 11 726 827
f 11 846 1012
f 12 749 600
f 12 600 1044
f 12 675 796
f 12 1140 675
f 12 692 749
f 12 909 692
f 12 796 1013
f 12 1013 909
f 12 1044 1140
f 13 563 533
f 13 533 1221
f 13 537 563
f 13 660 537
f 13 991 660
f 13 1221 991
f 14 661 508
f 14 508 1233
f 14 538 661
f 14 1134 538
f 14 898 1026
f 14 1233 898
f 14 1026 1134
f 15 578 380
f 15 380 807
f 15 602 502
f 15 502 1102
f 15 872 578
f 15 807 602
f 15 1127 872
f 15 1102 1175
f 15 1175 1127
f 16 809 251
f 16 251 965
f 16 532 682
f 16 965 532
f 16 599 1088
f 16 1156 599
f 16 682 1156
f 16 1064 809
f 16 1088 1064
f 17 1087 120
f 17 120 1149
f 17 644 359
f 17 359 1087
f 17 873 644
f 17 668 873
f 17 934 668
f 17 1149 934
f 18 580 128
f 18 128 1089
f 18 541 336
f 18 336 671
f 18 667 541
f 18 811 567
f 18 567 919
f 18 1153 580
f 18 1089 667
f 18 671 811
f 18 919 1153
f 19 647 1017
f 19 1037 647
f 19 1017 886
f 19 886 1220
f 19 1197 1037
f 19 1220 1197
f 20 549 591
f 20 887 549
f 20 591 755
f 20 755 1038
f 20 895 887
f 20 1038 895
f 21 193 766
f 21 1035 193
f 21 673 624
f 21 624 1035
f 21 766 673
f 22 653 78
f 22 78 654
f 22 662 653
f 22 654 1036
f 22 1036 662
f 23 605 110
f 23 110 767
f 23 412 615
f 23 916 412
f 23 767 604
f 23 604 916
f 23 615 605
f 24 154 156
f 24 627 154
f 24 156 158
f 24 158 626
f 24 626 990
f 24 721 627
f 24 907 721
f 24 990 907
f 25 735 630
f 25 630 912
f 25 638 806
f 25 912 638
f 25 1182 735
f 25 806 1050
f 25 1050 1048
f 25 1048 1182
f 26 680 97
f 26 97 681
f 26 427 680
f 26 863 427
f 26 681 863
f 27 753 657
f 27 657 1181
f 27 700 953
f 27 1181 700
f 27 1020 753
f 27 953 1020
f 28 62 685
f 28 1052 62
f 28 112 521
f 28 769 112
f 28 521 1052
f 28 685 769
f 29 552 865
f 29 901 552
f 29 657 1047
f 29 1162 657
f 29 865 1162
f 29 992 901
f 29 1047 992
f 30 874 31
f 30 31 994
f 30 764 874
f 30 1172 764
f 30 994 1172
f 31 504 693
f 31 874 504
f 31 693 611
f 31 611 977
f 31 977 994
f 32 875 552
f 32 552 901
f 32 689 875
f 32 883 689
f 32 993 883
f 32 901 993
f 33 115 586
f 33 1196 115
f 33 780 131
f 33 131 1211
f 33 586 1082
f 33 1082 780
f 33 1211 1196
f 34 78 79
f 34 654 78
f 34 79 1039
f 34 439 654
f 34 895 439
f 34 1095 895
f 34 1039 1095
f 35 79 868
f 35 1039 79
f 35 927 456
f 35 456 1039
f 35 868 750
f 35 750 927
f 36 1022 38
f 36 38 1058
f 36 338 1067
f 36 1191 338
f 36 1067 1022
f 36 1058 1191
f 37 740 337
f 37 337 1058
f 37 462 740
f 37 1098 462
f 37 1058 641
f 37 641 1098
f 38 854 641
f 38 641 1058
f 38 1022 854
f 39 339 712
f 39 1022 339
f 39 839 572
f 39 572 1022
f 39 712 705
f 39 705 839
f 40 340 541
f 40 705 340
f 40 541 667
f 40 667 599
f 40 599 1231
f 40 1231 705
f 41 291 290
f 41 290 1033
f 41 746 291
f 41 436 618
f 41 1033 436
f 41 618 746
f 42 44 855
f 42 956 44
f 42 294 292
f 42 292 746
f 42 855 294
f 42 746 525
f 42 525 956
f 43 648 280
f 43 280 1040
f 43 295 293
f 43 293 648
f 43 961 295
f 43 1040 961
f 44 324 814
f 44 956 324
f 44 648 855
f 44 1234 648
f 44 814 1234
f 45 280 526
f 45 1040 280
f 45 297 296
f 45 296 1040
f 45 896 297
f 45 526 896
f 46 280 556
f 46 930 280
f 46 326 325
f 46 325 926
f 46 556 326
f 46 926 930
f 47 299 897
f 47 1210 299
f 47 1004 300
f 47 300 1210
f 47 816 391
f 47 391 1004
f 47 925 816
f 47 897 925
f 48 302 125
f 48 125 699
f 48 303 302
f 48 547 303
f 48 498 547
f 48 1124 498
f 48 699 1124
f 49 50 231
f 49 1125 50
f 49 692 163
f 49 163 730
f 49 231 692
f 49 730 1125
f 50 853 231
f 50 1125 467
f 50 467 1200
f 50 1200 853
f 51 562 52
f 51 52 915
f 51 915 486
f 51 486 1013
f 51 706 562
f 51 1013 706
f 52 177 176
f 52 176 915
f 52 762 177
f 52 707 508
f 52 508 762
f 52 562 707
f 53 950 521
f 53 521 1077
f 53 981 922
f 53 922 1228
f 53 1228 950
f 53 1077 981
f 54 589 112
f 54 112 769
f 54 265 506
f 54 980 265
f 54 769 266
f 54 266 980
f 54 506 589
f 55 506 628
f 55 982 506
f 55 628 533
f 55 533 1236
f 55 957 1003
f 55 1236 957
f 55 1003 982
f 56 799 617
f 56 617 1206
f 56 702 799
f 56 1029 702
f 56 974 1029
f 56 1188 974
f 56 1206 1188
f 57 690 424
f 57 424 718
f 57 522 743
f 57 1188 522
f 57 743 690
f 57 718 974
f 57 974 1188
f 58 625 114
f 58 114 789
f 58 424 690
f 58 701 424
f 58 1177 625
f 58 690 1177
f 58 789 701
f 59 770 60
f 59 60 1178
f 59 522 617
f 59 1178 522
f 59 617 561
f 59 561 770
f 60 889 61
f 60 61 1178
f 60 770 656
f 60 656 889
f 61 625 497
f 61 497 1178
f 61 585 844
f 61 951 585
f 61 844 625
f 61 889 951
f 62 656 685
f 62 889 656
f 62 1052 889
f 63 144 585
f 63 843 144
f 63 585 376
f 63 376 950
f 63 876 843
f 63 1228 876
f 63 950 1228
f 64 798 452
f 64 452 884
f 64 513 603
f 64 923 513
f 64 603 798
f 64 884 1051
f 64 1051 923
f 65 66 646
f 65 884 66
f 65 179 923
f 65 1186 179
f 65 646 614
f 65 614 1186
f 65 1051 884
f 65 923 1051
f 66 932 646
f 66 781 932
f 66 1207 781
f 66 884 1207
f 67 68 603
f 67 974 68
f 67 603 797
f 67 797 702
f 67 702 1029
f 67 1029 974
f 68 834 603
f 68 974 834
f 69 319 318
f 69 318 1099
f 69 946 319
f 69 1126 946
f 69 1099 1126
f 70 718 802
f 70 834 718
f 70 798 834
f 70 1066 798
f 70 802 946
f 70 946 1126
f 70 1126 1066
f 71 72 73
f 71 181 72
f 71 73 727
f 71 601 181
f 71 727 601
f 72 74 73
f 72 885 74
f 72 181 885
f 73 74 703
f 73 322 77
f 73 77 727
f 73 321 322
f 73 703 321
f 74 885 646
f 74 646 932
f 74 932 703
f 75 76 579
f 75 868 76
f 75 579 184
f 75 184 601
f 75 601 750
f 75 750 868
f 76 79 78
f 76 78 653
f 76 868 79
f 76 187 579
f 76 653 187
f 77 80 727
f 77 1053 80
f 77 322 780
f 77 780 1053
f 80 927 727
f 80 1053 927
f 81 461 1080
f 81 1096 461
f 81 492 708
f 81 1080 492
f 81 708 1166
f 81 1208 1096
f 81 1166 1208
f 82 83 709
f 82 1110 83
f 82 775 708
f 82 708 1110
f 82 709 1151
f 82 1151 775
f 83 407 408
f 83 1110 407
f 83 408 988
f 83 988 709
f 84 710 357
f 84 357 795
f 84 534 710
f 84 988 534
f 84 805 709
f 84 709 988
f 84 795 805
f 85 86 720
f 85 967 86
f 85 241 87
f 85 87 967
f 85 1070 240
f 85 240 1071
f 85 1071 241
f 85 720 1070
f 86 967 88
f 86 88 1133
f 86 1133 89
f 86 89 1236
f 86 1236 720
f 87 538 88
f 87 88 967
f 87 241 587
f 87 587 538
f 88 469 1133
f 88 1134 469
f 88 538 1134
f 89 1133 576
f 89 576 1165
f 89 1165 957
f 89 957 1236
f 90 139 543
f 90 958 139
f 90 333 332
f 90 332 958
f 90 670 333
f 90 543 670
f 91 670 92
f 91 92 823
f 91 323 817
f 91 823 323
f 91 334 670
f 91 817 334
f 92 670 917
f 92 1150 823
f 92 917 1150
f 93 328 95
f 93 95 822
f 93 829 139
f 93 139 1193
f 93 1193 328
f 93 822 829
f 94 616 681
f 94 822 616
f 94 681 1150
f 94 829 822
f 94 917 829
f 94 1150 917
f 95 328 999
f 95 1232 822
f 95 999 1232
f 96 216 217
f 96 1232 216
f 96 217 218
f 96 218 863
f 96 863 616
f 96 616 1232
f 97 325 326
f 97 680 325
f 97 326 818
f 97 1150 681
f 97 818 1150
f 98 393 591
f 98 1132 393
f 98 591 511
f 98 511 921
f 98 921 851
f 98 851 1148
f 98 1148 1132
f 99 101 100
f 99 100 369
f 99 595 101
f 99 369 368
f 99 368 886
f 99 886 394
f 99 394 1061
f 99 1061 595
f 100 101 860
f 100 370 369
f 100 371 370
f 100 860 371
f 101 105 104
f 101 104 860
f 101 1161 105
f 101 595 1161
f 102 768 105
f 102 105 1161
f 102 595 851
f 102 1161 595
f 102 723 768
f 102 1078 723
f 102 851 1078
f 103 106 233
f 103 768 106
f 103 233 791
f 103 791 768
f 104 105 696
f 104 696 751
f 104 751 860
f 105 768 696
f 106 768 107
f 106 107 866
f 106 567 233
f 106 866 567
f 107 593 877
f 107 989 593
f 107 768 723
f 107 723 989
f 107 877 866
f 108 150 758
f 108 1120 150
f 108 758 514
f 108 514 759
f 108 759 517
f 108 517 1120
f 109 515 398
f 109 398 820
f 109 405 761
f 109 820 405
f 109 761 515
f 110 157 596
f 110 605 157
f 110 596 767
f 111 511 549
f 111 1079 511
f 111 549 1081
f 111 586 1015
f 111 1081 586
f 111 1015 593
f 111 593 1079
f 112 589 454
f 112 454 1077
f 112 1077 521
f 113 575 140
f 113 140 786
f 113 413 683
f 113 786 413
f 113 787 575
f 113 683 787
f 114 144 788
f 114 844 144
f 114 625 844
f 114 788 789
f 115 116 866
f 115 1196 116
f 115 1015 586
f 115 877 593
f 115 593 1015
f 115 866 877
f 116 542 919
f 116 1196 542
f 116 567 866
f 116 919 567
f 117 481 757
f 117 793 481
f 117 757 792
f 117 792 904
f 117 1203 793
f 117 904 1203
f 118 235 236
f 118 371 235
f 118 236 747
f 118 695 371
f 118 747 695
f 119 415 801
f 119 815 415
f 119 801 464
f 119 464 1106
f 119 800 815
f 119 1106 800
f 120 261 476
f 120 502 261
f 120 458 502
f 120 1087 458
f 120 476 1149
f 121 122 368
f 121 597 122
f 121 123 650
f 121 998 123
f 121 368 369
f 121 369 998
f 121 650 597
f 122 1197 368
f 122 597 741
f 122 741 1197
f 123 695 264
f 123 264 910
f 123 910 650
f 123 1226 695
f 123 998 1226
f 124 276 264
f 124 264 747
f 124 697 276
f 124 479 697
f 124 747 479
f 125 302 494
f 125 494 1173
f 125 1180 699
f 125 1173 1180
f 126 422 807
f 126 1023 422
f 126 807 1094
f 126 808 1023
f 126 1094 808
f 127 488 716
f 127 809 488
f 127 716 810
f 127 1104 809
f 127 810 1104
f 128 129 309
f 128 580 129
f 128 309 1065
f 128 570 459
f 128 459 1089
f 128 1065 570
f 129 524 309
f 129 320 524
f 129 940 320
f 129 580 491
f 129 491 940
f 130 157 590
f 130 824 157
f 130 173 757
f 130 825 173
f 130 757 481
f 130 481 824
f 130 590 825
f 131 321 320
f 131 320 940
f 131 322 321
f 131 780 322
f 131 940 480
f 131 480 1211
f 132 254 828
f 132 1041 254
f 132 827 255
f 132 255 1041
f 132 828 536
f 132 536 1009
f 132 1009 827
f 133 850 135
f 133 135 948
f 133 906 794
f 133 794 947
f 133 947 850
f 133 948 906
f 134 577 136
f 134 136 850
f 134 955 577
f 134 947 629
f 134 629 1011
f 134 850 947
f 134 1011 955
f 135 850 594
f 135 594 867
f 135 867 600
f 135 600 1056
f 135 1056 948
f 136 683 413
f 136 413 869
f 136 577 683
f 136 594 850
f 136 869 594
f 137 410 138
f 137 138 1002
f 137 409 410
f 137 872 409
f 137 578 872
f 137 1002 578
f 138 410 411
f 138 411 966
f 138 966 704
f 138 704 1129
f 138 1129 1002
f 139 829 543
f 139 958 1193
f 140 495 803
f 140 841 495
f 140 575 944
f 140 704 841
f 140 944 704
f 140 803 786
f 141 142 739
f 141 1216 142
f 141 754 145
f 141 145 1216
f 141 739 754
f 142 487 575
f 142 1216 487
f 142 575 787
f 142 787 577
f 142 577 955
f 142 955 739
f 143 482 840
f 143 1156 482
f 143 599 1156
f 143 1231 599
f 143 839 705
f 143 705 1231
f 143 840 839
f 144 844 585
f 144 843 788
f 145 380 578
f 145 835 380
f 145 578 1002
f 145 754 835
f 145 1002 1216
f 146 401 846
f 146 1174 401
f 146 527 847
f 146 1027 527
f 146 846 1215
f 146 847 1174
f 146 1215 1027
f 147 172 281
f 147 857 172
f 147 281 1154
f 147 936 857
f 147 915 936
f 147 1154 915
f 148 421 420
f 148 420 986
f 148 837 421
f 148 514 758
f 148 1043 514
f 148 758 837
f 148 986 1043
f 149 150 804
f 149 837 150
f 149 227 423
f 149 804 227
f 149 423 421
f 149 421 837
f 150 151 804
f 150 1120 151
f 150 837 758
f 151 473 804
f 151 888 473
f 151 608 888
f 151 1119 608
f 151 1121 1119
f 151 1120 1121
f 152 732 553
f 152 553 878
f 152 888 608
f 152 608 1063
f 152 1063 732
f 152 878 888
f 153 665 530
f 153 530 949
f 153 732 620
f 153 620 1115
f 153 1115 665
f 153 1159 732
f 153 949 733
f 153 733 1159
f 154 733 156
f 154 627 430
f 154 430 891
f 154 612 733
f 154 891 612
f 155 298 297
f 155 297 896
f 155 897 298
f 155 896 555
f 155 555 1212
f 155 1212 897
f 156 731 158
f 156 949 731
f 156 733 949
f 157 899 590
f 157 824 596
f 157 605 899
f 158 717 626
f 158 1100 717
f 158 731 1100
f 159 610 165
f 159 165 1202
f 159 518 560
f 159 1202 518
f 159 560 626
f 159 928 610
f 159 626 717
f 159 717 773
f 159 773 928
f 160 288 651
f 160 1116 288
f 160 731 530
f 160 530 1116
f 160 651 548
f 160 548 773
f 160 1100 731
f 160 773 1100
f 161 354 554
f 161 903 354
f 161 554 902
f 161 564 903
f 161 1203 564
f 161 902 1203
f 162 518 164
f 162 164 1014
f 162 560 518
f 162 907 560
f 162 721 907
f 162 1014 721
f 163 909 486
f 163 486 1101
f 163 692 909
f 163 908 730
f 163 1101 908
f 164 518 1006
f 164 916 581
f 164 581 1014
f 164 1006 916
f 165 610 729
f 165 729 938
f 165 938 1202
f 166 752 437
f 166 437 1084
f 166 557 752
f 166 767 557
f 166 604 767
f 166 1084 604
f 167 630 237
f 167 237 777
f 167 347 638
f 167 913 347
f 167 912 630
f 167 638 912
f 167 777 913
f 168 169 1113
f 168 1223 169
f 168 938 289
f 168 289 1223
f 168 615 1005
f 168 1113 615
f 168 1005 938
f 169 574 590
f 169 1224 574
f 169 590 899
f 169 899 605
f 169 605 1113
f 169 1223 1224
f 170 744 596
f 170 596 824
f 170 879 744
f 170 824 793
f 170 793 902
f 170 902 879
f 171 304 305
f 171 1224 304
f 171 305 1016
f 171 1016 574
f 171 574 1224
f 172 1016 281
f 172 825 574
f 172 574 1016
f 172 857 825
f 173 474 558
f 173 857 474
f 173 558 757
f 173 825 857
f 174 355 903
f 174 1068 355
f 174 564 519
f 174 519 728
f 174 903 564
f 174 728 1068
f 175 894 519
f 175 519 904
f 175 558 655
f 175 792 558
f 175 655 1075
f 175 904 792
f 175 1195 894
f 175 1075 1195
f 176 177 1147
f 176 474 936
f 176 1147 474
f 176 936 915
f 177 1076 1147
f 178 274 634
f 178 1123 274
f 178 797 513
f 178 513 1209
f 178 634 864
f 178 864 797
f 178 1209 1123
f 179 880 1209
f 179 1229 880
f 179 1209 923
f 179 1186 972
f 179 972 1229
f 180 852 190
f 180 190 971
f 180 573 852
f 180 1045 573
f 180 971 1045
f 181 182 885
f 181 1045 182
f 181 663 573
f 181 573 1045
f 181 601 663
f 182 384 614
f 182 971 384
f 182 614 885
f 182 1045 971
f 183 189 188
f 183 188 674
f 183 1112 189
f 183 674 931
f 183 931 1112
f 184 579 862
f 184 663 601
f 184 674 663
f 184 862 674
f 185 365 477
f 185 1109 365
f 185 477 765
f 185 579 782
f 185 862 579
f 185 765 931
f 185 782 1109
f 185 931 862
f 186 194 189
f 186 189 1112
f 186 193 194
f 186 766 193
f 186 765 766
f 186 1112 765
f 187 653 367
f 187 367 782
f 187 782 579
f 188 189 852
f 188 573 674
f 188 852 573
f 189 192 852
f 189 1230 192
f 189 194 1230
f 190 275 191
f 190 191 971
f 190 278 275
f 190 852 278
f 191 275 276
f 191 276 582
f 191 546 384
f 191 384 971
f 191 582 546
f 192 278 852
f 192 910 278
f 192 650 910
f 192 1230 650
f 193 741 194
f 193 1035 741
f 194 741 597
f 194 597 1230
f 195 196 562
f 195 1069 196
f 195 1060 311
f 195 311 1069
f 195 562 706
f 195 796 675
f 195 675 1060
f 195 706 796
f 196 312 244
f 196 244 707
f 196 1069 312
f 196 707 562
f 197 199 198
f 197 198 1170
f 197 784 199
f 197 200 606
f 197 1170 200
f 197 606 784
f 198 199 964
f 198 1169 490
f 198 490 1170
f 198 964 1169
f 199 205 478
f 199 633 205
f 199 478 964
f 199 784 633
f 200 216 619
f 200 1170 216
f 200 619 606
f 201 203 202
f 201 202 607
f 201 963 203
f 201 607 204
f 201 204 1169
f 201 1169 963
f 202 203 337
f 202 337 607
f 203 1049 208
f 203 208 1067
f 203 1191 337
f 203 1067 338
f 203 338 1191
f 203 963 1049
f 204 218 490
f 204 649 218
f 204 490 1169
f 204 607 649
f 205 772 206
f 205 206 1152
f 205 1152 478
f 205 633 772
f 206 975 207
f 206 207 1152
f 206 645 209
f 206 209 975
f 206 772 645
f 207 210 724
f 207 975 210
f 207 724 565
f 207 565 962
f 207 962 1152
f 208 565 372
f 208 372 937
f 208 382 565
f 208 1049 382
f 208 937 1067
f 209 211 210
f 209 210 975
f 209 711 211
f 209 645 507
f 209 507 711
f 210 211 838
f 210 838 724
f 211 711 976
f 211 1092 838
f 211 976 1092
f 212 493 335
f 212 335 658
f 212 658 372
f 212 372 724
f 212 838 493
f 212 724 838
f 213 644 341
f 213 341 858
f 213 858 540
f 213 540 976
f 213 881 644
f 213 711 881
f 213 976 711
f 214 672 633
f 214 633 784
f 214 784 664
f 214 664 1166
f 214 775 672
f 214 1166 775
f 215 358 645
f 215 795 358
f 215 645 772
f 215 772 672
f 215 672 1151
f 215 805 795
f 215 1151 805
f 216 490 217
f 216 1170 490
f 216 1192 619
f 216 1232 1192
f 217 490 218
f 218 649 427
f 218 427 863
f 219 756 221
f 219 221 1093
f 219 568 722
f 219 1093 568
f 219 722 622
f 219 622 756
f 220 421 221
f 220 221 756
f 220 420 421
f 220 1031 420
f 220 756 434
f 220 434 1031
f 221 421 423
f 221 423 1093
f 222 223 613
f 222 715 223
f 222 623 224
f 222 224 715
f 222 613 623
f 223 836 331
f 223 331 849
f 223 568 613
f 223 893 568
f 223 715 836
f 223 849 893
f 224 623 426
f 224 426 856
f 224 503 715
f 224 984 503
f 224 856 984
f 225 631 226
f 225 226 1059
f 225 632 461
f 225 461 1096
f 225 1096 631
f 225 676 632
f 225 1059 676
f 226 428 429
f 226 984 428
f 226 429 430
f 226 430 748
f 226 631 531
f 226 531 984
f 226 748 1059
f 227 1093 423
f 227 623 613
f 227 613 1093
f 227 804 623
f 228 659 470
f 228 470 700
f 228 700 1130
f 228 1130 941
f 228 941 1187
f 228 1187 983
f 229 552 853
f 229 865 552
f 229 699 929
f 229 1200 699
f 229 853 1200
f 229 929 865
f 230 500 929
f 230 1181 500
f 230 1130 700
f 230 700 1181
f 230 929 1180
f 230 941 1130
f 230 1173 941
f 230 1180 1173
f 231 875 692
f 231 853 875
f 232 668 234
f 232 234 696
f 232 341 668
f 232 970 341
f 232 696 791
f 232 791 970
f 233 567 343
f 233 343 920
f 233 920 791
f 234 236 235
f 234 235 751
f 234 934 236
f 234 668 934
f 234 751 696
f 235 371 751
f 236 479 747
f 236 934 479
f 237 448 447
f 237 447 777
f 237 583 448
f 237 1019 583
f 237 630 1019
f 238 449 583
f 238 659 449
f 238 470 659
f 238 953 470
f 238 583 1018
f 238 1018 953
f 239 728 240
f 239 240 1222
f 239 1136 728
f 239 1222 1136
f 240 728 894
f 240 894 1071
f 240 1070 1222
f 241 453 587
f 241 1075 453
f 241 1071 894
f 241 894 1195
f 241 1195 1075
f 242 243 675
f 242 745 243
f 242 441 247
f 242 247 745
f 242 1044 441
f 242 675 1140
f 242 1140 1044
f 243 249 317
f 243 745 249
f 243 317 310
f 243 310 1060
f 243 1060 675
f 244 312 898
f 244 508 707
f 244 1233 508
f 244 898 1233
f 245 248 252
f 245 677 248
f 245 252 882
f 245 698 677
f 245 760 698
f 245 1104 760
f 245 882 1104
f 246 678 247
f 246 247 1108
f 246 248 677
f 246 1108 248
f 246 315 678
f 246 1054 315
f 246 677 1057
f 246 1057 1054
f 247 441 250
f 247 250 1139
f 247 678 745
f 247 1139 1108
f 248 253 252
f 248 1108 253
f 249 316 317
f 249 678 316
f 249 745 678
f 250 869 413
f 250 413 1139
f 250 441 594
f 250 594 869
f 251 495 965
f 251 1007 495
f 251 809 882
f 251 882 1007
f 252 253 1008
f 252 786 803
f 252 1008 786
f 252 803 1007
f 252 1007 882
f 253 413 1008
f 253 1139 413
f 253 1108 1139
f 254 637 385
f 254 385 828
f 254 684 637
f 254 1041 684
f 255 256 635
f 255 726 256
f 255 635 1041
f 255 827 726
f 256 257 266
f 256 726 257
f 256 266 763
f 256 763 635
f 257 258 265
f 257 584 258
f 257 265 980
f 257 980 266
f 257 726 584
f 258 267 265
f 258 643 267
f 258 346 643
f 258 687 346
f 258 584 687
f 259 686 569
f 259 569 1111
f 259 808 598
f 259 598 892
f 259 943 686
f 259 1111 808
f 259 892 943
f 260 271 270
f 260 270 686
f 260 684 271
f 260 609 637
f 260 943 609
f 260 637 684
f 260 686 943
f 261 502 263
f 261 263 634
f 261 274 476
f 261 634 274
f 262 272 263
f 262 263 1090
f 262 273 272
f 262 1023 273
f 262 602 422
f 262 422 1023
f 262 1090 602
f 263 272 634
f 263 502 1090
f 264 276 275
f 264 275 278
f 264 278 910
f 264 695 747
f 265 267 628
f 265 628 506
f 266 685 271
f 266 271 763
f 266 769 685
f 267 268 628
f 267 643 268
f 268 533 628
f 268 1221 533
f 268 643 1001
f 268 1001 1221
f 269 799 273
f 269 273 808
f 269 569 561
f 269 561 799
f 269 1111 569
f 269 808 1111
f 270 271 656
f 270 569 686
f 270 770 569
f 270 656 770
f 271 684 635
f 271 635 763
f 271 685 656
f 272 273 702
f 272 864 634
f 272 702 864
f 273 799 702
f 273 1023 808
f 274 277 476
f 274 1123 277
f 276 813 582
f 276 697 813
f 277 697 476
f 277 582 813
f 277 880 582
f 277 813 697
f 277 1123 880
f 279 462 848
f 279 924 462
f 279 555 924
f 279 1212 555
f 279 848 925
f 279 925 1212
f 280 930 526
f 280 648 556
f 281 1016 1030
f 281 1030 1101
f 281 1101 1154
f 282 514 639
f 282 759 514
f 282 535 759
f 282 1145 535
f 282 639 1142
f 282 1142 1145
f 283 759 535
f 283 535 774
f 283 774 621
f 283 621 997
f 283 1118 759
f 283 997 1118
f 284 290 291
f 284 1144 290
f 284 291 292
f 284 292 774
f 284 535 472
f 284 472 1144
f 284 774 535
f 285 293 295
f 285 1055 293
f 285 295 1137
f 285 588 918
f 285 1137 588
f 285 918 621
f 285 621 1055
f 286 996 588
f 286 588 1160
f 286 608 996
f 286 1063 608
f 286 669 620
f 286 620 1063
f 286 1160 669
f 287 296 297
f 287 961 296
f 287 297 821
f 287 821 1117
f 287 933 961
f 287 1117 933
f 288 471 299
f 288 299 651
f 288 1116 471
f 289 303 547
f 289 729 303
f 289 547 1223
f 289 938 729
f 291 746 292
f 292 294 774
f 293 294 855
f 293 1055 294
f 293 855 648
f 294 1055 774
f 295 961 933
f 295 933 1137
f 296 961 1040
f 297 298 1138
f 297 1138 821
f 298 299 471
f 298 897 299
f 298 471 1138
f 299 1210 651
f 300 301 548
f 300 1004 301
f 300 548 651
f 300 651 1210
f 301 302 610
f 301 1004 302
f 301 610 548
f 302 303 729
f 302 1004 494
f 302 729 610
f 304 771 305
f 304 547 498
f 304 498 771
f 304 1224 547
f 305 771 730
f 305 730 908
f 305 908 1030
f 305 1030 1016
f 306 738 307
f 306 307 959
f 306 387 842
f 306 959 387
f 306 737 738
f 306 1218 737
f 306 842 831
f 306 831 1218
f 307 388 959
f 307 1072 388
f 307 738 566
f 307 566 1072
f 308 389 1072
f 308 1201 389
f 308 832 679
f 308 679 1201
f 308 736 832
f 308 1072 736
f 309 524 318
f 309 318 1065
f 310 778 311
f 310 311 1060
f 310 317 876
f 310 922 778
f 310 876 1228
f 310 1228 922
f 311 778 1069
f 312 742 425
f 312 425 898
f 312 1069 742
f 313 314 698
f 313 701 314
f 313 698 760
f 313 1024 701
f 313 810 716
f 313 716 1024
f 313 760 810
f 314 1057 698
f 314 701 789
f 314 789 1054
f 314 1054 1057
f 315 316 678
f 315 843 316
f 315 788 843
f 315 1054 788
f 316 876 317
f 316 843 876
f 318 319 1065
f 318 524 523
f 318 523 1099
f 319 716 779
f 319 946 716
f 319 779 1065
f 320 321 703
f 320 785 524
f 320 703 781
f 320 781 785
f 323 823 324
f 323 324 956
f 323 956 525
f 324 818 814
f 324 823 818
f 325 680 926
f 326 556 814
f 326 814 818
f 327 783 330
f 327 330 1193
f 327 911 783
f 327 958 911
f 327 1193 958
f 328 849 331
f 328 331 939
f 328 1193 849
f 328 939 999
f 329 890 400
f 329 400 999
f 329 715 503
f 329 503 890
f 329 836 715
f 329 1183 836
f 329 999 939
f 329 939 1183
f 330 783 722
f 330 722 893
f 330 893 849
f 330 849 1193
f 331 836 1183
f 331 1183 939
f 332 333 738
f 332 737 528
f 332 528 833
f 332 738 737
f 332 833 911
f 332 911 958
f 333 670 1141
f 333 1141 738
f 334 1141 670
f 334 736 1141
f 334 1184 736
f 334 817 1184
f 335 336 340
f 335 493 336
f 335 340 658
f 336 541 340
f 336 493 734
f 336 734 671
f 337 1083 607
f 337 740 1083
f 337 1191 1058
f 339 658 712
f 339 937 658
f 339 1067 937
f 339 1022 1067
f 340 712 658
f 340 705 712
f 341 342 858
f 341 970 342
f 341 644 873
f 341 873 668
f 342 540 858
f 342 1135 540
f 342 791 920
f 342 970 791
f 342 920 1143
f 342 1143 1135
f 343 567 811
f 343 811 671
f 343 671 1091
f 343 1143 920
f 343 1091 1143
f 344 349 348
f 344 348 861
f 344 350 349
f 344 935 350
f 344 861 987
f 344 914 935
f 344 987 914
f 345 636 942
f 345 952 636
f 345 942 935
f 345 935 1227
f 345 1167 952
f 345 1227 1167
f 346 463 642
f 346 687 463
f 346 642 725
f 346 1171 643
f 346 725 1171
f 347 1179 638
f 347 1021 800
f 347 800 1106
f 347 1106 861
f 347 861 1179
f 347 913 1021
f 348 349 806
f 348 806 638
f 348 638 1179
f 348 1179 861
f 349 350 719
f 349 719 806
f 350 351 764
f 350 942 351
f 350 764 719
f 350 935 942
f 351 636 352
f 351 352 874
f 351 942 636
f 351 874 764
f 352 636 527
f 352 527 1027
f 352 691 874
f 352 1027 691
f 353 440 744
f 353 1174 440
f 353 744 879
f 353 859 790
f 353 790 1174
f 353 879 859
f 354 859 554
f 354 1042 642
f 354 642 1105
f 354 1105 859
f 354 903 1042
f 355 725 642
f 355 642 1042
f 355 1000 725
f 355 1042 903
f 355 1225 1000
f 355 1068 1225
f 356 359 812
f 356 1087 359
f 356 458 1087
f 356 1102 458
f 356 710 534
f 356 534 1102
f 356 812 710
f 357 713 358
f 357 358 795
f 357 710 812
f 357 812 713
f 358 507 645
f 358 713 507
f 359 507 713
f 359 881 507
f 359 644 881
f 359 713 812
f 360 365 361
f 360 361 945
f 360 624 365
f 360 442 624
f 360 1046 442
f 360 945 1046
f 361 365 366
f 361 366 367
f 361 367 1073
f 361 1073 688
f 361 688 1157
f 361 1157 945
f 362 367 662
f 362 1073 367
f 362 640 688
f 362 776 640
f 362 662 776
f 362 688 1073
f 363 945 364
f 363 364 1190
f 363 394 647
f 363 1190 394
f 363 647 1046
f 363 1046 945
f 364 1122 392
f 364 392 1190
f 364 688 1122
f 364 1157 688
f 364 945 1157
f 365 1109 366
f 365 673 477
f 365 624 673
f 366 1109 367
f 367 653 662
f 367 1109 782
f 368 1220 886
f 368 1197 1220
f 369 370 998
f 370 371 1226
f 370 1226 998
f 371 695 1226
f 371 860 751
f 372 565 724
f 372 658 937
f 373 385 381
f 373 381 754
f 373 1010 385
f 373 739 417
f 373 417 1010
f 373 754 739
f 374 944 487
f 374 487 1216
f 374 704 944
f 374 1129 704
f 374 1002 1129
f 374 1216 1002
f 375 377 652
f 375 968 377
f 375 629 794
f 375 826 629
f 375 652 1009
f 375 794 968
f 375 1009 826
f 376 521 950
f 376 1052 521
f 376 585 951
f 376 951 1052
f 377 378 611
f 377 968 378
f 377 611 693
f 377 871 652
f 377 693 1185
f 377 1185 871
f 378 386 611
f 378 978 386
f 378 968 906
f 378 906 1114
f 378 1114 978
f 379 749 689
f 379 689 978
f 379 1056 749
f 379 948 1056
f 379 1114 948
f 379 978 1114
f 380 835 598
f 380 598 1094
f 380 1094 807
f 381 385 609
f 381 609 892
f 381 835 754
f 381 892 835
f 382 478 962
f 382 964 478
f 382 962 565
f 382 963 964
f 382 1049 963
f 383 411 532
f 383 966 411
f 383 495 841
f 383 965 495
f 383 532 965
f 383 841 966
f 384 546 972
f 384 1186 614
f 384 972 1186
f 385 637 609
f 385 1010 828
f 386 883 516
f 386 516 977
f 386 977 611
f 386 978 883
f 387 388 639
f 387 959 388
f 387 639 1176
f 387 1043 842
f 387 1176 1043
f 388 1072 389
f 388 389 1142
f 388 1142 639
f 389 666 472
f 389 472 1145
f 389 1201 666
f 389 1145 1142
f 390 454 589
f 390 981 454
f 390 982 551
f 390 551 1163
f 390 589 982
f 390 922 981
f 390 1163 922
f 391 509 1004
f 391 1187 509
f 391 816 983
f 391 983 1187
f 392 1132 475
f 392 475 1190
f 392 1122 1189
f 392 1189 1132
f 393 755 591
f 393 640 1062
f 393 1122 640
f 393 1062 755
f 393 1189 1122
f 393 1132 1189
f 394 1017 647
f 394 886 1017
f 394 1190 1061
f 395 830 433
f 395 433 845
f 395 443 714
f 395 845 443
f 395 694 830
f 395 1235 694
f 395 714 1235
f 396 516 993
f 396 994 516
f 396 993 992
f 396 992 1172
f 396 1172 994
f 397 466 997
f 397 1119 466
f 397 918 588
f 397 588 996
f 397 621 918
f 397 997 621
f 397 996 1119
f 398 445 820
f 398 960 445
f 398 515 489
f 398 489 714
f 398 714 960
f 399 900 407
f 399 407 1198
f 399 571 1168
f 399 1198 571
f 399 1131 900
f 399 969 1131
f 399 1168 969
f 400 890 1192
f 400 1232 999
f 400 1192 1232
f 401 790 463
f 401 463 1012
f 401 1174 790
f 401 1012 846
f 402 408 900
f 402 1128 408
f 402 761 819
f 402 969 761
f 402 819 1128
f 402 900 1131
f 402 1131 969
f 403 1001 643
f 403 643 1171
f 403 660 991
f 403 725 1000
f 403 1171 725
f 403 991 1001
f 404 761 405
f 404 405 1074
f 404 409 872
f 404 1074 409
f 404 468 819
f 404 872 468
f 404 819 761
f 405 411 410
f 405 410 1074
f 405 985 411
f 405 820 985
f 406 820 445
f 406 445 1194
f 406 510 682
f 406 1194 510
f 406 682 532
f 406 532 1158
f 406 985 820
f 406 1158 985
f 407 900 408
f 407 1110 592
f 407 592 1198
f 408 496 988
f 408 1128 496
f 409 1074 410
f 411 1158 532
f 411 985 1158
f 412 1006 518
f 412 518 1202
f 412 1005 615
f 412 916 1006
f 412 1202 1005
f 413 786 1008
f 414 431 415
f 414 415 815
f 414 416 431
f 414 748 416
f 414 676 748
f 414 815 676
f 415 431 432
f 415 432 801
f 416 748 430
f 416 430 1155
f 416 1155 431
f 417 826 536
f 417 536 1010
f 417 739 955
f 417 1011 826
f 417 955 1011
f 418 1084 437
f 418 437 1167
f 418 545 979
f 418 1167 545
f 418 581 604
f 418 979 581
f 418 604 1084
f 419 735 501
f 419 501 1020
f 419 1018 583
f 419 583 1019
f 419 1019 735
f 419 1020 1018
f 422 602 807
f 424 499 802
f 424 1024 499
f 424 701 1024
f 424 802 718
f 425 1025 576
f 425 576 1164
f 425 742 1025
f 425 1026 898
f 425 1164 1026
f 426 553 856
f 426 878 553
f 426 623 1146
f 426 1146 878
f 427 649 680
f 428 612 429
f 428 856 553
f 428 553 1159
f 428 1159 612
f 428 984 856
f 429 891 430
f 429 612 891
f 430 627 1155
f 431 721 432
f 431 627 721
f 431 1155 627
f 432 435 801
f 432 1014 435
f 432 721 1014
f 433 449 659
f 433 830 449
f 433 457 845
f 433 1028 457
f 433 659 1028
f 434 528 831
f 434 1032 528
f 434 756 1032
f 434 831 1031
f 435 545 550
f 435 979 545
f 435 550 801
f 435 581 979
f 435 1014 581
f 436 832 529
f 436 529 1034
f 436 1034 618
f 436 1033 832
f 437 752 952
f 437 952 1167
f 438 1035 442
f 438 442 1046
f 438 741 1035
f 438 1037 741
f 438 1046 1037
f 439 483 776
f 439 1038 483
f 439 1036 654
f 439 776 1036
f 439 895 1038
f 440 557 744
f 440 752 557
f 440 847 752
f 440 1174 847
f 441 867 594
f 441 600 867
f 441 1044 600
f 442 1035 624
f 443 960 714
f 443 845 1085
f 443 905 995
f 443 1085 905
f 443 995 960
f 444 753 501
f 444 501 1048
f 444 1047 753
f 444 1172 1047
f 444 1048 1172
f 445 960 995
f 445 1107 973
f 445 973 1194
f 445 995 1107
f 446 840 482
f 446 482 973
f 446 572 840
f 446 1204 572
f 446 1107 905
f 446 905 1204
f 446 973 1107
f 447 448 539
f 447 539 1238
f 447 870 777
f 447 954 870
f 447 1238 954
f 448 694 539
f 448 583 1086
f 448 1086 694
f 449 1086 583
f 449 830 1086
f 450 456 927
f 450 1081 456
f 450 586 1081
f 450 1082 586
f 450 1053 780
f 450 780 1082
f 450 927 1053
f 451 779 488
f 451 488 1064
f 451 1064 570
f 451 570 1065
f 451 1065 779
f 452 523 884
f 452 1099 523
f 452 798 1066
f 452 1066 1099
f 453 1076 587
f 453 1075 655
f 453 655 1076
f 454 981 1077
f 455 921 511
f 455 511 1079
f 455 593 989
f 455 1079 593
f 455 989 723
f 455 723 1078
f 455 1078 921
f 456 1081 544
f 456 544 1095
f 456 1095 1039
f 457 1028 520
f 457 520 1204
f 457 1085 845
f 457 1204 1085
f 458 1102 502
f 459 570 1088
f 459 599 667
f 459 1088 599
f 459 667 1089
f 460 734 493
f 460 493 1092
f 460 1092 540
f 460 540 1135
f 460 1091 734
f 460 1135 1091
f 461 632 1080
f 462 1097 740
f 462 1098 848
f 462 924 1097
f 463 1105 642
f 463 687 1012
f 463 790 1105
f 464 801 550
f 464 550 987
f 464 987 1106
f 465 669 484
f 465 484 1117
f 465 665 1115
f 465 1219 665
f 465 1115 669
f 465 1117 821
f 465 821 1219
f 466 517 1118
f 466 1120 517
f 466 1118 997
f 466 1119 1121
f 466 1121 1120
f 467 771 498
f 467 498 1124
f 467 1125 771
f 467 1124 1200
f 468 1127 496
f 468 496 1128
f 468 1128 819
f 468 872 1127
f 469 576 1133
f 469 1164 576
f 469 1134 1026
f 469 1026 1164
f 470 953 700
f 471 1116 1219
f 471 1219 1138
f 472 535 1145
f 472 666 1144
f 473 623 804
f 473 1146 623
f 473 888 878
f 473 878 1146
f 474 655 558
f 474 1147 655
f 474 857 936
f 475 851 595
f 475 595 1061
f 475 1148 851
f 475 1061 1190
f 475 1132 1148
f 476 697 479
f 476 479 1149
f 477 673 766
f 477 766 765
f 478 1152 962
f 479 934 1149
f 480 940 491
f 480 491 1153
f 480 1153 542
f 480 542 1211
f 481 793 824
f 482 510 973
f 482 1156 510
f 483 640 776
f 483 1062 640
f 483 1038 755
f 483 755 1062
f 484 588 933
f 484 1160 588
f 484 669 1160
f 484 933 1117
f 485 551 1003
f 485 1025 551
f 485 576 1025
f 485 1165 576
f 485 1003 1165
f 486 909 1013
f 486 915 1154
f 486 1154 1101
f 487 944 575
f 488 779 716
f 488 809 1064
f 489 515 969
f 489 559 714
f 489 1168 559
f 489 969 1168
f 491 580 1153
f 492 1080 592
f 492 592 1110
f 492 1110 708
f 493 838 1092
f 494 509 941
f 494 1004 509
f 494 941 1173
f 495 1007 803
f 496 534 988
f 496 1175 534
f 496 1127 1175
f 497 743 522
f 497 522 1178
f 497 625 1177
f 497 1205 743
f 497 1177 1205
f 499 716 946
f 499 1024 716
f 499 946 802
f 500 657 1162
f 500 1181 657
f 500 865 929
f 500 1162 865
f 501 735 1182
f 501 753 1020
f 501 1182 1048
f 502 602 1090
f 503 984 531
f 504 874 691
f 504 1185 693
f 504 871 1185
f 505 689 749
f 505 875 689
f 505 749 692
f 505 692 875
f 506 982 589
f 507 881 711
f 508 661 762
f 509 1187 941
f 510 1156 682
f 510 1194 973
f 511 591 549
f 512 954 571
f 512 571 1198
f 512 1198 592
f 512 592 1199
f 512 1199 954
f 513 797 603
f 513 923 1209
f 514 1176 639
f 514 1043 1176
f 515 761 969
f 516 883 993
f 516 994 977
f 517 759 1118
f 519 564 904
f 519 894 728
f 520 641 854
f 520 854 1204
f 522 1206 617
f 522 1188 1206
f 523 524 785
f 523 785 1207
f 523 1207 884
f 525 746 618
f 526 555 896
f 526 1213 555
f 526 930 1213
f 527 636 952
f 527 1214 847
f 527 952 1214
f 528 737 1218
f 528 1218 831
f 528 1217 833
f 528 1032 1217
f 529 832 736
f 529 736 1184
f 529 817 1034
f 529 1184 817
f 530 665 1116
f 530 731 949
f 533 563 1236
f 534 1175 1102
f 536 826 1009
f 536 828 1010
f 537 1236 563
f 537 660 1136
f 537 1136 1222
f 537 1222 1236
f 538 587 1103
f 538 1103 661
f 539 1237 571
f 539 571 1238
f 539 694 1235
f 539 1235 1237
f 540 1092 976
f 542 1153 919
f 542 1196 1211
f 543 917 670
f 543 829 917
f 544 549 887
f 544 1081 549
f 544 887 1095
f 545 914 550
f 545 1227 914
f 545 1167 1227
f 546 582 880
f 546 880 1229
f 546 1229 972
f 547 1224 1223
f 548 610 928
f 548 928 773
f 550 914 987
f 551 982 1003
f 551 1025 1163
f 552 875 853
f 553 732 1159
f 554 859 879
f 554 879 902
f 555 1213 924
f 556 648 1234
f 556 1234 814
f 557 596 744
f 557 767 596
f 558 792 757
f 559 1168 571
f 559 571 1237
f 559 1235 714
f 559 1237 1235
f 560 990 626
f 560 907 990
f 561 569 770
f 561 617 799
f 564 1203 904
f 566 736 1072
f 566 1141 736
f 566 738 1141
f 568 1093 613
f 568 893 722
f 570 1064 1088
f 571 954 1238
f 572 839 840
f 572 854 1022
f 572 1204 854
f 573 663 674
f 574 825 590
f 577 787 683
f 581 916 604
f 588 1137 933
f 597 650 1230
f 598 808 1094
f 598 835 892
f 600 749 1056
f 601 727 750
f 603 834 798
f 605 615 1113
f 606 664 784
f 608 1119 996
f 609 943 892
f 612 1159 733
f 614 646 885
f 616 863 681
f 616 822 1232
f 620 669 1115
f 620 732 1063
f 621 774 1055
f 622 722 783
f 622 1032 756
f 629 947 794
f 629 826 1011
f 630 735 1019
f 632 676 815
f 633 672 772
f 635 684 1041
f 640 1122 688
f 647 1037 1046
f 652 827 1009
f 655 1147 1076
f 657 753 1047
f 662 1036 776
f 664 1096 1208
f 664 1208 1166
f 665 1219 1116
f 666 1201 679
f 671 734 1091
f 672 775 1151
f 674 862 931
f 676 1059 748
f 677 698 1057
f 679 832 1033
f 689 883 978
f 690 743 1205
f 690 1205 1177
f 691 1215 846
f 691 1027 1215
f 694 1086 830
f 696 768 791
f 699 1180 929
f 699 1200 1124
f 702 797 864
f 703 932 781
f 704 966 841
f 706 1013 796
f 708 775 1166
f 709 805 1151
f 717 1100 773
f 718 834 974
f 719 764 1172
f 719 1050 806
f 719 1172 1050
f 720 1222 1070
f 720 1236 1222
f 727 927 750
f 728 1136 1068
f 730 771 1125
f 741 1037 1197
f 742 1069 778
f 742 778 1163
f 742 1163 1025
f 752 847 1214
f 752 1214 952
f 760 1104 810
f 765 1112 931
f 778 922 1163
f 781 1207 785
f 783 911 833
f 788 1054 789
f 790 859 1105
f 793 1203 902
f 794 906 968
f 809 1104 882
f 816 925 848
f 818 823 1150
f 821 1138 1219
f 831 842 1031
f 842 1043 986
f 851 921 1078
f 861 1106 987
f 870 954 1199
f 880 1123 1209
f 887 895 1095
f 889 1052 951
f 897 1212 925
f 901 992 993
f 905 1107 995
f 905 1085 1204
f 906 948 1114
f 908 1101 1030
f 914 1227 935
f 938 1005 1202
f 953 1018 1020
f 957 1165 1003
f 963 1169 964
f 991 1221 1001
f 992 1047 1172
f 1048 1050 1172
f 1066 1126 1099
f 1091 1135 1143
